<?xml version="1.0" standalone="no"?>
<!DOCTYPE svg PUBLIC "-//W3C//DTD SVG 1.1//EN" "http://www.w3.org/Graphics/SVG/1.1/DTD/svg11.dtd">
<!--Generator: Xara Designer (www.xara.com), SVG filter version: 6,5,0,13-->
<svg fill="none" fill-rule="evenodd" stroke="black" stroke-linejoin="bevel" stroke-miterlimit="10" font-family="Times New Roman" font-size="16" style="font-variant-ligatures:none" xmlns:xlink="http://www.w3.org/1999/xlink" xmlns="http://www.w3.org/2000/svg" version="1.1" overflow="visible" width="306.771pt" height="306.771pt" viewBox="1038.05 -455.775 306.771 306.771">
 <defs>
  <style type="text/css">@import url('https://themes.googleusercontent.com/fonts/css?family=Open Sans:400');
@import url('https://themes.googleusercontent.com/fonts/css?family=Poppins:400');</style>
 </defs>
 <g id="Layer 1" transform="scale(1 -1)" stroke-width="0.501">
  <g id="Group" fill="#ffffff" fill-rule="nonzero" stroke-linejoin="miter" stroke="none" stroke-width="6.527" stroke-miterlimit="0.00006103515625">
   <path d="M 1060.68,149.004 L 1060.68,193.403 L 1126.19,193.403 C 1141.53,193.403 1154.04,205.914 1154.04,221.343 L 1154.04,244.762 C 1154.04,256.985 1164,266.947 1176.2,266.947 L 1328.32,266.947 L 1328.32,222.548 L 1176.2,222.548 C 1160.82,222.548 1148.31,210.036 1148.31,194.604 L 1148.31,171.188 C 1148.31,158.965 1138.38,149.004 1126.19,149.004 L 1060.68,149.004 Z" marker-start="none" marker-end="none"/>
   <path d="M 1060.68,286.986 L 1126.19,286.986 C 1141.53,286.986 1154.04,299.498 1154.04,314.927 L 1154.04,338.315 C 1154.04,350.569 1164,360.533 1176.2,360.533 L 1219.57,360.533 L 1219.57,316.128 L 1176.17,316.128 C 1160.79,316.128 1148.28,303.592 1148.28,288.19 L 1148.28,264.774 C 1148.28,252.518 1138.35,242.557 1126.15,242.557 L 1060.68,242.557 L 1060.68,286.986 Z" marker-start="none" marker-end="none"/>
   <path d="M 1060.68,382.232 L 1126.19,382.232 C 1141.53,382.232 1154.04,394.77 1154.04,410.202 L 1154.04,433.56 C 1154.04,445.814 1164,455.775 1176.2,455.775 L 1219.57,455.775 L 1219.57,411.373 L 1176.17,411.373 C 1160.79,411.373 1148.28,398.835 1148.28,383.405 L 1148.28,360.017 C 1148.28,347.761 1138.35,337.799 1126.15,337.799 L 1060.68,337.799 L 1060.68,382.232 Z" marker-start="none" marker-end="none"/>
  </g>
  <rect x="-54.0002059936524" y="-54.0002059936524" width="108.000411987305" height="108.000411987305" rx="0" ry="0" transform="matrix(2.84045 0 0 2.84045 1191.44 302.389)" stroke-linejoin="round" stroke-linecap="round" stroke="none" stroke-width="2.13"/>
 </g>
</svg>
