<svg fill="none" fill-rule="evenodd" stroke="black" stroke-linejoin="bevel" stroke-miterlimit="10"  xmlns:xlink="http://www.w3.org/1999/xlink" xmlns="http://www.w3.org/2000/svg" version="1.1" overflow="visible" viewBox="21.261 -229.186 122.888 17.769">
 <g id="Page background" transform="scale(1 -1)" stroke-width="0.501"/>
 <g id="Layer 1" transform="scale(1 -1)" stroke-width="0.501">
  <g id="Group" stroke="none" fill-rule="nonzero" stroke-linejoin="round" stroke-linecap="round" stroke-width="0.666">
   <path d="M 23.265,216.441 C 23.265,214.767 23.786,213.552 24.832,212.791 C 25.88,212.036 27.176,211.656 28.728,211.656 L 29.532,211.656 L 29.532,213.766 L 28.62,213.766 C 27.75,213.766 27.119,213.959 26.733,214.359 C 26.349,214.744 26.158,215.444 26.158,216.441 L 26.129,222.28 L 29.532,222.28 L 29.532,224.405 L 26.129,224.405 L 26.129,226.891 L 23.265,226.891 L 23.265,224.405 L 21.261,224.405 L 21.261,222.28 L 23.265,222.28 L 23.265,216.441 Z" fill="currentColor" marker-start="none" marker-end="none"/>
   <path d="M 42.115,220.333 C 42.115,220.333 42.026,220.487 41.853,220.818 C 41.692,221.137 41.462,221.484 41.179,221.892 C 40.89,222.306 40.554,222.681 40.179,223.035 C 39.004,224.087 37.682,224.611 36.196,224.611 C 35.051,224.611 33.999,224.318 33.051,223.722 C 32.097,223.145 31.335,222.34 30.774,221.334 C 30.215,220.317 29.932,219.223 29.932,218.022 C 29.932,216.834 30.215,215.724 30.774,214.717 C 31.336,213.713 32.097,212.919 33.051,212.319 C 33.999,211.727 35.051,211.443 36.196,211.443 C 37.317,211.443 38.361,211.741 39.33,212.336 C 40.293,212.934 41.049,213.729 41.603,214.735 L 39.704,216.013 C 39.33,215.289 38.919,214.735 38.473,214.359 C 38.026,213.987 37.455,213.799 36.759,213.799 C 36.2,213.799 35.676,213.97 35.175,214.319 C 34.68,214.667 34.326,215.087 34.107,215.588 L 42.115,220.333 Z M 33.3,217.375 C 33.231,217.7 33.186,218.116 33.171,218.623 C 33.154,219.139 33.244,219.64 33.438,220.144 C 33.687,220.784 34.059,221.288 34.548,221.659 C 35.04,222.02 35.589,222.217 36.196,222.254 C 36.734,222.299 37.248,222.184 37.745,221.94 C 38.249,221.71 38.698,221.376 39.087,220.945 L 33.3,217.375 Z" fill="currentColor" marker-start="none" marker-end="none"/>
   <path d="M 61.819,222.445 C 63.032,222.488 63.83,222.105 64.209,221.298 C 64.592,220.508 64.785,219.413 64.785,218.005 L 64.785,211.626 L 67.623,211.626 L 67.623,218.005 C 67.623,219.987 67.158,221.616 66.216,222.843 C 65.286,224.078 63.806,224.655 61.819,224.592 C 60.293,224.538 58.961,223.942 57.797,222.788 L 57.797,229.186 L 54.962,229.186 L 54.962,219.896 C 54.478,219.257 53.765,218.209 52.825,216.763 C 52.807,216.743 52.78,216.708 52.765,216.694 C 52.089,215.651 51.456,214.899 50.87,214.441 C 50.292,213.975 49.556,213.758 48.672,213.799 C 47.701,213.83 46.955,214.24 46.422,215.028 C 45.89,215.816 45.615,216.806 45.615,218.005 C 45.615,219.217 45.89,220.208 46.422,220.995 C 46.955,221.756 47.701,222.174 48.672,222.225 C 49.404,222.28 50.077,222.105 50.706,221.676 C 51.328,221.257 51.82,220.71 52.171,220.032 L 54.078,221.322 C 53.525,222.319 52.765,223.106 51.802,223.704 C 50.839,224.286 49.79,224.592 48.672,224.592 C 47.542,224.592 46.525,224.286 45.641,223.704 C 44.75,223.106 44.055,222.319 43.557,221.322 C 43.06,220.314 42.805,219.217 42.805,218.005 C 42.805,216.194 43.337,214.674 44.416,213.423 C 45.486,212.174 46.901,211.512 48.672,211.443 C 49.933,211.402 51.044,211.727 51.988,212.429 C 52.929,213.128 53.788,214.088 54.557,215.297 C 54.629,215.403 54.743,215.572 54.884,215.807 C 55.74,217.212 56.466,218.307 57.073,219.094 C 58.096,220.386 58.994,221.252 59.779,221.72 C 60.569,222.179 61.24,222.425 61.819,222.445 Z M 57.797,218.663 C 57.817,218.663 57.754,218.58 57.61,218.401 C 56.24,216.401 55.352,214.993 54.962,214.177 L 54.962,211.626 L 57.797,211.626 L 57.797,218.663 Z" fill="currentColor" marker-start="none" marker-end="none"/>
   <path d="M 72.316,215.538 C 72.868,215.538 73.336,215.35 73.706,214.976 C 74.081,214.601 74.269,214.143 74.269,213.612 C 74.269,213.054 74.081,212.593 73.706,212.212 C 73.336,211.823 72.868,211.626 72.316,211.626 C 71.782,211.626 71.318,211.823 70.935,212.212 C 70.552,212.593 70.367,213.054 70.362,213.612 C 70.367,214.143 70.552,214.601 70.935,214.976 C 71.318,215.35 71.782,215.538 72.316,215.538 Z" fill="#ee4443" marker-start="none" marker-end="none"/>
   <path d="M 76.946,216.441 C 76.946,214.767 77.467,213.552 78.509,212.791 C 79.556,212.036 80.847,211.656 82.41,211.656 L 83.212,211.656 L 83.212,213.766 L 82.295,213.766 C 81.425,213.766 80.795,213.959 80.41,214.359 C 80.033,214.744 79.842,215.444 79.842,216.441 L 79.806,222.28 L 83.212,222.28 L 83.212,224.405 L 79.806,224.405 L 79.806,226.891 L 76.946,226.891 L 76.946,224.405 L 74.938,224.405 L 74.938,222.28 L 76.946,222.28 L 76.946,216.441 Z" fill="currentColor" marker-start="none" marker-end="none"/>
   <path d="M 84.487,224.405 L 84.487,211.656 L 87.354,211.656 L 87.354,224.405 L 84.487,224.405 Z M 85.909,229.186 C 85.423,229.186 85.004,229.003 84.661,228.64 C 84.327,228.278 84.148,227.831 84.148,227.315 C 84.148,226.817 84.327,226.382 84.661,226.013 C 85.004,225.656 85.423,225.469 85.909,225.469 C 86.407,225.469 86.827,225.656 87.184,226.013 C 87.525,226.382 87.703,226.817 87.703,227.315 C 87.703,227.831 87.525,228.278 87.184,228.64 C 86.827,229.003 86.407,229.186 85.909,229.186 Z" fill="currentColor" marker-start="none" marker-end="none"/>
   <path d="M 103.958,211.626 L 103.958,216.132 C 104.218,216.373 104.472,216.626 104.702,216.9 L 108.827,211.626 L 113.031,211.626 L 106.203,218.317 L 112.362,224.405 L 108.341,224.405 C 108.341,224.405 107.93,223.881 107.106,222.843 C 106.272,221.807 105.335,220.71 104.304,219.555 C 103.264,218.393 102.275,217.409 101.328,216.609 C 100.292,215.692 99.218,214.941 98.095,214.343 C 96.964,213.746 95.93,213.524 94.985,213.664 C 93.932,213.817 93.143,214.285 92.627,215.058 C 92.109,215.82 91.854,216.806 91.854,218.005 C 91.854,219.217 92.121,220.216 92.659,220.998 C 93.193,221.786 93.944,222.191 94.901,222.225 C 95.636,222.267 96.325,222.08 96.951,221.661 C 97.591,221.252 98.07,220.71 98.414,220.032 L 100.312,221.322 C 99.759,222.319 99.004,223.106 98.04,223.704 C 97.076,224.286 96.027,224.592 94.901,224.592 C 93.76,224.592 92.709,224.286 91.76,223.704 C 90.794,223.106 90.044,222.311 89.482,221.298 C 88.921,220.301 88.643,219.187 88.643,218.005 C 88.643,216.816 88.921,215.736 89.482,214.736 C 90.044,213.758 90.794,212.959 91.76,212.359 C 92.709,211.76 93.764,211.459 94.901,211.443 C 96.974,211.371 99.045,212.161 101.118,213.799 L 101.118,211.626 L 103.958,211.626 Z M 103.958,220.306 L 103.958,229.186 L 101.118,229.186 L 101.118,217.494 L 103.958,220.306 Z" fill="currentColor" marker-start="none" marker-end="none"/>
   <path d="M 123.711,220.333 C 123.711,220.333 123.622,220.487 123.458,220.814 C 123.282,221.137 123.054,221.484 122.775,221.892 C 122.489,222.306 122.159,222.681 121.784,223.035 C 120.606,224.087 119.277,224.611 117.797,224.611 C 116.646,224.611 115.601,224.318 114.65,223.722 C 113.695,223.145 112.935,222.34 112.371,221.334 C 111.814,220.317 111.53,219.223 111.53,218.022 C 111.53,216.834 111.814,215.724 112.371,214.717 C 112.935,213.713 113.695,212.919 114.65,212.319 C 115.601,211.727 116.646,211.443 117.797,211.443 C 118.921,211.443 119.964,211.741 120.932,212.336 C 121.889,212.934 122.648,213.729 123.2,214.735 L 121.307,216.013 C 120.932,215.289 120.516,214.735 120.069,214.359 C 119.625,213.987 119.049,213.799 118.359,213.799 C 117.802,213.799 117.275,213.97 116.78,214.319 C 116.273,214.667 115.917,215.087 115.707,215.588 L 123.711,220.333 Z M 114.907,217.375 C 114.832,217.7 114.785,218.116 114.768,218.623 C 114.751,219.139 114.832,219.64 115.037,220.144 C 115.285,220.784 115.658,221.288 116.146,221.659 C 116.643,222.02 117.191,222.217 117.797,222.254 C 118.33,222.299 118.845,222.184 119.348,221.94 C 119.846,221.71 120.295,221.376 120.685,220.945 L 114.907,217.375 Z" fill="currentColor" marker-start="none" marker-end="none"/>
   <path d="M 126.121,216.441 C 126.121,214.767 126.638,213.552 127.682,212.791 C 128.731,212.036 130.023,211.656 131.581,211.656 L 132.386,211.656 L 132.386,213.766 L 131.472,213.766 C 130.599,213.766 129.969,213.959 129.582,214.359 C 129.202,214.744 129.013,215.444 129.013,216.441 L 128.981,222.28 L 132.386,222.28 L 132.386,224.405 L 128.981,224.405 L 128.981,226.891 L 126.121,226.891 L 126.124,224.405 L 124.114,224.405 L 124.114,222.28 L 126.124,222.28 L 126.121,216.441 Z" fill="currentColor" marker-start="none" marker-end="none"/>
   <path d="M 141.804,214.735 C 141.784,214.27 141.525,213.929 141.025,213.713 C 140.528,213.505 139.869,213.391 139.043,213.391 C 138.23,213.379 137.426,213.483 136.647,213.729 C 135.872,213.97 135.204,214.246 134.643,214.557 C 134.077,214.874 133.794,215.028 133.794,215.028 L 133.794,212.967 C 133.794,212.967 133.96,212.869 134.279,212.676 C 134.604,212.474 135.022,212.272 135.538,212.071 C 136.059,211.858 136.689,211.694 137.438,211.561 C 138.189,211.426 138.996,211.385 139.875,211.443 C 141.128,211.512 142.13,211.881 142.892,212.543 C 143.667,213.198 144.076,213.992 144.138,214.923 C 144.202,216.081 143.987,216.989 143.473,217.675 C 142.968,218.333 142.343,218.812 141.602,219.094 C 140.862,219.374 139.919,219.654 138.779,219.896 C 137.813,220.103 137.111,220.297 136.68,220.487 C 136.238,220.684 136.019,220.995 136.019,221.391 C 136.019,222.254 136.834,222.671 138.458,222.631 C 139.281,222.591 140.066,222.466 140.826,222.254 C 141.579,222.037 142.229,221.807 142.752,221.56 C 143.28,221.309 143.543,221.193 143.543,221.193 L 143.543,223.329 C 143.543,223.329 143.26,223.445 142.683,223.685 C 142.114,223.925 141.426,224.139 140.626,224.33 C 139.828,224.517 138.991,224.611 138.138,224.611 C 136.512,224.611 135.363,224.254 134.682,223.525 C 134.007,222.803 133.646,222.001 133.612,221.137 C 133.573,220.112 133.794,219.317 134.279,218.727 C 134.764,218.129 135.349,217.7 136.034,217.44 C 136.72,217.168 137.611,216.905 138.696,216.659 C 139.784,216.388 140.58,216.141 141.08,215.902 C 141.578,215.657 141.824,215.265 141.804,214.735 Z" fill="currentColor" marker-start="none" marker-end="none"/>
  </g>
 </g>
</svg>