<?xml version="1.0" standalone="no"?>
<!DOCTYPE svg PUBLIC "-//W3C//DTD SVG 1.1//EN" "http://www.w3.org/Graphics/SVG/1.1/DTD/svg11.dtd">
<!--Generator: Xara Designer (www.xara.com), SVG filter version: 6,5,0,13-->
<svg fill="none" fill-rule="evenodd" stroke="black" stroke-linejoin="bevel" stroke-miterlimit="10" font-family="Times New Roman" font-size="16" style="font-variant-ligatures:none" xmlns:xlink="http://www.w3.org/1999/xlink" xmlns="http://www.w3.org/2000/svg" version="1.1" overflow="visible" width="92.473pt" height="35.744pt" viewBox="618.263 -656.801 92.473 35.744">
 <defs>
  <style type="text/css">@import url('https://themes.googleusercontent.com/fonts/css?family=Open Sans:400,600');</style>
 </defs>
 <g id="Page background" transform="scale(1 -1)" stroke-width="0.501"/>
 <g id="MouseOff" transform="scale(1 -1)" stroke-width="0.501">
  <g id="Group" fill="#ffffff" stroke-linecap="round" stroke="none" stroke-width="0.764">
   <g id="Group_1" fill-rule="nonzero" stroke-linejoin="round">
    <path d="M 621.152,621.861 C 620.278,622.398 619.579,623.117 619.052,624.021 C 618.526,624.924 618.263,625.932 618.263,627.044 L 618.263,636.486 C 618.263,637.071 618.341,637.631 618.498,638.166 L 622.548,638.166 C 622.545,638.162 622.541,638.158 622.537,638.154 C 622.091,637.677 621.867,637.121 621.867,636.486 L 621.867,627.044 C 621.867,626.389 622.085,625.828 622.522,625.361 C 622.959,624.895 623.475,624.661 624.071,624.661 C 624.706,624.661 625.238,624.889 625.664,625.346 C 626.091,625.803 626.305,626.369 626.305,627.044 L 626.305,628.503 L 624.22,628.503 C 624.121,628.503 624.071,628.553 624.071,628.652 L 624.071,631.988 C 624.071,632.087 624.121,632.137 624.22,632.137 L 629.79,632.137 C 629.813,632.137 629.833,632.133 629.849,632.124 L 628.16,622.768 L 628.159,622.762 C 627.82,622.419 627.44,622.119 627.02,621.861 C 626.146,621.325 625.163,621.057 624.071,621.057 C 622.999,621.057 622.026,621.325 621.152,621.861 Z M 626.305,635.116 L 626.305,636.248 C 626.305,637.002 626.091,637.627 625.664,638.124 C 625.652,638.138 625.64,638.152 625.628,638.166 L 629.69,638.166 C 629.836,637.636 629.909,637.076 629.909,636.486 L 629.909,635.116 C 629.909,635.036 629.859,634.996 629.76,634.996 L 626.424,634.996 C 626.345,634.996 626.305,635.036 626.305,635.116 Z M 618.776,638.907 C 618.766,638.886 618.757,638.866 618.747,638.845 L 618.747,638.845 C 618.756,638.867 618.766,638.887 618.776,638.907 Z M 623.802,638.848 C 623.792,638.848 623.782,638.847 623.773,638.845 L 623.772,638.845 C 623.786,638.848 623.797,638.849 623.802,638.848 Z M 624.36,638.848 C 624.366,638.849 624.377,638.847 624.391,638.845 L 624.391,638.845 C 624.38,638.847 624.37,638.848 624.36,638.848 Z M 629.466,638.817 C 629.449,638.859 629.43,638.9 629.411,638.941 C 629.43,638.901 629.448,638.86 629.466,638.817 C 629.462,638.827 629.458,638.836 629.455,638.845 C 629.458,638.836 629.462,638.827 629.466,638.817 Z M 618.864,639.096 C 618.905,639.183 618.95,639.268 618.997,639.353 C 619.015,639.385 619.034,639.417 619.052,639.449 C 619.034,639.417 619.015,639.385 618.997,639.353 C 618.953,639.273 618.91,639.19 618.864,639.096 C 618.853,639.075 618.843,639.054 618.833,639.033 C 618.844,639.054 618.854,639.076 618.864,639.096 Z M 629.326,639.128 C 629.271,639.244 629.22,639.342 629.176,639.421 C 629.156,639.456 629.145,639.475 629.135,639.494 C 629.145,639.475 629.156,639.456 629.176,639.421 C 629.224,639.335 629.278,639.233 629.326,639.128 C 629.337,639.107 629.347,639.084 629.357,639.061 C 629.347,639.084 629.337,639.106 629.326,639.128 Z M 624.071,642.413 C 624.005,642.413 623.94,642.412 623.875,642.41 C 623.94,642.412 624.005,642.413 624.071,642.413 Z M 624.071,642.413 C 624.139,642.413 624.207,642.412 624.275,642.41 C 624.207,642.412 624.139,642.413 624.071,642.413 Z" marker-start="none" marker-end="none"/>
    <path d="M 642.462,621.504 L 642.462,638.166 L 646.036,638.166 L 646.065,621.504 C 646.065,621.405 646.025,621.355 645.946,621.355 L 642.581,621.355 C 642.501,621.355 642.462,621.405 642.462,621.504 Z M 649.908,642.085 C 650.007,642.085 650.057,642.045 650.057,641.966 C 650.057,642.045 650.007,642.085 649.908,642.085 Z" marker-start="none" marker-end="none"/>
    <path d="M 651.183,621.504 L 651.208,638.166 L 654.787,638.166 L 654.787,633.835 L 660.317,633.835 L 660.936,630.235 L 660.936,630.231 C 660.932,630.231 660.928,630.231 660.923,630.231 L 654.787,630.231 L 654.787,625.019 L 660.923,625.019 C 661.003,625.019 661.042,624.969 661.042,624.87 L 661.042,621.474 C 661.042,621.395 661.003,621.355 660.923,621.355 L 651.303,621.355 C 651.223,621.355 651.183,621.405 651.183,621.504 Z M 659.457,638.845 L 658.921,641.966 L 659.457,638.845 Z M 651.333,642.085 C 651.253,642.085 651.213,642.045 651.213,641.966 C 651.213,642.045 651.253,642.085 651.333,642.085 Z" marker-start="none" marker-end="none"/>
    <path d="M 663.644,621.504 L 660.782,638.166 L 664.242,638.166 L 665.61,628.503 L 667.021,638.166 L 671.131,638.166 L 672.52,628.503 L 673.909,638.166 L 677.372,638.166 L 674.486,621.504 C 674.466,621.464 674.436,621.43 674.396,621.4 C 674.357,621.37 674.337,621.355 674.337,621.355 L 670.733,621.355 C 670.674,621.355 670.624,621.405 670.584,621.504 L 669.065,632.197 L 667.546,621.504 C 667.526,621.405 667.476,621.355 667.397,621.355 L 663.793,621.355 C 663.714,621.355 663.664,621.405 663.644,621.504 Z M 664.145,638.845 L 663.704,641.966 L 664.145,638.845 Z M 677.489,638.845 L 678.03,641.966 L 677.489,638.845 Z M 660.219,642.085 C 660.14,642.085 660.11,642.045 660.13,641.966 C 660.11,642.045 660.14,642.085 660.219,642.085 Z M 667.754,642.085 C 667.655,642.085 667.595,642.045 667.576,641.966 C 667.595,642.045 667.655,642.085 667.754,642.085 Z M 670.435,642.085 C 670.515,642.085 670.564,642.045 670.584,641.966 C 670.564,642.045 670.515,642.085 670.435,642.085 Z M 674.605,642.085 C 674.525,642.085 674.476,642.045 674.456,641.966 C 674.476,642.045 674.525,642.085 674.605,642.085 Z M 663.555,642.085 C 663.565,642.085 663.574,642.084 663.583,642.083 C 663.574,642.084 663.565,642.085 663.555,642.085 Z M 677.911,642.085 C 677.923,642.085 677.935,642.084 677.946,642.083 C 677.935,642.084 677.923,642.085 677.911,642.085 Z" marker-start="none" marker-end="none"/>
    <path d="M 689.017,621.355 L 688.362,624.908 L 695.303,638.166 L 699.308,638.166 L 692.33,624.84 L 699.509,624.84 C 699.588,624.84 699.628,624.79 699.628,624.691 L 699.657,621.504 C 699.657,621.405 699.608,621.355 699.509,621.355 L 689.017,621.355 Z M 688.667,642.085 C 688.587,642.085 688.548,642.036 688.548,641.937 C 688.548,642.036 688.587,642.085 688.667,642.085 Z M 699.449,642.085 C 699.548,642.085 699.598,642.036 699.598,641.937 C 699.598,642.036 699.548,642.085 699.449,642.085 Z" marker-start="none" marker-end="none"/>
    <path d="M 675.763,621.504 L 678.77,638.166 L 684.731,638.166 L 687.617,621.504 C 687.637,621.405 687.597,621.355 687.498,621.355 L 684.192,621.355 C 684.112,621.355 684.063,621.405 684.043,621.504 L 683.715,623.678 L 679.665,623.678 L 679.337,621.504 C 679.317,621.405 679.267,621.355 679.188,621.355 L 675.882,621.355 C 675.803,621.355 675.763,621.405 675.763,621.504 Z M 683.119,626.865 L 681.898,635.235 L 681.72,636.337 L 681.6,635.235 L 680.26,626.865 L 683.119,626.865 Z M 684.613,638.845 L 684.073,641.966 L 684.613,638.845 Z M 679.605,642.085 C 679.525,642.085 679.476,642.045 679.456,641.966 C 679.476,642.045 679.525,642.085 679.605,642.085 Z M 683.924,642.085 C 683.934,642.085 683.943,642.084 683.952,642.083 C 683.943,642.084 683.934,642.085 683.924,642.085 Z" marker-start="none" marker-end="none"/>
    <path d="M 700.877,621.504 L 700.901,638.166 L 704.481,638.166 L 704.481,633.835 L 710.586,633.835 C 710.666,633.835 710.706,633.795 710.706,633.716 L 710.736,630.35 C 710.736,630.271 710.696,630.231 710.616,630.231 L 704.481,630.231 L 704.481,625.019 L 710.616,625.019 C 710.696,625.019 710.736,624.969 710.736,624.87 L 710.736,621.474 C 710.736,621.395 710.696,621.355 710.616,621.355 L 700.996,621.355 C 700.916,621.355 700.877,621.405 700.877,621.504 Z M 710.586,642.085 C 710.666,642.085 710.706,642.036 710.706,641.937 C 710.706,642.036 710.666,642.085 710.586,642.085 Z M 701.026,642.085 C 700.946,642.085 700.907,642.045 700.907,641.966 C 700.907,642.045 700.946,642.085 701.026,642.085 Z" marker-start="none" marker-end="none"/>
    <path d="M 629.162,621.504 L 632.169,638.166 L 638.13,638.166 L 641.016,621.504 C 641.036,621.405 640.996,621.355 640.897,621.355 L 637.591,621.355 C 637.512,621.355 637.462,621.405 637.442,621.504 L 637.115,623.678 L 633.064,623.678 L 632.736,621.504 C 632.716,621.405 632.667,621.355 632.587,621.355 L 629.281,621.355 C 629.202,621.355 629.162,621.405 629.162,621.504 Z M 636.519,626.865 L 635.298,635.235 L 635.119,636.337 L 635,635.235 L 633.659,626.865 L 636.519,626.865 Z M 638.012,638.845 L 637.472,641.966 L 638.012,638.845 Z M 633.004,642.085 C 632.925,642.085 632.875,642.045 632.855,641.966 C 632.875,642.045 632.925,642.085 633.004,642.085 Z M 637.323,642.085 C 637.333,642.085 637.342,642.084 637.351,642.083 C 637.342,642.084 637.333,642.085 637.323,642.085 Z" marker-start="none" marker-end="none"/>
   </g>
   <path d="M 619.052,639.449 C 619.579,640.353 620.283,641.073 621.167,641.609 C 622.051,642.145 623.019,642.413 624.071,642.413 C 625.163,642.413 626.151,642.15 627.035,641.624 C 627.918,641.097 628.618,640.388 629.135,639.494 C 629.256,639.284 629.363,639.068 629.456,638.845 L 624.396,638.845 C 624.291,638.861 624.182,638.869 624.071,638.869 C 623.968,638.869 623.867,638.861 623.768,638.845 L 618.745,638.845 C 618.835,639.051 618.938,639.252 619.052,639.449 Z M 632.292,638.845 L 632.855,641.966 C 632.875,642.045 632.925,642.085 633.004,642.085 L 637.323,642.085 C 637.402,642.085 637.452,642.045 637.472,641.966 L 638.012,638.845 L 632.292,638.845 Z M 639.291,638.845 L 638.751,641.957 C 638.732,642.036 638.682,642.076 638.603,642.076 L 638.533,642.076 C 638.548,642.082 638.567,642.085 638.589,642.085 L 649.908,642.085 C 650.007,642.085 650.057,642.045 650.057,641.966 L 650.057,638.845 L 639.291,638.845 Z M 651.209,638.845 L 651.213,641.966 C 651.213,642.045 651.253,642.085 651.333,642.085 L 659.01,642.085 C 658.931,642.085 658.901,642.045 658.921,641.966 L 659.457,638.845 L 651.209,638.845 Z M 660.666,638.845 L 660.13,641.966 C 660.11,642.045 660.14,642.085 660.219,642.085 L 663.555,642.085 C 663.634,642.085 663.684,642.045 663.704,641.966 L 664.145,638.845 L 660.666,638.845 Z M 667.12,638.845 L 667.576,641.966 C 667.595,642.045 667.655,642.085 667.754,642.085 L 670.435,642.085 C 670.515,642.085 670.564,642.045 670.584,641.966 L 671.033,638.845 L 667.12,638.845 Z M 674.007,638.845 L 674.456,641.966 C 674.476,642.045 674.525,642.085 674.605,642.085 L 677.911,642.085 C 678.011,642.085 678.05,642.045 678.03,641.966 L 677.489,638.845 L 674.007,638.845 Z M 678.893,638.845 L 679.456,641.966 C 679.476,642.045 679.525,642.085 679.605,642.085 L 683.924,642.085 C 684.003,642.085 684.053,642.045 684.073,641.966 L 684.613,638.845 L 678.893,638.845 Z M 688.548,638.845 L 688.548,641.937 C 688.548,642.036 688.587,642.085 688.667,642.085 L 699.449,642.085 C 699.548,642.085 699.598,642.036 699.598,641.937 L 699.598,638.845 L 688.548,638.845 Z M 700.902,638.845 L 700.907,641.966 C 700.907,642.045 700.946,642.085 701.026,642.085 L 710.586,642.085 C 710.666,642.085 710.706,642.036 710.706,641.937 L 710.706,638.845 L 700.902,638.845 Z" stroke-linejoin="miter" marker-start="none" marker-end="none"/>
  </g>
  <text xml:space="preserve" transform="translate(618.263 647.39) scale(1 -1)" kerning="auto" fill="#ffffff" font-size="8.805" font-family="Open Sans" stroke="none" stroke-linecap="round" stroke-linejoin="round" stroke-width="0.252"><tspan x="0" y="0">Powered by</tspan></text>
 </g>
</svg>
