<svg xmlns="http://www.w3.org/2000/svg" role="img" xmlns:xlink="http://www.w3.org/1999/xlink" viewBox="-7.47 69.03 414.44 106.44"><title>aidev_color_whitetext.svg</title><style>svg {enable-background:new 0 0 400 245}</style><style>.st12{fill:#fff}</style><path d="M131 162c0 1.1.4 1.5 1.6 1.5h3.8c1.2 0 1.6-.4 1.6-1.5v-1.7c0-1.1-.4-1.5-1.6-1.5h-3.8c-1.2 0-1.6.4-1.6 1.5v1.7zm5.6-4.9c2.5 0 3.5.9 3.5 3v1.9c0 2.2-1 3-3.5 3h-3.9c-2.5 0-3.5-.9-3.5-3v-1.9c0-2.2 1-3 3.5-3h3.9zm6.8 6.7h4.6c1 0 1.3-.3 1.3-1.2v-1c0-1-.3-1.2-1.3-1.2h-3.2c-1 0-1.3.3-1.3 1.2l-.1 2.2zm4.8-5c2.2 0 3 .7 3 2.3v1.6c0 1.6-.8 2.3-3 2.3h-4.8v2.3c0 .2-.1.3-.3.3h-1.2c-.2 0-.3-.1-.3-.3V161c0-1.6.8-2.3 3-2.3h3.6v.1zm6.1 2.7h5.1c.2 0 .2 0 .2-.2v-.5c0-.5-.2-.7-.8-.7h-3.2c-1 0-1.3.3-1.3 1v.4zm4.9-2.7c1.7 0 2.1.5 2.1 1.8v1c0 .5-.2.7-.7.7h-6.3v.3c0 .7.3 1 1.3 1h5.2c.2 0 .2.1.2.2v1c0 .1-.1.2-.2.2h-5.4c-2.2 0-3-.7-3-2.3v-1.6c0-1.6.8-2.3 3-2.3h3.8zm10.1 0c2.2 0 3 .7 3 2.3v3.7c0 .2-.1.3-.3.3h-1.1c-.2 0-.3-.1-.3-.3v-3.3c0-1-.2-1.2-1.2-1.2H166c-1 0-1.3.3-1.3 1.2v3.3c0 .2-.1.3-.3.3h-1.2c-.2 0-.3-.1-.3-.3v-3.7c0-1.6.8-2.3 3-2.3h3.4zm17.7-1.7c.2 0 .3.1.3.3v1c0 .2-.1.3-.3.3h-6.3c-.5 0-.7.2-.7.7v.4c0 .4.2.7.7.7h4.8c1.4 0 2.2.7 2.2 1.9v.9c0 1.1-.7 1.8-2.2 1.8h-7c-.2 0-.3-.1-.3-.3v-1c0-.2.1-.3.3-.3h6.6c.5 0 .7-.2.7-.7v-.4c0-.4-.2-.7-.7-.7h-4.8c-1.4 0-2.2-.7-2.2-1.9v-.9c0-1.1.7-1.8 2.2-1.8h6.7zm3.7 5.5c0 1 .3 1.2 1.3 1.2h3.2c1 0 1.3-.3 1.3-1.2v-1.1c0-1-.3-1.2-1.3-1.2H192c-1 0-1.3.3-1.3 1.2v1.1zm4.8-3.8c2.2 0 3 .7 3 2.3v1.6c0 1.6-.8 2.3-3 2.3h-3.6c-2.2 0-3-.7-3-2.3v-1.6c0-1.6.8-2.3 3-2.3h3.6zm6.1 0c.2 0 .3.1.3.3v3.3c0 1 .2 1.2 1.2 1.2h3.2c1 0 1.3-.3 1.3-1.2v-3.3c0-.2.1-.3.3-.3h1.2c.2 0 .3.1.3.3v3.7c0 1.6-.8 2.3-3 2.3H203c-2.2 0-3-.7-3-2.3v-3.7c0-.2.1-.3.3-.3h1.3zm16.1 0c.2 0 .2.1.2.2v1c0 .2-.1.2-.2.2h-3.4c-1 0-1.3.3-1.3 1.2v3.4c0 .2-.1.3-.3.3h-1.2c-.2 0-.3-.1-.3-.3v-3.7c0-1.6.8-2.3 3-2.3h3.5zm9.1 0c.2 0 .2.1.2.2v1c0 .2-.1.2-.2.2h-4.9c-1 0-1.3.3-1.3 1.2v1c0 1 .3 1.2 1.3 1.2h4.9c.2 0 .2.1.2.2v1c0 .1-.1.2-.2.2h-5.1c-2.2 0-3-.7-3-2.3v-1.6c0-1.6.8-2.3 3-2.3h5.1zm2.9 2.7h5.1c.2 0 .2 0 .2-.2v-.5c0-.5-.2-.7-.8-.7h-3.1c-1 0-1.3.3-1.3 1l-.1.4zm5-2.7c1.7 0 2.1.5 2.1 1.8v1c0 .5-.2.7-.7.7h-6.4v.3c0 .7.3 1 1.3 1h5.2c.2 0 .2.1.2.2v1c0 .1-.1.2-.2.2h-5.4c-2.2 0-3-.7-3-2.3v-1.6c0-1.6.8-2.3 3-2.3h3.9zm17.6-1.7c.2 0 .3.1.3.3v1.1c0 .2-.1.3-.3.3H246c-1.2 0-1.6.4-1.6 1.5v1.6c0 1.2.4 1.5 1.6 1.5h4.2c.5 0 .7-.2.7-.7v-1c0-.1 0-.2-.2-.2H247c-.2 0-.3-.1-.3-.3v-.9c0-.2.1-.3.3-.3h5.2c.3 0 .4.1.4.4v2.7c0 1.2-.6 1.7-1.5 1.7H246c-2.5 0-3.5-.9-3.5-3v-1.9c0-2.2 1-3 3.5-3l6.3.2zm3.4 4.4h5.1c.2 0 .2 0 .2-.2v-.5c0-.5-.2-.7-.8-.7H257c-1 0-1.3.3-1.3 1v.4zm4.9-2.7c1.7 0 2.2.5 2.2 1.8v1c0 .5-.2.7-.7.7h-6.4v.3c0 .7.3 1 1.3 1h5.2c.2 0 .2.1.2.2v1c0 .1-.1.2-.2.2h-5.4c-2.2 0-3-.7-3-2.3v-1.6c0-1.6.8-2.3 3-2.3h3.8zm10.2 0c2.2 0 3 .7 3 2.3v3.7c0 .2-.1.3-.3.3h-1.2c-.2 0-.3-.1-.3-.3v-3.3c0-1-.2-1.2-1.2-1.2h-3.4c-1 0-1.3.3-1.3 1.2v3.3c0 .2-.1.3-.3.3h-1.2c-.2 0-.3-.1-.3-.3v-3.7c0-1.6.8-2.3 3-2.3h3.5zm7.8 3.4h4.4l-2-3.4c0-.1-.1-.1-.1-.1h-.1c-.1 0-.1 0-.1.1l-2.1 3.4zm2.5-5.1c.7 0 1 .2 1.4.9l4.2 6.9c.1.2.1.3-.2.3H285c-.2 0-.2 0-.3-.2l-.9-1.4h-5.9l-.9 1.4c-.1.1-.1.2-.3.2H275c-.2 0-.3-.1-.2-.3l4.2-6.9c.4-.7.8-.9 1.3-.9h.8zm8.4 0c.2 0 .3.1.3.3v7.6c0 .2-.1.3-.3.3h-1.3c-.2 0-.3-.1-.3-.3v-7.6c0-.2.1-.3.3-.3h1.3zm9.2 2.1l.7.5 1-.5c.4-.2.4-.3.4-.7v-.5c0-.3-.2-.5-.5-.5h-1.4c-.3 0-.4.2-.4.5v.4c-.1.4-.1.6.2.8m1.7 4.2l.5-.6-1.9-1.5-1.2.6c-.4.2-.6.5-.6 1v.3c0 .5.3.7.7.7h1.4c.6-.1.8-.1 1.1-.5m.6-7.1c.9 0 1.3.5 1.3 1.1v1c0 .9-.2 1.2-1 1.6l-1 .5 1.5 1.2 1.6-1.7c.1-.1.2-.1.4-.1h1.2c.2 0 .3.2.2.3l-2.2 2.4 2.6 2.1c.1.1.1.3-.1.3H304c-.2 0-.3 0-.4-.1l-1.4-1.2-.5.5c-.7.7-1 .9-2.1.9h-2.3c-1 0-1.6-.5-1.6-1.6v-.7c0-.9.3-1.3 1.1-1.7l1.4-.7-.7-.6c-.5-.5-.7-.8-.7-1.3v-.7c0-.9.4-1.3 1.2-1.3l3-.2zm12.5.8c.8 0 1 .2 1.3.9l2.6 5.5c0 .1.1.1.2.1h.2c.1 0 .1 0 .2-.1l2.6-5.5c.4-.7.6-.9 1.3-.9h1.3c.9 0 1 .3 1 1.1v6.6c0 .2-.1.3-.3.3h-1.2c-.2 0-.3-.1-.3-.3v-6c0-.1 0-.1-.1-.1h-.1c-.1 0-.1 0-.2.1l-2.5 5.1c-.4.9-.8 1.1-1.6 1.1h-.5c-.9 0-1.1-.3-1.6-1.1l-2.5-5.1c0-.1-.1-.1-.2-.1h-.1c-.1 0-.1 0-.1.1v6c0 .2-.1.3-.3.3h-1.2c-.2 0-.3-.1-.3-.3v-6.6c0-.9.2-1.1 1.1-1.1h1.3zm14.3 0c.2 0 .3.1.3.3v4.6c0 1.2.4 1.5 1.6 1.5h5.1c.2 0 .3.1.3.3v1.1c0 .2-.1.3-.3.3h-5.1c-2.5 0-3.5-.9-3.5-3v-4.8c0-.2.1-.3.3-.3h1.3zm21.6 0c.2 0 .3.1.3.3v1c0 .2-.1.3-.3.3H343c-.5 0-.7.2-.7.7v.4c0 .4.2.7.7.7h4.8c1.4 0 2.2.7 2.2 1.9v.9c0 1.1-.7 1.8-2.2 1.8h-7c-.2 0-.3-.1-.3-.3v-1c0-.2.1-.3.3-.3h6.6c.5 0 .7-.2.7-.7v-.4c0-.4-.2-.7-.7-.7h-4.8c-1.4 0-2.2-.7-2.2-1.9v-.9c0-1.1.7-1.8 2.2-1.8h6.8zm3.5 1.7c.2 0 .3.1.3.3v3.3c0 1 .2 1.2 1.2 1.2h3.2c1 0 1.3-.3 1.3-1.2v-3.3c0-.2.1-.3.3-.3h1.2c.2 0 .3.1.3.3v3.7c0 1.6-.8 2.3-3 2.3h-3.5c-2.2 0-3-.7-3-2.3v-3.7c0-.2.1-.3.3-.3h1.4zm19 0c2.2 0 3 .7 3 2.3v3.7c0 .2-.1.3-.3.3h-1.2c-.2 0-.3-.1-.3-.3v-3.3c0-1-.2-1.2-1.2-1.2h-2.2v4.7c0 .2-.1.3-.3.3h-1.2c-.2 0-.3-.1-.3-.3v-4.7h-2.1c-1 0-1.3.3-1.3 1.2v3.3c0 .2-.1.3-.3.3H363c-.2 0-.3-.1-.3-.3v-3.7c0-1.6.8-2.3 3-2.3h6.2zm14.1 0c2.2 0 3 .7 3 2.3v3.7c0 .2-.1.3-.3.3h-1.2c-.2 0-.3-.1-.3-.3v-3.3c0-1-.2-1.2-1.2-1.2h-2.2v4.7c0 .2-.1.3-.3.3h-1.2c-.2 0-.3-.1-.3-.3v-4.7h-2.1c-1 0-1.3.3-1.3 1.2v3.3c0 .2-.1.3-.3.3h-1.2c-.2 0-.3-.1-.3-.3v-3.7c0-1.6.8-2.3 3-2.3h6.2zm6.1 0c.2 0 .3.1.3.3v5.8c0 .2-.1.3-.3.3h-1.2c-.2 0-.3-.1-.3-.3v-5.8c0-.2.1-.3.3-.3h1.2zm0-2.3c.2 0 .3.1.3.3v1c0 .2-.1.3-.3.3h-1.2c-.2 0-.3-.1-.3-.3v-1c0-.2.1-.3.3-.3h1.2zm2.8 2.3v-1.5c0-.2.1-.3.3-.3h1.2c.2 0 .3.1.3.3v1.5h2.2c.2 0 .2.1.2.2v1c0 .1-.1.2-.2.2h-2.2v2.7c0 .7.2 1 1 1h1.2c.2 0 .2.1.2.2v1c0 .1-.1.2-.2.2h-1.5c-2 0-2.5-.7-2.5-2.3v-2.7h-1.1c-.2 0-.2-.1-.2-.2v-1c0-.1.1-.2.2-.2l1.1-.1z" class="st12"/><defs><path id="SVGID_00000101100777405138003380000018325073739755999125_" d="M41.4 105.7l-20.7 29.4 20.8 29.8h15.9l-4.9-6.9-16.1-22.9 16.1-22.7 4.7-6.7z"/></defs><clipPath id="SVGID_00000106829531335239094350000009050178212898034853_"><use overflow="visible" xlink:href="#SVGID_00000101100777405138003380000018325073739755999125_"/></clipPath><linearGradient id="SVGID_00000145034273125786781370000012413963546419831448_" x1="-1105.491" x2="-1104.351" y1="238.358" y2="238.358" gradientTransform="rotate(-20.158 -115652.73 -283693.469) scale(94.8912)" gradientUnits="userSpaceOnUse"><stop offset="0" stop-color="#ec157a"/><stop offset="1" stop-color="#f9a52c"/></linearGradient><path fill="url(#SVGID_00000145034273125786781370000012413963546419831448_)" d="M.1 112.8L53 94.6l24.9 63.3L25 176.1z" clip-path="url(#SVGID_00000106829531335239094350000009050178212898034853_)"/><defs><path id="SVGID_00000109737569657160025850000005356044676962441396_" d="M21.5 105.7L.7 135.1l21 29.8h15.7l-20.8-29.8 16-22.7 4.7-6.7z"/></defs><clipPath id="SVGID_00000019671913435793373350000018203620903367389108_"><use overflow="visible" xlink:href="#SVGID_00000109737569657160025850000005356044676962441396_"/></clipPath><linearGradient id="SVGID_00000176011764901335038850000005633190233646876846_" x1="-1105.487" x2="-1104.347" y1="238.351" y2="238.351" gradientTransform="rotate(-20.158 -115670 -283690.432) scale(94.8912)" gradientUnits="userSpaceOnUse"><stop offset="0" stop-color="#ec157a"/><stop offset="1" stop-color="#363739"/></linearGradient><path fill="url(#SVGID_00000176011764901335038850000005633190233646876846_)" d="M-19.8 112.8l53-18.2L58 157.9 5.1 176.1z" clip-path="url(#SVGID_00000019671913435793373350000018203620903367389108_)"/><g><defs><path id="SVGID_00000157299574185661392980000001877574334626375566_" d="M41.2 77.2l20.2 28.5h-.1l4.9 6.9 16.1 22.8-16.1 22.9-4.7 6.6h15.9l20.7-29.5-19.5-27.6L57 77.2z"/></defs><clipPath id="SVGID_00000013190537109147866630000001155028866065921451_"><use overflow="visible" xlink:href="#SVGID_00000157299574185661392980000001877574334626375566_"/></clipPath><linearGradient id="SVGID_00000078013507195004384740000006431324002492052908_" x1="-1105.501" x2="-1104.362" y1="238.6" y2="238.6" gradientTransform="rotate(-20.158 -115725.132 -283680.564) scale(94.8912)" gradientUnits="userSpaceOnUse"><stop offset="0" stop-color="#ec157a"/><stop offset="1" stop-color="#f9a52c"/></linearGradient><path fill="url(#SVGID_00000078013507195004384740000006431324002492052908_)" d="M10.9 87.6l80.5-27.7 37.1 94.5L48 182.1z" clip-path="url(#SVGID_00000013190537109147866630000001155028866065921451_)"/></g><g><defs><path id="SVGID_00000036252615973047080890000012539901103012087171_" d="M81.2 105.7l20.9 29.7L86 158.3l-4.7 6.6h15.9l20.7-29.5L97 105.7z"/></defs><clipPath id="SVGID_00000017511841258771645560000011348048091585410194_"><use overflow="visible" xlink:href="#SVGID_00000036252615973047080890000012539901103012087171_"/></clipPath><linearGradient id="SVGID_00000088834319313453082200000004987865683244502202_" x1="-1105.503" x2="-1104.363" y1="238.449" y2="238.449" gradientTransform="rotate(-20.158 -115618.285 -283699.637) scale(94.8912)" gradientUnits="userSpaceOnUse"><stop offset="0" stop-color="#ec157a"/><stop offset="1" stop-color="#f9a52c"/></linearGradient><path fill="url(#SVGID_00000088834319313453082200000004987865683244502202_)" d="M60.6 112.8l53-18.2 24.8 63.3-52.8 18.2z" clip-path="url(#SVGID_00000017511841258771645560000011348048091585410194_)"/></g><g><defs><path id="SVGID_00000091701948543921615670000012095904927636799151_" d="M61.1 77.2l18.1 25.7H95L76.9 77.2z"/></defs><clipPath id="SVGID_00000114052490130847427580000010784095323982704829_"><use overflow="visible" xlink:href="#SVGID_00000091701948543921615670000012095904927636799151_"/></clipPath><linearGradient id="SVGID_00000070811973805541405350000005358700812329437071_" x1="-1105.505" x2="-1104.374" y1="238.259" y2="238.259" gradientTransform="rotate(-20.158 -115707.862 -283683.695) scale(94.8912)" gradientUnits="userSpaceOnUse"><stop offset="0" stop-color="#ec157a"/><stop offset="1" stop-color="#f58529"/></linearGradient><path fill="url(#SVGID_00000070811973805541405350000005358700812329437071_)" d="M52.2 80.2L91 66.8l12.9 33-38.8 13.4z" clip-path="url(#SVGID_00000114052490130847427580000010784095323982704829_)"/></g><g><path d="M160.8 95.7c3.1 0 5.1 1 7.1 4.7l20.5 37.2c.4.8.2 1.4-.7 1.4h-7.8c-.8 0-1.1-.2-1.4-.8l-4.4-8H145l-4.2 8c-.3.6-.7.8-1.4.8h-8.1c-1 0-1.2-.6-.8-1.4l20.3-37.2c2-3.7 3.9-4.7 6.5-4.7h3.5zM148.7 123H170l-9.8-18.1c-.2-.3-.3-.4-.7-.4h-.3c-.3 0-.5.1-.7.4l-9.8 18.1zm53-27.3c.9 0 1.3.4 1.3 1.3v40.6c0 .9-.4 1.3-1.3 1.3H195c-.9 0-1.4-.4-1.4-1.3V97.1c0-.9.5-1.3 1.4-1.3h6.7z" class="st12"/><linearGradient id="SVGID_00000114764270649423790070000000631938370055362222_" x1="207.576" x2="246.6" y1="-164.434" y2="-164.434" gradientTransform="matrix(1 0 0 -1 0 -18)" gradientUnits="userSpaceOnUse"><stop offset="0" stop-color="#ec157a"/><stop offset="1" stop-color="#f9a52c"/></linearGradient><path fill="url(#SVGID_00000114764270649423790070000000631938370055362222_)" d="M245.5 143.5c.7 0 1.1.3 1.1 1.1v3.7c0 .7-.3 1.1-1.1 1.1h-36.8c-.7 0-1.1-.3-1.1-1.1v-3.7c0-.7.3-1.1 1.1-1.1h36.8z"/><path d="M288.3 105.1V94c0-.9.4-1.3 1.3-1.3h6c.9 0 1.3.4 1.3 1.3v32.5c0 9-3.6 12.5-14.7 12.5h-17.3c-11.1 0-14.7-3.5-14.7-12.5v-8.9c0-9 3.6-12.5 14.7-12.5h23.4zm0 19.7v-12.3h-22.4c-5.3 0-6.7 1.6-6.7 6.8v5.5c0 5.2 1.4 6.8 6.7 6.8h15.6c5.3 0 6.8-1.6 6.8-6.8zm47.9-19.7c8.5 0 10.7 2.6 10.7 10.1v5.9c0 2.6-1.1 3.5-3.5 3.5h-31.2v1.5c0 3.9 1.4 5.5 6.8 5.5h25.8c.7 0 1.1.3 1.1 1.1v5.2c0 .7-.3 1.1-1.1 1.1H318c-11.1 0-14.7-3.5-14.7-12.5v-8.9c0-9 3.6-12.5 14.7-12.5h18.2zm-24.1 14h25.1c.7 0 1-.2 1-1v-2.6c0-2.5-.9-3.5-3.8-3.5h-15.5c-5.4 0-6.8 1.5-6.8 5.5v1.6zm45.6-14c.7 0 1.2.2 1.5.8l14.5 25.5c.2.3.3.3.7.3h.2c.3 0 .5 0 .7-.3l14.6-25.5c.3-.5.7-.8 1.5-.8h6.8c.8 0 1.2.7.8 1.5l-16.9 29.6c-1.2 2-2.4 2.8-5.2 2.8h-5.1c-2.7 0-3.9-.7-5.1-2.8l-16.9-29.6c-.4-.8 0-1.5.8-1.5h7.1z" class="st12"/></g></svg>