<svg width="125" height="26" viewBox="0 0 125 26" fill="none" xmlns="http://www.w3.org/2000/svg">
<g clip-path="url(#clip0_1387_1145)">
<path d="M23.9547 16.7622C23.805 16.2576 23.4924 15.7901 23.0518 15.4113L21.7743 14.3135L19.7001 16.0964L21.2329 17.4156C21.2817 17.4573 21.3097 17.5182 21.3097 17.5823C21.3097 17.6463 21.2817 17.7072 21.2329 17.7489L16.5005 21.817C14.1782 23.8136 10.6753 23.8128 8.35291 21.817L3.75321 17.8631C3.11716 17.3169 2.7526 16.5238 2.7526 15.6883V10.3125C2.7526 9.47699 3.11716 8.6839 3.75321 8.13768L8.35369 4.18379C9.47685 3.21789 10.9235 2.68633 12.4275 2.68633C13.9315 2.68633 15.3781 3.21789 16.5013 4.18379L21.2406 8.25726C21.2895 8.29892 21.3174 8.35987 21.3174 8.4239C21.3174 8.48794 21.2895 8.54889 21.2406 8.59055L12.4275 16.1658L8.7454 13.0012L12.4275 9.83573L14.58 11.6889L16.6502 9.90902L14.0153 7.64393C13.1101 6.86626 11.7449 6.86626 10.8397 7.64393L6.64645 11.2483C6.13451 11.6889 5.84053 12.3269 5.84053 13.0004C5.84053 13.6739 6.13451 14.3127 6.64645 14.7524L10.8397 18.3568C11.7449 19.1353 13.1101 19.1353 14.0153 18.3568L23.0526 10.5887C23.4932 10.2099 23.805 9.74315 23.9554 9.23783C24.2719 8.17085 23.9345 7.01593 23.096 6.29459L18.2714 2.14706C16.6045 0.715943 14.5156 0 12.4275 0C10.3394 0 8.25053 0.715943 6.58439 2.14706L1.98469 6.10095C0.753708 7.15943 0.0478516 8.69393 0.0478516 10.3125V15.6883C0.0478516 17.3061 0.753708 18.8413 1.98469 19.8998L6.58439 23.8537C8.19545 25.2385 10.2704 26.0008 12.4267 26.0008C14.5831 26.0008 16.6588 25.2385 18.2698 23.8537L23.0945 19.7062C23.9337 18.9848 24.2711 17.8291 23.9539 16.7629L23.9547 16.7622Z" fill="#0E0F13"/>
<path d="M38.8975 5.3409C42.81 5.3409 45.6823 7.10067 46.8272 10.0192L44.1845 11.3439C43.3312 9.25313 41.541 8.01103 38.9185 8.01103C35.6513 8.01103 33.1948 9.99839 33.1948 12.9995C33.1948 16.0006 35.6506 17.9879 38.9185 17.9879C41.541 17.9879 43.3304 16.7458 44.1845 14.6551L46.8272 15.9798C45.6823 18.8983 42.8108 20.6581 38.8975 20.6581C33.8402 20.6581 30.0728 17.4078 30.0728 12.9987C30.0728 8.58965 33.8394 5.33936 38.8975 5.33936V5.3409Z" fill="#0E0F13"/>
<path d="M57.5587 5.5686L65.0928 20.4314H61.7838L60.0564 16.9743H51.6063L49.8579 20.4314H46.5908L54.1249 5.5686H57.5587ZM52.897 14.3867H58.7455L55.8321 8.57047L52.8978 14.3867H52.897Z" fill="#0E0F13"/>
<path d="M67.1465 15.07C68.853 17.3475 71.5585 18.0511 73.7645 18.0511C76.2621 18.0511 78.0314 17.3058 78.0314 16.1054C78.0314 14.6982 76.8035 14.5732 72.5994 14.118C68.9367 13.7037 66.1265 13.021 66.1265 10.0816C66.1265 7.14221 68.8948 5.34155 73.1401 5.34155C76.47 5.34155 79.4672 6.52116 80.8199 8.30176L78.7799 10.2475C77.635 8.77777 75.5128 7.92913 72.9733 7.92913C70.3097 7.92913 69.1019 8.77777 69.1019 9.77145C69.1019 10.8477 70.101 11.0961 73.8886 11.5312C78.1346 12.0072 81.131 12.5666 81.131 15.7744C81.131 18.9823 77.8631 20.6595 73.638 20.6595C70.0793 20.6595 66.5415 19.2932 65.084 17.2024L67.1449 15.07H67.1465Z" fill="#0E0F13"/>
<path d="M91.8982 8.19784V20.4314H88.818V8.19784H82.2202V5.5686H98.4953V8.19784H91.8982Z" fill="#0E0F13"/>
<path d="M112.774 5.5686L120.308 20.4314H116.999L115.271 16.9743H106.822L105.074 20.4314H101.806L109.34 5.5686H112.774ZM108.111 14.3867H113.96L111.045 8.57047L108.111 14.3867Z" fill="#0E0F13"/>
<path d="M124.553 20.4314H121.494V5.5686H124.553V20.4314Z" fill="#0E0F13"/>
</g>
<defs>
<clipPath id="clip0_1387_1145">
<rect width="124.107" height="26" fill="white"/>
</clipPath>
</defs>
</svg>
