<?xml version="1.0" encoding="utf-8"?>
<!-- Generator: Adobe Illustrator 26.2.1, SVG Export Plug-In . SVG Version: 6.00 Build 0)  -->
<svg version="1.1" id="Layer_1" xmlns="http://www.w3.org/2000/svg" xmlns:xlink="http://www.w3.org/1999/xlink" x="0px" y="0px"
	 viewBox="0 0 582.9 358" style="enable-background:new 0 0 582.9 358;" xml:space="preserve">
<style type="text/css">
	.st0{fill:#FFFFFF;}
	.st1{fill:#93D2DB;}
	.st2{fill:#F2E6B1;}
	.st3{fill:#EAEAEA;}
	.st4{fill:#95D89A;}
	.st5{fill:#EAA0EA;}
	.st6{fill:#DC8580;}
	.st7{fill:#7F87B2;}
	.st8{fill:#24242B;}
	.st9{fill:#FF3131;}
	.st10{fill:#13E813;}
	.st11{fill:#2727FF;}
	.st12{fill:#DCDCFF;}
	.st13{fill:#6300FF;}
	.st14{fill:#DBDBDB;}
	.st15{fill:#F2C33D;}
	.st16{fill:#5BBCE3;}
	.st17{fill:#62C439;}
	.st18{fill:#E24DBF;}
	.st19{fill:#E54857;}
	.st20{fill:#2962D3;}
	.st21{fill:none;stroke:#000000;stroke-width:3;stroke-miterlimit:10;}
	.st22{fill:#19192B;}
	.st23{fill:#1A3B47;}
	.st24{fill:#0055FF;}
	.st25{fill:none;stroke:#FFE5D9;stroke-width:5;stroke-linecap:round;stroke-miterlimit:10;}
	.st26{fill:none;stroke:#FFE5D9;stroke-width:5;stroke-miterlimit:10;}
	.st27{fill:none;stroke:#757580;stroke-width:8;stroke-linecap:round;stroke-linejoin:round;stroke-miterlimit:10;}
	.st28{fill:none;stroke:#FFFFFF;stroke-width:5;stroke-linecap:round;stroke-miterlimit:10;}
	.st29{fill:#EDE72B;}
	.st30{fill:url(#SVGID_1_);}
	.st31{fill:#FC8D6B;}
	.st32{fill:#DDDEF0;}
	.st33{fill:#00C8DD;}
	.st34{fill:#3C7B8E;}
	.st35{fill:none;stroke:#FFFFFF;stroke-width:0.5;stroke-miterlimit:10;}
	.st36{fill:none;stroke:#19192B;stroke-width:6;stroke-miterlimit:10;}
	.st37{fill:none;}
	.st38{fill:#7674A5;}
	.st39{fill:#D36666;}
	.st40{fill:#76D376;}
	.st41{fill:#5377DB;}
	.st42{fill:#3E3060;}
	.st43{fill:#92C2DD;}
	.st44{fill:#95DAB6;}
	.st45{fill:#83B2D0;}
	.st46{fill:#DDDEF0;stroke:#19192B;stroke-width:3;stroke-linejoin:round;stroke-miterlimit:10;}
	.st47{fill:#FC8D6B;stroke:#19192B;stroke-width:3;stroke-linejoin:round;stroke-miterlimit:10;}
	.st48{fill:#8A6BF9;stroke:#19192B;stroke-width:3;stroke-linejoin:round;stroke-miterlimit:10;}
	.st49{opacity:0.61;fill:#FFFFFF;}
	.st50{opacity:0.7;fill:#FFFFFF;}
	.st51{fill:none;stroke:#19192B;stroke-width:20;stroke-miterlimit:10;}
	.st52{fill:#89B5E5;}
	.st53{fill:#F4E4A2;}
	.st54{fill:#FFC7A1;}
	.st55{fill:#DDAFDB;}
	.st56{fill:#FCA4A2;}
	.st57{fill:#99E0BC;}
	.st58{fill:#F2E6B1;stroke:#000000;stroke-width:2;stroke-miterlimit:10;}
	.st59{fill:none;stroke:#000000;stroke-width:2;stroke-miterlimit:10;}
	.st60{fill:none;stroke:#000000;stroke-width:2;stroke-linejoin:round;stroke-miterlimit:10;}
	.st61{fill:#EAEAEA;stroke:#000000;stroke-width:2;stroke-miterlimit:10;}
	.st62{fill:#EAA0EA;stroke:#000000;stroke-width:2;stroke-linejoin:round;stroke-miterlimit:10;}
	.st63{fill:#EAA0EA;stroke:#000000;stroke-width:2;stroke-miterlimit:10;}
	.st64{fill:none;stroke:#DC8580;stroke-width:4;stroke-linecap:square;stroke-miterlimit:10;}
	.st65{fill:none;stroke:#DC8580;stroke-width:4;stroke-linecap:square;stroke-miterlimit:10;stroke-dasharray:11.6342,11.6342;}
	.st66{fill:none;stroke:#DC8580;stroke-width:4;stroke-miterlimit:10;}
	.st67{fill:none;stroke:#DC8580;stroke-width:4;stroke-miterlimit:10;stroke-dasharray:12.5885,12.5885;}
	.st68{fill:none;stroke:#DC8580;stroke-width:4;stroke-linecap:square;stroke-miterlimit:10;stroke-dasharray:10.8927,10.8927;}
	.st69{fill:#93D2DB;stroke:#000000;stroke-width:2;stroke-miterlimit:10;}
	.st70{fill:#95D89A;stroke:#000000;stroke-width:2;stroke-linejoin:round;stroke-miterlimit:10;}
	.st71{fill:none;stroke:#95D89A;stroke-width:6;stroke-linecap:round;stroke-linejoin:round;}
	.st72{fill:none;stroke:#95D89A;stroke-width:6;stroke-linecap:round;stroke-linejoin:round;stroke-dasharray:0.4244,10.1855;}
	.st73{fill:none;stroke:#95D89A;stroke-width:6;stroke-linecap:round;stroke-linejoin:round;stroke-dasharray:0.5091,12.2173;}
	.st74{fill:none;stroke:#95D89A;stroke-width:6;stroke-linecap:round;stroke-linejoin:round;stroke-dasharray:0.3989,9.5733;}
	.st75{fill:none;stroke:#95D89A;stroke-width:6;stroke-linecap:round;stroke-linejoin:round;stroke-dasharray:0.5081,12.1955;}
	.st76{fill:none;stroke:#95D89A;stroke-width:6;stroke-linecap:round;stroke-linejoin:round;stroke-dasharray:0.4634,11.1224;}
	.st77{fill:#F2E6B1;stroke:#DC8580;stroke-width:2;stroke-miterlimit:10;}
	.st78{fill:none;stroke:#DC8580;stroke-width:2;stroke-miterlimit:10;}
	.st79{fill:none;stroke:#DC8580;stroke-width:2;stroke-linejoin:round;stroke-miterlimit:10;}
	.st80{fill:#EAEAEA;stroke:#DC8580;stroke-width:2;stroke-miterlimit:10;}
	.st81{fill:#93D2DB;stroke:#DC8580;stroke-width:2;stroke-miterlimit:10;}
	.st82{fill:#EAA0EA;stroke:#DC8580;stroke-width:2;stroke-linejoin:round;stroke-miterlimit:10;}
	.st83{fill:none;stroke:#000000;stroke-width:5;stroke-miterlimit:10;}
	.st84{fill:#FFFF00;}
	.st85{fill:#C11E1E;}
	.st86{fill:#D39700;}
	.st87{fill:#A00000;}
	.st88{fill:#006629;}
	.st89{fill:#BC0000;}
	.st90{fill:#FFF6EB;}
	.st91{fill:none;stroke:#FFFFFF;stroke-width:6;stroke-linecap:round;stroke-miterlimit:10;}
	.st92{fill:#00703A;}
	.st93{fill:none;stroke:#24242B;stroke-width:3;stroke-miterlimit:10;}
	.st94{fill:none;stroke:#BC0000;stroke-width:4;stroke-linecap:round;stroke-miterlimit:10;}
	.st95{fill:none;stroke:#BC0000;stroke-width:2;stroke-linecap:round;stroke-miterlimit:10;}
	.st96{fill:none;stroke:#BC0000;stroke-width:6;stroke-linecap:round;stroke-miterlimit:10;}
	.st97{fill:none;stroke:#BC0000;stroke-width:3;stroke-linecap:round;stroke-miterlimit:10;}
	.st98{fill:none;stroke:#BC0000;stroke-width:3;stroke-miterlimit:10;}
</style>
<g>
	<g>
		<path class="st8" d="M582.9,228c0,2.1,0,4.2-0.2,6.3c-0.1,1.8-0.2,3.6-0.4,5.3c0,0.6-0.1,1.1-0.2,1.7c-0.2,1.5-0.3,3.1-0.6,4.6
			c-0.1,0.6-0.2,1.2-0.2,1.8c0,0.1,0,0.1,0,0.2c-0.2,1.5-0.5,3.1-0.8,4.6c-0.1,0.6-0.2,1.2-0.4,1.8c-0.3,1.5-0.6,3-1,4.4
			c-1.4,5.9-3.2,11.6-5.4,17.1c0,0,0,0,0,0.1c-0.7,1.9-1.5,3.7-2.3,5.5c-0.8,1.8-1.7,3.6-2.5,5.4c-2.7,5.3-5.7,10.3-9,15.2
			c-2.2,3.2-4.6,6.3-7.1,9.3c-1.2,1.5-2.5,2.9-3.7,4.3l-0.1,0.1H24.3C9.1,296.4,0,272.2,0,245.9c0-60.5,47.9-109.8,107.8-112.1
			c20-77,90-133.8,173.3-133.8C351,0,411.5,40,440.9,98.4c3.9-0.4,7.9-0.6,11.9-0.6c40.4,0,76.5,18.4,100.4,47.3
			c2,2.4,3.9,4.9,5.7,7.4c0.6,0.9,1.2,1.7,1.8,2.6c1.7,2.6,3.4,5.3,5,8c1,1.8,2,3.6,3,5.5c2.4,4.7,4.5,9.5,6.3,14.5c0.4,1,0.7,2,1,3
			c0.5,1.5,1,3,1.5,4.5c0.5,1.5,0.9,3.1,1.3,4.6C581.5,205.9,582.9,216.7,582.9,228z"/>
	</g>
	<g>
		<path class="st0" d="M207,104.8c3.4,0,6.4,0.8,8.8,2.4c2.5,1.6,4.4,3.7,5.7,6.3l-7.7,5.9c-0.8-1.2-1.7-2.2-2.7-3.1
			c-1-0.8-2.4-1.3-3.9-1.3c-2,0-3.6,0.6-4.7,1.9c-1.1,1.3-1.7,2.9-1.7,4.9s0.6,3.6,1.7,4.9c1.1,1.3,2.7,1.9,4.7,1.9
			c1.6,0,2.9-0.4,3.9-1.2s1.9-1.8,2.7-3l7.7,5.8c-1.3,2.6-3.2,4.7-5.7,6.3c-2.5,1.6-5.4,2.4-8.8,2.4c-2.5,0-4.8-0.4-6.9-1.3
			c-2.2-0.9-4-2.1-5.6-3.6c-1.6-1.5-2.8-3.3-3.8-5.4c-0.9-2.1-1.4-4.3-1.4-6.7c0-2.4,0.5-4.7,1.4-6.7c0.9-2.1,2.2-3.9,3.8-5.4
			c1.6-1.5,3.4-2.7,5.6-3.6C202.2,105.2,204.6,104.8,207,104.8z"/>
		<path class="st0" d="M237.9,137.9h-11.1V89.4h11.1V137.9z"/>
		<path class="st0" d="M261.1,104.8c2.4,0,4.7,0.4,6.9,1.3c2.2,0.9,4,2.1,5.6,3.6c1.6,1.5,2.9,3.3,3.8,5.4c0.9,2.1,1.4,4.3,1.4,6.7
			c0,2.4-0.5,4.7-1.4,6.7c-0.9,2.1-2.2,3.9-3.8,5.4c-1.6,1.5-3.5,2.7-5.6,3.6c-2.2,0.9-4.4,1.3-6.9,1.3c-2.5,0-4.8-0.4-6.9-1.3
			c-2.1-0.9-4-2.1-5.6-3.6c-1.6-1.5-2.8-3.3-3.8-5.4c-0.9-2.1-1.4-4.3-1.4-6.7c0-2.4,0.5-4.7,1.4-6.7c0.9-2.1,2.2-3.9,3.8-5.4
			c1.6-1.5,3.4-2.7,5.6-3.6C256.4,105.2,258.7,104.8,261.1,104.8z M261.2,115c-1.9,0-3.4,0.6-4.6,1.9c-1.1,1.3-1.7,2.9-1.7,4.9
			c0,2,0.6,3.7,1.7,4.9c1.1,1.2,2.7,1.8,4.6,1.8c1.8,0,3.2-0.6,4.4-1.8c1.2-1.2,1.8-2.9,1.8-4.9c0-2-0.6-3.6-1.8-4.9
			C264.4,115.6,263,115,261.2,115z"/>
		<path class="st0" d="M315.8,122.8c0,2.4-0.4,4.6-1.2,6.5c-0.8,1.9-1.9,3.6-3.3,5c-1.4,1.4-3.1,2.5-5,3.2c-1.9,0.8-4,1.1-6.3,1.1
			c-2.3,0-4.4-0.4-6.3-1.1c-1.9-0.8-3.6-1.8-5-3.2c-1.4-1.4-2.5-3-3.3-5c-0.8-1.9-1.2-4.1-1.2-6.5v-17.3h11.1v18.2
			c0,1.4,0.4,2.5,1.3,3.4c0.9,0.9,2,1.3,3.4,1.3c1.3,0,2.4-0.4,3.3-1.3c0.9-0.9,1.3-2,1.3-3.4v-18.2h11.1V122.8z"/>
		<path class="st0" d="M356.2,137.9H346v-3.3c-2.1,2.7-5.2,4.1-9.3,4.1c-2.3,0-4.4-0.4-6.3-1.3c-1.9-0.8-3.5-2-4.9-3.5
			c-1.4-1.5-2.4-3.3-3.2-5.3c-0.8-2.1-1.2-4.3-1.2-6.8s0.4-4.7,1.2-6.8c0.8-2.1,1.8-3.9,3.2-5.4c1.4-1.5,3-2.7,4.9-3.5
			c1.9-0.8,4-1.3,6.3-1.3c1.8,0,3.3,0.3,4.7,0.8c1.4,0.5,2.6,1.3,3.6,2.3V89.4h11.1V137.9z M338.9,114.9c-0.8,0-1.6,0.1-2.4,0.4
			c-0.8,0.3-1.4,0.7-2,1.3c-0.6,0.6-1.1,1.3-1.4,2.2c-0.4,0.9-0.6,1.9-0.6,3c0,1.1,0.2,2.1,0.5,3c0.3,0.9,0.8,1.6,1.4,2.2
			c0.6,0.6,1.3,1,2,1.3c0.8,0.3,1.6,0.4,2.4,0.4c0.8,0,1.5-0.1,2.3-0.4c0.8-0.3,1.4-0.7,2-1.2c0.6-0.6,1.1-1.3,1.4-2.1
			c0.4-0.9,0.5-1.9,0.5-3s-0.2-2.2-0.5-3c-0.4-0.9-0.8-1.6-1.4-2.2c-0.6-0.6-1.3-1-2-1.3C340.5,115,339.7,114.9,338.9,114.9z"/>
		<path class="st0" d="M210.2,165.9c1.9,0,3.6,0.3,5.1,0.9c1.5,0.6,2.8,1.5,3.9,2.7c1.1,1.2,1.9,2.6,2.5,4.2
			c0.6,1.6,0.9,3.4,0.9,5.4V199h-11.1v-18.3c0-1.5-0.4-2.6-1.3-3.5s-2-1.3-3.4-1.3s-2.5,0.4-3.4,1.3c-0.9,0.9-1.3,2-1.3,3.5V199H191
			v-32.4h10.2v2.7c1.1-1,2.4-1.9,3.9-2.5C206.6,166.2,208.3,165.9,210.2,165.9z"/>
		<path class="st0" d="M243.8,165.9c2.2,0,4.2,0.3,6,0.9c1.8,0.6,3.4,1.5,4.6,2.7c1.3,1.2,2.3,2.7,3,4.5c0.7,1.8,1.1,3.9,1.1,6.3
			V199h-10.2v-2.6c-1.1,1-2.5,1.9-4,2.5c-1.6,0.6-3.3,0.9-5.3,0.9c-1.8,0-3.4-0.3-4.8-0.8c-1.4-0.5-2.6-1.3-3.5-2.2
			c-0.9-0.9-1.6-2-2.1-3.2c-0.5-1.2-0.7-2.5-0.7-3.8c0-3.1,1.1-5.4,3.4-7.1c2.3-1.7,5.4-2.5,9.3-2.5h6.8v-0.5c0-1.2-0.4-2.1-1.1-2.9
			c-0.8-0.8-2-1.2-3.8-1.2c-1.6,0-2.9,0.3-4.2,1c-1.2,0.7-2.5,1.7-3.9,2.9l-5.2-7.1c2.1-2.2,4.3-3.8,6.6-4.9
			C238.2,166.4,240.8,165.9,243.8,165.9z M242.5,191.9c1.4,0,2.5-0.4,3.5-1.2c0.9-0.8,1.4-2,1.4-3.5v-0.3h-5.2c-2,0-3,0.8-3,2.5
			c0,0.8,0.3,1.4,0.8,1.8C240.6,191.7,241.4,191.9,242.5,191.9z"/>
		<path class="st0" d="M287.3,176h-8.7v9.6c0,1.5,0.4,2.6,1.2,3.3c0.8,0.7,2.3,1,4.3,1c0.5,0,1.1,0,1.7,0c0.7,0,1.5-0.1,2.3-0.1v9.3
			c-0.9,0.2-2,0.4-3,0.6c-1.1,0.1-2.2,0.2-3.5,0.2c-4.5,0-8-1.1-10.5-3.2c-2.5-2.2-3.7-5.5-3.7-9.9V176h-4.9v-9.3h4.9v-7.8h11.1v7.8
			h8.7V176z"/>
		<path class="st0" d="M299.5,148.6c0.9,0,1.8,0.2,2.7,0.5c0.8,0.3,1.5,0.8,2.2,1.4c0.6,0.6,1.1,1.3,1.5,2.1
			c0.4,0.8,0.6,1.7,0.6,2.6c0,0.9-0.2,1.8-0.6,2.6c-0.4,0.8-0.9,1.5-1.5,2.1c-0.6,0.6-1.3,1-2.2,1.4c-0.8,0.3-1.7,0.5-2.7,0.5
			c-1,0-1.8-0.2-2.7-0.5c-0.8-0.3-1.5-0.8-2.2-1.4c-0.6-0.6-1.1-1.3-1.5-2.1c-0.3-0.8-0.5-1.7-0.5-2.6c0-1.9,0.7-3.5,2-4.7
			C295.9,149.2,297.6,148.6,299.5,148.6z M305.1,199h-11.1v-32.4h11.1V199z"/>
		<path class="st0" d="M329,199.8h-3.6l-16.6-33.1h11.8l6.5,14.6l6.6-14.6h11.8L329,199.8z"/>
		<path class="st0" d="M363.7,165.9c2.4,0,4.5,0.4,6.4,1.2c1.9,0.8,3.6,1.9,4.9,3.3c1.3,1.4,2.4,3,3.1,4.9c0.7,1.9,1.1,3.8,1.1,5.9
			c0,1-0.1,2-0.2,2.9c-0.1,1-0.3,1.8-0.5,2.6h-20.7c0.6,1.3,1.5,2.2,2.8,2.8c1.2,0.6,2.7,0.9,4.5,0.9c1.6,0,3-0.2,4.4-0.6
			c1.4-0.4,2.7-1.1,4.1-1.9l4,7.6c-3.8,2.9-8.1,4.3-12.9,4.3c-2.7,0-5.1-0.4-7.3-1.3c-2.2-0.9-4.1-2.1-5.8-3.6
			c-1.6-1.5-2.9-3.3-3.8-5.4c-0.9-2.1-1.3-4.3-1.3-6.7c0-2.4,0.4-4.7,1.3-6.7c0.9-2.1,2.1-3.9,3.7-5.4c1.6-1.5,3.4-2.7,5.5-3.6
			C359,166.3,361.3,165.9,363.7,165.9z M363.2,174.6c-1.4,0-2.6,0.4-3.6,1.3c-1,0.8-1.8,2-2.3,3.6h11.3c-0.1-1.5-0.6-2.7-1.7-3.6
			S364.6,174.6,363.2,174.6z"/>
		<path class="st0" d="M230,227c3.9,0,7,1.2,9.2,3.6c2.2,2.4,3.3,5.6,3.3,9.6v19.9h-11.1v-18.3c0-1.5-0.4-2.7-1.3-3.5
			c-0.9-0.8-2-1.3-3.3-1.3c-1.3,0-2.4,0.4-3.2,1.3c-0.8,0.8-1.2,2-1.2,3.5v18.3h-11.1v-18.3c0-1.5-0.4-2.7-1.3-3.5
			c-0.9-0.8-2-1.3-3.3-1.3c-1.3,0-2.4,0.4-3.2,1.3c-0.8,0.8-1.2,2-1.2,3.5v18.3H191v-32.4h10.2v2.5c1.1-1,2.4-1.8,3.8-2.4
			c1.5-0.6,3.1-0.9,5.1-0.9c2,0,3.8,0.4,5.4,1.1c1.6,0.7,2.9,1.7,4,3.1c1.3-1.3,2.8-2.3,4.6-3C225.8,227.4,227.8,227,230,227z"/>
		<path class="st0" d="M265.1,227c2.4,0,4.5,0.4,6.4,1.2c1.9,0.8,3.6,1.9,4.9,3.3c1.3,1.4,2.4,3,3.1,4.9c0.7,1.9,1.1,3.8,1.1,5.9
			c0,1-0.1,2-0.2,2.9c-0.1,1-0.3,1.8-0.5,2.6h-20.7c0.6,1.3,1.5,2.2,2.8,2.8c1.2,0.6,2.7,0.9,4.5,0.9c1.6,0,3-0.2,4.4-0.6
			c1.4-0.4,2.7-1.1,4.1-1.9l4,7.6c-3.8,2.9-8.1,4.3-12.9,4.3c-2.7,0-5.1-0.4-7.3-1.3c-2.2-0.9-4.1-2.1-5.8-3.6
			c-1.6-1.5-2.9-3.3-3.8-5.4c-0.9-2.1-1.3-4.3-1.3-6.7c0-2.4,0.4-4.7,1.3-6.7c0.9-2.1,2.1-3.9,3.7-5.4c1.6-1.5,3.4-2.7,5.5-3.6
			C260.5,227.4,262.7,227,265.1,227z M264.7,235.8c-1.4,0-2.6,0.4-3.6,1.3s-1.8,2-2.3,3.6h11.3c-0.1-1.5-0.6-2.7-1.7-3.6
			C267.3,236.2,266.1,235.8,264.7,235.8z"/>
		<path class="st0" d="M319.6,260.2h-10.2v-3.3c-2.1,2.7-5.2,4.1-9.3,4.1c-2.3,0-4.4-0.4-6.3-1.3c-1.9-0.8-3.5-2-4.9-3.5
			c-1.4-1.5-2.4-3.3-3.2-5.3c-0.8-2.1-1.2-4.3-1.2-6.8c0-2.5,0.4-4.7,1.2-6.8c0.8-2.1,1.8-3.9,3.2-5.4c1.4-1.5,3-2.7,4.9-3.5
			c1.9-0.8,4-1.3,6.3-1.3c1.8,0,3.3,0.3,4.7,0.8c1.4,0.5,2.6,1.3,3.6,2.3v-18.5h11.1V260.2z M302.4,237.1c-0.8,0-1.6,0.1-2.4,0.4
			c-0.8,0.3-1.4,0.7-2,1.3c-0.6,0.6-1.1,1.3-1.4,2.2c-0.4,0.9-0.6,1.9-0.6,3c0,1.1,0.2,2.1,0.5,3c0.3,0.9,0.8,1.6,1.4,2.2
			c0.6,0.6,1.3,1,2,1.3c0.8,0.3,1.6,0.4,2.4,0.4c0.8,0,1.5-0.1,2.3-0.4c0.8-0.3,1.4-0.7,2-1.2c0.6-0.6,1.1-1.3,1.4-2.1
			c0.4-0.9,0.5-1.9,0.5-3s-0.2-2.2-0.5-3c-0.4-0.9-0.8-1.6-1.4-2.2c-0.6-0.6-1.3-1-2-1.3C303.9,237.3,303.1,237.1,302.4,237.1z"/>
		<path class="st0" d="M332.3,209.7c0.9,0,1.8,0.2,2.7,0.5c0.8,0.3,1.5,0.8,2.2,1.4c0.6,0.6,1.1,1.3,1.5,2.1
			c0.4,0.8,0.6,1.7,0.6,2.6c0,0.9-0.2,1.8-0.6,2.6c-0.4,0.8-0.9,1.5-1.5,2.1c-0.6,0.6-1.3,1-2.2,1.4c-0.8,0.3-1.7,0.5-2.7,0.5
			c-1,0-1.8-0.2-2.7-0.5c-0.8-0.3-1.5-0.8-2.2-1.4c-0.6-0.6-1.1-1.3-1.5-2.1c-0.3-0.8-0.5-1.7-0.5-2.6c0-1.9,0.7-3.5,2-4.7
			C328.8,210.4,330.4,209.7,332.3,209.7z M338,260.2h-11.1v-32.4H338V260.2z"/>
		<path class="st0" d="M359.5,227c2.2,0,4.2,0.3,6,0.9c1.8,0.6,3.4,1.5,4.6,2.7c1.3,1.2,2.3,2.7,3,4.5c0.7,1.8,1.1,3.9,1.1,6.3v18.8
			H364v-2.6c-1.1,1-2.5,1.9-4,2.5c-1.6,0.6-3.3,0.9-5.3,0.9c-1.8,0-3.4-0.3-4.8-0.8c-1.4-0.5-2.6-1.3-3.5-2.2
			c-0.9-0.9-1.6-2-2.1-3.2c-0.5-1.2-0.7-2.5-0.7-3.8c0-3.1,1.1-5.4,3.4-7.1c2.3-1.7,5.4-2.5,9.3-2.5h6.8v-0.5c0-1.2-0.4-2.1-1.1-2.9
			c-0.8-0.8-2-1.2-3.8-1.2c-1.6,0-2.9,0.3-4.2,1c-1.2,0.7-2.5,1.7-3.9,2.9l-5.2-7.1c2.1-2.2,4.3-3.8,6.6-4.9
			C353.8,227.6,356.4,227,359.5,227z M358.1,253c1.4,0,2.5-0.4,3.5-1.2c0.9-0.8,1.4-2,1.4-3.5v-0.3h-5.2c-2,0-3,0.8-3,2.5
			c0,0.8,0.3,1.4,0.8,1.8C356.2,252.8,357,253,358.1,253z"/>
		<path class="st0" d="M386.4,246.4c1,0,2,0.2,2.9,0.6c0.9,0.4,1.6,0.9,2.3,1.6c0.6,0.6,1.1,1.4,1.5,2.3c0.4,0.9,0.6,1.8,0.6,2.8
			c0,1-0.2,2-0.6,2.9c-0.4,0.9-0.9,1.6-1.5,2.3c-0.6,0.6-1.4,1.2-2.3,1.5c-0.9,0.4-1.8,0.5-2.9,0.5c-2.2,0-4-0.7-5.3-2.1
			c-1.4-1.4-2-3.1-2-5.2c0-2,0.7-3.7,2-5.1C382.4,247.1,384.2,246.4,386.4,246.4z"/>
	</g>
	<path class="st3" d="M94.5,315.6v41.1c-28.3-4.5-53.1-19.6-70.2-41.1H94.5z"/>
	<path class="st2" d="M170.3,315.6V358h-58.1c-6.1,0-12-0.5-17.7-1.4v-41.1H170.3z"/>
	<rect x="170.3" y="315.6" class="st1" width="75.8" height="42.5"/>
	<rect x="246.1" y="315.6" class="st4" width="75.9" height="42.5"/>
	<rect x="322" y="315.6" class="st5" width="75.8" height="42.5"/>
	<path class="st6" d="M473.7,315.6v40.8c-0.4,0-0.7,0.1-1.1,0.2c-0.7,0.1-1.5,0.2-2.3,0.3c-1,0.2-2.1,0.3-3.1,0.4
		c-2.4,0.3-4.9,0.5-7.4,0.6c-0.9,0-1.9,0.1-2.8,0.1c-1.4,0-2.9,0.1-4.3,0.1h-55v-42.5H473.7z"/>
	<path class="st7" d="M549,315.6c-1.4,1.5-2.8,3-4.2,4.4c-0.2,0.2-0.4,0.4-0.6,0.6c-1.3,1.3-2.6,2.5-3.9,3.8
		c-0.3,0.2-0.6,0.5-0.9,0.8c-1.6,1.4-3.2,2.7-4.8,4.1c0,0,0,0-0.1,0.1c-1.7,1.4-3.4,2.7-5.2,4c-1.8,1.3-3.6,2.6-5.5,3.8
		c-1.9,1.2-3.7,2.4-5.7,3.5c-3.8,2.2-7.7,4.2-11.8,6.1c-4.2,1.9-8.6,3.6-13,5.1c-2,0.6-4.1,1.3-6.1,1.8c-2.7,0.7-5.4,1.4-8.2,1.9
		c-1,0.2-2,0.4-3.1,0.6c-0.1,0-0.2,0-0.3,0.1c-0.6,0.1-1.3,0.2-1.9,0.3v-40.8H549z"/>
</g>
</svg>
