<?xml version="1.0" standalone="no"?>
<!DOCTYPE svg PUBLIC "-//W3C//DTD SVG 1.1//EN" "http://www.w3.org/Graphics/SVG/1.1/DTD/svg11.dtd">
<!--Generator: Xara Designer (www.xara.com), SVG filter version: 6.6.0.13-->
<svg fill="none" fill-rule="evenodd" stroke="black" stroke-linejoin="bevel" stroke-miterlimit="10" font-family="Times New Roman" font-size="16" style="font-variant-ligatures:none" xmlns:xlink="http://www.w3.org/1999/xlink" xmlns="http://www.w3.org/2000/svg" version="1.1" overflow="visible" width="518.287pt" height="233.32pt" viewBox="1654.57 -27.069 518.287 233.32">
 <defs>
  <linearGradient id="LinearGradient" gradientUnits="userSpaceOnUse" x1="0" y1="0" x2="213.771" y2="0" gradientTransform="translate(1955.81 -91.078)">
   <stop offset="0" stop-color="#9f1e63"/>
   <stop offset="0.600000023841858" stop-color="#e45237"/>
   <stop offset="1" stop-color="#f15a29"/>
  </linearGradient>
  <linearGradient id="LinearGradient_1" gradientUnits="userSpaceOnUse" x1="0" y1="0" x2="11.097" y2="0" gradientTransform="translate(2147.16 16.616)">
   <stop offset="0" stop-color="#9f1e63"/>
   <stop offset="0.600000023841858" stop-color="#e45237"/>
   <stop offset="1" stop-color="#f15a29"/>
  </linearGradient>
  <linearGradient id="LinearGradient_2" gradientUnits="userSpaceOnUse" x1="0" y1="0" x2="11.097" y2="0" gradientTransform="translate(2143.48 -10.224)">
   <stop offset="0" stop-color="#9f1e63"/>
   <stop offset="0.600000023841858" stop-color="#e45237"/>
   <stop offset="1" stop-color="#f15a29"/>
  </linearGradient>
  <linearGradient id="LinearGradient_3" gradientUnits="userSpaceOnUse" x1="0" y1="0" x2="11.097" y2="0" gradientTransform="translate(2154.44 -1.592)">
   <stop offset="0" stop-color="#9f1e63"/>
   <stop offset="0.600000023841858" stop-color="#e45237"/>
   <stop offset="1" stop-color="#f15a29"/>
  </linearGradient>
  <linearGradient id="LinearGradient_4" gradientUnits="userSpaceOnUse" x1="0" y1="0" x2="9.393" y2="0" gradientTransform="translate(2137.83 9.683)">
   <stop offset="0" stop-color="#9f1e63"/>
   <stop offset="0.600000023841858" stop-color="#e45237"/>
   <stop offset="1" stop-color="#f15a29"/>
  </linearGradient>
  <linearGradient id="LinearGradient_5" gradientUnits="userSpaceOnUse" x1="0" y1="0" x2="10.16" y2="0" gradientTransform="translate(2162.7 9.911)">
   <stop offset="0" stop-color="#9f1e63"/>
   <stop offset="0.600000023841858" stop-color="#e45237"/>
   <stop offset="1" stop-color="#f15a29"/>
  </linearGradient>
  <linearGradient id="LinearGradient_6" gradientUnits="userSpaceOnUse" x1="0" y1="0" x2="10.129" y2="0" gradientTransform="translate(2159.36 21.954)">
   <stop offset="0" stop-color="#9f1e63"/>
   <stop offset="0.600000023841858" stop-color="#e45237"/>
   <stop offset="1" stop-color="#f15a29"/>
  </linearGradient>
  <linearGradient id="LinearGradient_7" gradientUnits="userSpaceOnUse" x1="0" y1="0" x2="11.053" y2="0" gradientTransform="translate(2127.72 1.292)">
   <stop offset="0" stop-color="#9f1e63"/>
   <stop offset="0.600000023841858" stop-color="#e45237"/>
   <stop offset="1" stop-color="#f15a29"/>
  </linearGradient>
  <style type="text/css">@import url('https://themes.googleusercontent.com/fonts/css?family=Open Sans:400');
@import url('https://themes.googleusercontent.com/fonts/css?family=Poppins:400,700');</style>
 </defs>
 <g id="Page background" transform="scale(1 -1)" stroke-width="0.501"/>
 <g id="Pasteboard background (2)" transform="scale(1 -1)" stroke-width="0.501"/>
 <g id="Page background (2)" transform="scale(1 -1)" stroke-width="0.501"/>
 <g id="Pasteboard background (3)" transform="scale(1 -1)" stroke-width="0.501"/>
 <g id="Page background (3)" transform="scale(1 -1)" stroke-width="0.501"/>
 <g id="Pasteboard background (4)" transform="scale(1 -1)" stroke-width="0.501"/>
 <g id="Page background (4)" transform="scale(1 -1)" stroke-width="0.501"/>
 <g id="Layer 1" transform="scale(1 -1)" stroke-width="0.501">
  <g id="Group" stroke="none" fill-rule="nonzero" stroke-linejoin="miter" stroke-width="2.593" stroke-miterlimit="4">
   <rect x="-11.529" y="-77.638" width="23.058" height="155.277" transform="translate(1666.1 -59.24)" fill="#ffffff"/>
   <path d="M 1768.19,-100.547 L 1768.19,-110.493 C 1768.19,-128.086 1758.98,-136.881 1740.56,-136.881 L 1725.67,-136.881 C 1707.25,-136.881 1698.05,-128.086 1698.05,-110.493 L 1698.05,-7.985 C 1698.05,9.603 1707.25,18.4 1725.67,18.4 L 1740.56,18.4 C 1758.98,18.4 1768.19,9.603 1768.19,-7.985 L 1768.19,-25.501 L 1745.13,-25.501 L 1745.13,-9.501 C 1745.13,-3.443 1741.69,-0.415 1734.8,-0.415 L 1730.24,-0.415 C 1724.15,-0.415 1721.11,-3.443 1721.11,-9.501 L 1721.11,-108.981 C 1721.11,-115.036 1724.15,-118.063 1730.24,-118.063 L 1736,-118.063 C 1742.09,-118.063 1745.13,-115.036 1745.13,-108.981 L 1745.13,-100.547 L 1768.19,-100.547 Z" fill="#ffffff" marker-start="none" marker-end="none"/>
   <path d="M 1855.15,-100.547 L 1855.15,-110.493 C 1855.15,-128.086 1845.94,-136.881 1827.53,-136.881 L 1812.63,-136.881 C 1794.21,-136.881 1785.01,-128.086 1785.01,-110.493 L 1785.01,-7.985 C 1785.01,9.603 1794.21,18.4 1812.63,18.4 L 1827.53,18.4 C 1845.94,18.4 1855.15,9.603 1855.15,-7.985 L 1855.15,-25.501 L 1832.09,-25.501 L 1832.09,-9.501 C 1832.09,-3.443 1828.65,-0.415 1821.76,-0.415 L 1817.2,-0.415 C 1811.11,-0.415 1808.07,-3.443 1808.07,-9.501 L 1808.07,-108.981 C 1808.07,-115.036 1811.11,-118.063 1817.2,-118.063 L 1822.96,-118.063 C 1829.05,-118.063 1832.09,-115.036 1832.09,-108.981 L 1832.09,-100.547 L 1855.15,-100.547 Z" fill="#ffffff" marker-start="none" marker-end="none"/>
   <path d="M 1947.88,18.4 L 1920.01,-136.881 L 1892.63,-136.881 L 1864.76,18.4 L 1887.58,18.4 L 1906.32,-100.114 L 1925.06,18.4 L 1947.88,18.4 Z" fill="#ffffff" marker-start="none" marker-end="none"/>
   <path d="M 1663.55,-190.061 L 1666.67,-190.061 C 1668.28,-190.061 1669.08,-189.172 1669.08,-187.394 L 1669.08,-158.154 C 1669.08,-156.377 1668.17,-155.485 1666.35,-155.485 L 1663.49,-155.485 C 1661.71,-155.485 1660.82,-156.377 1660.82,-158.154 L 1660.82,-187.394 C 1660.82,-189.172 1661.73,-190.061 1663.55,-190.061 Z M 1662.09,-195.592 C 1657.17,-195.592 1654.72,-193.007 1654.72,-187.838 L 1654.72,-157.775 C 1654.72,-152.561 1657.15,-149.956 1662.03,-149.956 L 1667.87,-149.956 C 1672.75,-149.956 1675.18,-152.561 1675.18,-157.775 L 1675.18,-187.838 C 1675.18,-193.007 1672.73,-195.592 1667.81,-195.592 L 1662.09,-195.592 Z" fill="#ffffff" marker-start="none" marker-end="none"/>
   <path d="M 1698.83,-184.913 L 1698.83,-187.838 C 1698.83,-193.007 1696.39,-195.592 1691.52,-195.592 L 1687.58,-195.592 C 1682.7,-195.592 1680.27,-193.007 1680.27,-187.838 L 1680.27,-157.71 C 1680.27,-152.539 1682.7,-149.956 1687.58,-149.956 L 1691.52,-149.956 C 1696.39,-149.956 1698.83,-152.539 1698.83,-157.71 L 1698.83,-162.859 L 1692.73,-162.859 L 1692.73,-158.154 C 1692.73,-156.377 1691.81,-155.485 1689.99,-155.485 L 1688.79,-155.485 C 1687.17,-155.485 1686.37,-156.377 1686.37,-158.154 L 1686.37,-187.394 C 1686.37,-189.172 1687.17,-190.061 1688.79,-190.061 L 1690.31,-190.061 C 1691.92,-190.061 1692.73,-189.172 1692.73,-187.394 L 1692.73,-184.913 L 1698.83,-184.913 Z" fill="#ffffff" marker-start="none" marker-end="none"/>
   <path d="M 1713.32,-155.485 L 1713.32,-195.592 L 1707.22,-195.592 L 1707.22,-155.485 L 1701.37,-155.485 L 1701.37,-149.956 L 1719.17,-149.956 L 1719.17,-155.485 L 1713.32,-155.485 Z" fill="#ffffff" marker-start="none" marker-end="none"/>
   <path d="M 1732.32,-160.062 L 1730.92,-155.866 C 1732.49,-155.274 1733.83,-154.449 1734.93,-153.386 C 1736.03,-152.327 1736.9,-151.185 1737.53,-149.956 L 1738.17,-149.956 L 1742.18,-152.117 L 1742.18,-195.592 L 1736.14,-195.592 L 1736.14,-158.915 L 1732.32,-160.062 Z" fill="#ffffff" marker-start="none" marker-end="none"/>
   <path d="M 1760.73,-173.345 L 1760.73,-158.219 C 1760.73,-156.396 1759.74,-155.485 1757.75,-155.485 L 1757.05,-155.485 C 1755.22,-155.485 1754.32,-156.396 1754.32,-158.219 L 1754.32,-170.04 C 1754.32,-172.245 1755.22,-173.345 1757.05,-173.345 L 1760.73,-173.345 Z M 1754.7,-184.913 L 1754.7,-186.759 C 1754.7,-188.96 1755.61,-190.061 1757.43,-190.061 L 1758.32,-190.061 C 1759.93,-190.061 1760.73,-189.172 1760.73,-187.394 L 1760.73,-176.332 L 1756.92,-178.876 L 1755.52,-178.876 C 1750.65,-178.876 1748.21,-176.167 1748.21,-170.742 L 1748.21,-157.964 C 1748.21,-152.624 1750.65,-149.956 1755.52,-149.956 L 1759.53,-149.956 C 1764.4,-149.956 1766.84,-152.624 1766.84,-157.964 L 1766.84,-187.456 C 1766.84,-192.881 1764.4,-195.592 1759.53,-195.592 L 1755.9,-195.592 C 1751.03,-195.592 1748.59,-192.881 1748.59,-187.456 L 1748.59,-184.913 L 1754.7,-184.913 Z" fill="#ffffff" marker-start="none" marker-end="none"/>
   <rect x="-6.991" y="-2.542" width="13.983" height="5.084" transform="translate(1777.45 -175.188)" fill="#ffffff"/>
   <path d="M 1805.03,-190.126 L 1805.03,-195.592 L 1788.63,-195.592 L 1788.63,-181.547 C 1788.63,-180.782 1788.7,-180.148 1788.83,-179.641 C 1788.95,-179.129 1789.17,-178.654 1789.49,-178.207 C 1789.81,-177.765 1790.37,-177.139 1791.18,-176.332 L 1797.34,-170.422 C 1797.81,-169.955 1798.18,-169.556 1798.45,-169.213 C 1798.73,-168.876 1798.92,-168.59 1799.03,-168.357 C 1799.13,-168.123 1799.19,-167.879 1799.22,-167.626 C 1799.24,-167.371 1799.25,-167.032 1799.25,-166.608 L 1799.25,-158.154 C 1799.25,-156.377 1798.38,-155.485 1796.64,-155.485 L 1796.26,-155.485 C 1794.52,-155.485 1793.65,-156.377 1793.65,-158.154 L 1793.65,-162.859 L 1787.56,-162.859 L 1787.56,-157.775 C 1787.56,-152.561 1789.99,-149.956 1794.86,-149.956 L 1798.04,-149.956 C 1802.91,-149.956 1805.35,-152.561 1805.35,-157.775 L 1805.35,-168.708 C 1805.35,-169.556 1805.23,-170.295 1805,-170.929 C 1804.77,-171.566 1804.16,-172.349 1803.19,-173.28 L 1796.45,-179.764 C 1795.6,-180.571 1795.12,-181.124 1794.99,-181.416 C 1794.86,-181.715 1794.79,-182.014 1794.77,-182.308 C 1794.75,-182.604 1794.74,-183.007 1794.74,-183.515 L 1794.74,-190.126 L 1805.03,-190.126 Z" fill="#ffffff" marker-start="none" marker-end="none"/>
   <path d="M 1825.05,-172.139 C 1828.23,-172.985 1829.82,-174.912 1829.82,-177.922 L 1829.82,-187.838 C 1829.82,-193.007 1827.38,-195.592 1822.51,-195.592 L 1818.38,-195.592 C 1813.51,-195.592 1811.07,-193.007 1811.07,-187.838 L 1811.07,-184.913 L 1817.17,-184.913 L 1817.17,-187.394 C 1817.17,-189.172 1817.98,-190.061 1819.59,-190.061 L 1820.99,-190.061 C 1822.81,-190.061 1823.72,-189.172 1823.72,-187.394 L 1823.72,-177.986 C 1823.72,-175.994 1822.53,-174.997 1820.16,-174.997 L 1818.5,-174.997 L 1818.5,-169.849 L 1819.4,-169.849 C 1821.77,-169.849 1822.96,-168.854 1822.96,-166.861 L 1822.96,-158.219 C 1822.96,-156.439 1822.04,-155.55 1820.22,-155.55 L 1819.4,-155.55 C 1817.79,-155.55 1816.98,-156.439 1816.98,-158.219 L 1816.98,-162.859 L 1810.88,-162.859 L 1810.88,-157.775 C 1810.88,-152.561 1813.31,-149.956 1818.19,-149.956 L 1821.75,-149.956 C 1826.62,-149.956 1829.06,-152.561 1829.06,-157.775 L 1829.06,-166.861 C 1829.06,-169.745 1827.72,-171.504 1825.05,-172.139 Z" fill="#ffffff" marker-start="none" marker-end="none"/>
   <path d="M 1834.33,-203.154 L 1837.26,-195.592 L 1834.27,-195.592 L 1834.27,-187.711 L 1841.07,-187.711 L 1841.07,-195.592 L 1838.02,-203.154 L 1834.33,-203.154 Z" fill="#ffffff" marker-start="none" marker-end="none"/>
   <path d="M 1872.98,-190.126 L 1872.98,-195.592 L 1856.58,-195.592 L 1856.58,-181.547 C 1856.58,-180.782 1856.64,-180.148 1856.77,-179.641 C 1856.89,-179.129 1857.12,-178.654 1857.43,-178.207 C 1857.75,-177.765 1858.32,-177.139 1859.12,-176.332 L 1865.29,-170.422 C 1865.75,-169.955 1866.12,-169.556 1866.4,-169.213 C 1866.67,-168.876 1866.86,-168.59 1866.97,-168.357 C 1867.08,-168.123 1867.14,-167.879 1867.16,-167.626 C 1867.18,-167.371 1867.19,-167.032 1867.19,-166.608 L 1867.19,-158.154 C 1867.19,-156.377 1866.32,-155.485 1864.59,-155.485 L 1864.21,-155.485 C 1862.47,-155.485 1861.6,-156.377 1861.6,-158.154 L 1861.6,-162.859 L 1855.5,-162.859 L 1855.5,-157.775 C 1855.5,-152.561 1857.93,-149.956 1862.81,-149.956 L 1865.99,-149.956 C 1870.86,-149.956 1873.29,-152.561 1873.29,-157.775 L 1873.29,-168.708 C 1873.29,-169.556 1873.18,-170.295 1872.94,-170.929 C 1872.71,-171.566 1872.11,-172.349 1871.13,-173.28 L 1864.4,-179.764 C 1863.55,-180.571 1863.06,-181.124 1862.93,-181.416 C 1862.81,-181.715 1862.73,-182.014 1862.71,-182.308 C 1862.69,-182.604 1862.68,-183.007 1862.68,-183.515 L 1862.68,-190.126 L 1872.98,-190.126 Z" fill="#ffffff" marker-start="none" marker-end="none"/>
   <path d="M 1887.98,-155.485 C 1886.36,-155.485 1885.56,-156.377 1885.56,-158.154 L 1885.56,-187.394 C 1885.56,-189.172 1886.47,-190.061 1888.29,-190.061 L 1889.82,-190.061 C 1891.43,-190.061 1892.23,-189.172 1892.23,-187.394 L 1892.23,-158.154 C 1892.23,-156.377 1891.32,-155.485 1889.5,-155.485 L 1887.98,-155.485 Z M 1886.77,-195.592 C 1881.89,-195.592 1879.46,-192.984 1879.46,-187.773 L 1879.46,-157.775 C 1879.46,-152.561 1881.89,-149.956 1886.77,-149.956 L 1891.03,-149.956 C 1895.9,-149.956 1898.34,-152.561 1898.34,-157.775 L 1898.34,-187.773 C 1898.34,-192.984 1895.9,-195.592 1891.03,-195.592 L 1886.77,-195.592 Z" fill="#ffffff" marker-start="none" marker-end="none"/>
   <path d="M 1921.03,-190.126 L 1921.03,-195.592 L 1904.63,-195.592 L 1904.63,-181.547 C 1904.63,-180.782 1904.69,-180.148 1904.82,-179.641 C 1904.94,-179.129 1905.17,-178.654 1905.49,-178.207 C 1905.8,-177.765 1906.37,-177.139 1907.17,-176.332 L 1913.34,-170.422 C 1913.8,-169.955 1914.17,-169.556 1914.45,-169.213 C 1914.73,-168.876 1914.91,-168.59 1915.02,-168.357 C 1915.13,-168.123 1915.19,-167.879 1915.21,-167.626 C 1915.23,-167.371 1915.24,-167.032 1915.24,-166.608 L 1915.24,-158.154 C 1915.24,-156.377 1914.37,-155.485 1912.64,-155.485 L 1912.26,-155.485 C 1910.52,-155.485 1909.65,-156.377 1909.65,-158.154 L 1909.65,-162.859 L 1903.55,-162.859 L 1903.55,-157.775 C 1903.55,-152.561 1905.99,-149.956 1910.86,-149.956 L 1914.04,-149.956 C 1918.91,-149.956 1921.35,-152.561 1921.35,-157.775 L 1921.35,-168.708 C 1921.35,-169.556 1921.23,-170.295 1921,-170.929 C 1920.76,-171.566 1920.16,-172.349 1919.18,-173.28 L 1912.44,-179.764 C 1911.6,-180.571 1911.11,-181.124 1910.98,-181.416 C 1910.86,-181.715 1910.78,-182.014 1910.76,-182.308 C 1910.74,-182.604 1910.73,-183.007 1910.73,-183.515 L 1910.73,-190.126 L 1921.03,-190.126 Z" fill="#ffffff" marker-start="none" marker-end="none"/>
   <path d="M 1927.19,-184.913 L 1933.3,-184.913 L 1933.3,-187.394 C 1933.3,-189.172 1934.1,-190.061 1935.71,-190.061 L 1936.41,-190.061 C 1938.23,-190.061 1939.14,-189.172 1939.14,-187.394 L 1939.14,-176.968 C 1939.14,-174.978 1938.3,-173.981 1936.6,-173.981 L 1927.38,-173.981 L 1927.38,-149.956 L 1944.61,-149.956 L 1944.61,-155.614 L 1933.1,-155.614 L 1933.1,-168.451 L 1937.93,-168.451 C 1942.81,-168.451 1945.24,-171.144 1945.24,-176.524 L 1945.24,-187.521 C 1945.24,-192.901 1942.81,-195.592 1937.93,-195.592 L 1934.5,-195.592 C 1929.63,-195.592 1927.19,-193.007 1927.19,-187.838 L 1927.19,-184.913 Z" fill="#ffffff" marker-start="none" marker-end="none"/>
   <path d="M 2047.62,22.547 C 2056.67,25.436 2063.65,24.18 2068.03,19.547 C 2072.41,14.912 2082.53,13.008 2086.16,7.783 C 2091.61,-0.053 2097.37,1.523 2100.84,-3.266 C 2106.99,-11.755 2103.91,-15.726 2102.82,-21.198 C 2101.97,-25.463 2102.96,-28.976 2101.31,-31.97 C 2098.02,-35.326 2093.46,-41.637 2089.37,-46.91 C 2087.29,-49.593 2084.74,-53.298 2082.56,-56.403 C 2082.09,-57.069 2081.04,-56.61 2081.22,-55.82 C 2081.29,-55.507 2081.35,-55.238 2081.37,-55.034 C 2082.42,-46.152 2080.01,-40.528 2079.77,-41.909 C 2079.55,-43.156 2079.85,-44.814 2076.99,-54.368 C 2074.13,-63.924 2069.46,-71.444 2068.16,-72.405 C 2066.86,-73.367 2067.24,-71.846 2067.59,-63.994 C 2068.05,-53.619 2066.61,-39.246 2064.45,-31.814 C 2061.51,-21.623 2055.61,-10.885 2057.28,-18.1 C 2060.25,-30.956 2060.82,-38.531 2059.7,-61.39 C 2059.07,-74.064 2057.27,-77.94 2056.26,-80.156 C 2055.55,-81.692 2053.79,-84.083 2053.45,-82.581 C 2052.11,-76.566 2050.23,-70.316 2048.01,-64.963 C 2047.39,-63.991 2046.63,-63.344 2047.11,-65.17 C 2047.12,-65.228 2047.13,-65.271 2047.14,-65.325 C 2048.38,-68.904 2049.46,-72.828 2050.37,-77.329 C 2051.34,-82.151 2050.71,-85.082 2049.74,-83.56 C 2048.85,-82.185 2038.53,-67.153 2031.07,-60.733 C 2025.93,-56.296 2021.52,-56.654 2024.09,-58.747 C 2027.21,-61.282 2032.56,-68.519 2034.34,-70.718 C 2036.12,-72.918 2037.85,-76.038 2033.68,-73.588 C 2029.51,-71.137 2018.35,-66.17 2009.2,-63.518 C 2000.06,-60.87 1997.2,-62.034 1999.85,-62.877 C 2002.5,-63.719 2016.16,-69.413 2030.02,-79.322 C 2039.72,-86.258 2046.8,-93.292 2049.03,-98.498 C 2049,-98.539 2048.96,-98.578 2048.92,-98.617 C 2048.97,-98.626 2049.03,-98.634 2049.07,-98.644 C 2037.62,-106.392 2024.32,-115.215 2023.56,-116.712 C 2022.75,-118.316 2029.07,-116.809 2037.6,-114.017 C 2046.13,-111.228 2051.63,-108.647 2051.76,-109.946 C 2051.89,-111.247 2049.28,-116.408 2041.4,-124.669 C 2031.52,-135.034 2021.97,-143.692 2017.56,-146.821 C 2014.62,-148.894 2010.96,-151.719 2014.28,-150.674 C 2017.6,-149.631 2032.47,-143.615 2045.59,-132.503 C 2052.35,-126.778 2055.9,-121.374 2059.21,-115.447 C 2059.32,-114.422 2059.41,-114.152 2059.89,-114.057 C 2060.86,-113.867 2065.3,-120.915 2068.6,-128.998 C 2073.86,-141.898 2075.47,-149.209 2076.94,-149.753 C 2077.89,-150.109 2077.54,-140.51 2075.62,-133.736 C 2073.23,-125.321 2071.11,-119.24 2072.24,-118.635 C 2074.12,-117.636 2082.09,-127.395 2085,-131.98 C 2093.01,-144.604 2095.28,-150.322 2097.79,-157.137 C 2099.22,-161.01 2101.38,-165.475 2101.56,-161.59 C 2101.78,-156.552 2099.55,-139.546 2088.71,-123.875 C 2084.28,-117.481 2081.34,-113.962 2078.08,-110.602 C 2076.98,-109.614 2075.98,-108.627 2075.24,-107.769 C 2075.08,-107.61 2074.91,-107.451 2074.75,-107.29 C 2074.78,-107.287 2074.81,-107.287 2074.84,-107.284 C 2074.34,-106.659 2074.01,-106.13 2073.95,-105.777 C 2073.79,-104.746 2072.94,-100.584 2090.7,-99.235 C 2098.07,-98.675 2106.06,-99.74 2112.2,-101.279 C 2116.03,-102.236 2107.59,-94.433 2099.29,-91.856 C 2091.77,-89.522 2087.32,-88.731 2087.28,-87.407 C 2087.24,-86.081 2090.61,-84.345 2101.25,-80.389 C 2110.32,-77.021 2115.79,-75.907 2122.1,-75.616 C 2126.19,-75.429 2124.79,-73.577 2117.02,-72.244 C 2112.8,-71.517 2106.22,-70.512 2096.97,-71.704 C 2092.96,-72.219 2088.95,-73.4 2085.32,-74.809 C 2084.53,-76.09 2083.74,-77.378 2082.95,-78.679 C 2073.13,-94.94 2068.87,-101.602 2062.88,-96.741 C 2058.54,-93.224 2059.63,-89.097 2062.68,-84.296 C 2065.72,-79.497 2081.15,-60.482 2101.63,-37.188 C 2122.1,-13.897 2156.44,9.591 2157.25,9.915 C 2158.33,10.347 2158.91,9.203 2157.75,7.882 C 2156.89,6.9 2140.32,-7.868 2128.34,-19.693 C 2117.82,-30.071 2107.99,-41.758 2098.72,-54.685 C 2101.48,-52.428 2104.24,-50.469 2106.97,-48.825 C 2120.31,-40.765 2135.54,-36.352 2145.11,-41.467 C 2158.42,-48.586 2163.54,-50.332 2166.72,-56.703 C 2170.18,-63.664 2170.45,-68.165 2167.8,-74.856 C 2165.16,-81.543 2161.14,-80.755 2163.78,-89.022 C 2166.31,-96.952 2169.25,-105.969 2167.93,-111.106 C 2166.61,-116.243 2165.43,-121.257 2159.08,-124.187 C 2155.7,-125.744 2152.35,-128.148 2151.16,-132.308 C 2149.92,-136.608 2146.23,-139.861 2142.46,-141.692 C 2141.27,-142.268 2135.75,-141.425 2134.56,-140.162 C 2129.16,-134.8 2121.1,-125.773 2113.13,-120.861 C 2111.29,-119.727 2109.26,-118.75 2107.17,-117.914 C 2108.99,-119.122 2110.84,-120.498 2112.71,-122.081 C 2122.81,-130.646 2134.78,-144.044 2135.29,-152.878 C 2135.8,-161.714 2135.56,-165.49 2133.15,-170.198 C 2130.74,-174.908 2129.84,-181.354 2129.46,-186.897 C 2129.09,-192.437 2122.5,-201.297 2116.88,-203.906 C 2111.26,-206.511 2102.22,-202.461 2090.13,-205.472 C 2081.55,-207.602 2075.66,-205.295 2071.03,-199.375 C 2066.39,-193.451 2061.74,-191.728 2058.65,-191.971 C 2055.57,-192.21 2051.99,-192.351 2048.95,-187.182 C 2047.91,-185.402 2046.98,-181.701 2047.32,-180.698 C 2048.74,-176.692 2052,-172.531 2053.24,-169.66 C 2055.13,-165.297 2056.22,-158.007 2057.34,-149.081 C 2057.71,-146.1 2057.97,-143.673 2058.15,-141.608 C 2056.44,-152.176 2052.96,-163.726 2046.66,-172.879 C 2038.75,-184.374 2033.4,-189.361 2028.23,-188.208 C 2024.33,-187.34 2021.79,-186.232 2016.11,-190.227 C 2010.16,-194.415 2006.83,-190.289 1995.66,-191.051 C 1990.33,-191.417 1982.97,-181.844 1980.33,-174.409 C 1976.86,-164.613 1966.44,-159.067 1965.37,-150.624 C 1963.71,-137.606 1974.61,-131.557 1976.67,-124.264 C 1979.02,-115.975 1990.04,-111.312 1996.69,-107.954 C 2005.11,-103.694 2012.01,-100.927 2017.89,-99.223 C 2016.71,-99.336 2015.54,-99.468 2014.37,-99.627 C 2000.63,-101.481 1992.52,-105.585 1986.01,-104.828 C 1979.51,-104.071 1967.3,-101.136 1962.66,-95.577 C 1958.02,-90.017 1956.35,-81.362 1957.57,-76.946 C 1958.79,-72.533 1957.66,-67.418 1956.2,-59.692 C 1954.74,-51.969 1957.51,-45.748 1961.88,-42.344 C 1966.25,-38.94 1973.69,-35.104 1976.36,-28.419 C 1979.03,-21.733 1987.56,-20.581 1991.51,-21.904 C 1995.46,-23.228 1997.96,-24.475 2005.12,-22.65 C 2011.88,-20.926 2018.67,-21.255 2031.46,-38.041 C 2027.85,-32.76 2025.15,-28.462 2024.1,-24.497 C 2021.83,-15.935 2018.28,-14.102 2018.9,-5.433 C 2019.52,3.24 2025.51,4.628 2031.62,7.629 C 2037.73,10.633 2038.58,19.655 2047.62,22.547 Z" marker-start="none" marker-end="none" fill="url(#LinearGradient)"/>
   <path d="M 2147.76,19.112 C 2149.06,21.966 2152.21,22.958 2155.14,21.471 C 2157.91,20.063 2159.07,16.886 2157.65,14.101 C 2156.24,11.339 2152.98,10.335 2150.09,11.631 C 2147.25,12.898 2146.47,16.256 2147.76,19.112 Z" marker-start="none" marker-end="none" fill="url(#LinearGradient_1)"/>
   <path d="M 2144.08,-7.726 C 2145.38,-4.872 2148.53,-3.877 2151.46,-5.368 C 2154.22,-6.777 2155.39,-9.952 2153.97,-12.738 C 2152.56,-15.499 2149.3,-16.501 2146.41,-15.211 C 2143.57,-13.942 2142.79,-10.585 2144.08,-7.726 Z" marker-start="none" marker-end="none" fill="url(#LinearGradient_2)"/>
   <path d="M 2155.05,0.905 C 2156.33,3.76 2159.49,4.75 2162.42,3.259 C 2165.18,1.854 2166.35,-1.321 2164.93,-4.109 C 2163.52,-6.867 2160.26,-7.871 2157.37,-6.579 C 2154.53,-5.311 2153.75,-1.954 2155.05,0.905 Z" marker-start="none" marker-end="none" fill="url(#LinearGradient_3)"/>
   <path d="M 2142.57,5.005 C 2139.94,4.815 2138.02,7.01 2137.84,9.661 C 2137.66,12.306 2139.62,14.31 2142.4,14.369 C 2145.03,14.428 2147.17,12.52 2147.22,9.875 C 2147.28,7.25 2145.24,5.197 2142.57,5.005 Z" marker-start="none" marker-end="none" fill="url(#LinearGradient_4)"/>
   <path d="M 2163.82,6.721 C 2162.09,8.938 2162.38,11.977 2164.51,13.773 C 2166.66,15.565 2169.91,15.389 2171.66,13.118 C 2173.38,10.895 2173.3,7.675 2171.05,5.972 C 2168.82,4.286 2165.62,4.42 2163.82,6.721 Z" marker-start="none" marker-end="none" fill="url(#LinearGradient_5)"/>
   <path d="M 2160.52,18.507 C 2158.78,20.723 2159.01,23.99 2161.15,25.785 C 2163.29,27.579 2166.48,27.564 2168.24,25.293 C 2169.95,23.071 2170.03,19.422 2167.68,17.986 C 2165.3,16.528 2162.32,16.206 2160.52,18.507 Z" marker-start="none" marker-end="none" fill="url(#LinearGradient_6)"/>
   <path d="M 2138.59,0.075 C 2137.79,-2.836 2134.95,-4.826 2131.89,-4.029 C 2128.95,-3.265 2127.2,-0.47 2127.85,2.479 C 2128.52,5.425 2131.42,7.408 2134.42,6.613 C 2137.35,5.832 2139.4,3.014 2138.59,0.075 Z" marker-start="none" marker-end="none" fill="url(#LinearGradient_7)"/>
  </g>
 </g>
</svg>
