<svg xmlns="http://www.w3.org/2000/svg" width="89" height="48" viewBox="0 0 89 48" fill="none">
<path d="M16.6035 16.7935L13.5729 18.5439H5.92126L2.89062 16.7935V1.75036L5.92126 0H13.5729L16.6035 1.75036V16.7935ZM5.50117 2.35049V16.1934H13.9829V2.35049H5.50117Z" fill="black"></path>
<path d="M20.2543 18.4038V0.130026H29.3662L32.3968 1.88039V9.63201L29.3662 11.3824H22.8648V18.4038H20.2543ZM22.8648 2.48052V9.03188H29.7863V2.48052H22.8648Z" fill="black"></path>
<path d="M38.278 10.1821V16.0533H46.0796V18.4038H35.6575V0.130026H46.0796V2.48052H38.278V7.83163H44.5193V10.1821H38.278Z" fill="black"></path>
<path d="M52.3509 4.60096V18.4138H49.7404V0.130026H52.1108L61.5628 13.9429H61.6128V0.130026H64.2234V18.4038H61.8529L52.4009 4.59096H52.3509V4.60096Z" fill="black"></path>
<path d="M43.9392 38.188L40.9085 39.9383H30.2263V21.6645H40.9085L43.9392 23.4149V38.198V38.188ZM32.8469 24.005V37.5878H41.3286V24.005H32.8469Z" fill="black"></path>
<path d="M55.3815 21.6645L61.9029 39.9383H59.3424L57.802 35.6074H49.7104L48.17 39.9383H45.6095L52.1309 21.6645H55.3715H55.3815ZM53.7312 24.2451L50.5405 33.2569H56.9619L53.7712 24.2451H53.7212H53.7312Z" fill="black"></path>
<path d="M68.5543 24.005V39.9283H65.9438V24.005H60.7427V21.6545H73.7454V24.005H68.5443H68.5543Z" fill="black"></path>
<path d="M82.3471 21.6645L88.8685 39.9383H86.3079L84.7676 35.6074H76.6759L75.1356 39.9383H72.5751L79.0964 21.6645H82.3371H82.3471ZM80.7068 24.2451L77.5161 33.2569H83.9374L80.7468 24.2451H80.6968H80.7068Z" fill="black"></path>
<path fill-rule="evenodd" clip-rule="evenodd" d="M31.1165 16.4934H29.2461L15.3832 30.3463L4.96103 19.9241H3.09064V21.7445L13.5428 32.1967L0 45.7495V47.7099H1.73036L15.3932 34.0471L25.4453 44.0992H27.3357V42.3188L17.2336 32.2067L31.0965 18.3438L31.1265 16.5034L31.1165 16.4934Z" fill="#5CD2BA"></path>
<path fill-rule="evenodd" clip-rule="evenodd" d="M3.50073 24.5451L11.1623 32.2167L7.39154 35.9875H6.09127L9.86206 32.2167L3.50073 25.8554V24.5551V24.5451Z" fill="#5CD2BA"></path>
<path fill-rule="evenodd" clip-rule="evenodd" d="M24.255 27.5857V28.906L20.9343 32.2067L25.7253 36.9977V38.298L19.634 32.2067L24.255 27.5857Z" fill="#5CD2BA"></path>
<path fill-rule="evenodd" clip-rule="evenodd" d="M15.4032 36.4276L20.9644 41.9887H19.6641L15.4032 37.7379L5.14108 48H3.8208L15.4032 36.4376V36.4276Z" fill="#5CD2BA"></path>
<path fill-rule="evenodd" clip-rule="evenodd" d="M21.3945 20.6743V21.9846L15.4032 27.9758L10.6923 23.2648H12.0025L15.4132 26.6756L21.4045 20.6843L21.3945 20.6743Z" fill="#5CD2BA"></path>
</svg>