<svg width="98" height="49" viewBox="0 0 98 49" fill="none" xmlns="http://www.w3.org/2000/svg">
<g id="White">
<g id="logo">
<path id="Vector" d="M72.0071 9.30957V27.4606H76.2221V21.9874H85.3548V27.4207H89.5698V9.30957H72.0071ZM85.3548 17.6407H76.2221V13.6562H85.3548V17.6407Z" fill="white"/>
<path id="Vector_2" d="M68.1434 19.2707V23.7985V27.4207H50.9319V23.074H63.9283V20.5385H50.9319V16.554V12.0262V9.30957H68.1434V13.6562H55.1469V16.1918H68.1434V19.2707Z" fill="white"/>
<path id="Vector_3" d="M29.5054 9.30957V27.4606H33.7204V21.9874H42.853V27.4207H47.0681V9.30957H29.5054ZM42.853 17.6407H33.7204V13.6562H42.853V17.6407Z" fill="white"/>
<path id="Vector_4" d="M19.99 20.5167L25.3852 18.4919L25.6416 18.3869V9.30957H8.43018V27.4207H12.589V23.2877L15.7503 22.1069L20.5098 27.4207H25.7154L19.99 20.5167ZM12.6136 18.6622V13.6562H21.4266V15.3514L12.6136 18.6622Z" fill="white"/>
<path id="Vector_5" d="M84.8807 31.6008H93.2932V5.48449H4.72086V31.6008H67.9467L84.8631 40.2289V31.6008H84.8807ZM0 0.616211H98V36.4763H89.6015V48.0674L66.8508 36.4763H0V0.616211Z" fill="white"/>
</g>
</g>
</svg>
