<svg width="129" height="76" viewBox="0 0 129 76" fill="none" xmlns="http://www.w3.org/2000/svg">
<path d="M15.0877 63.4304C14.1398 62.9418 13.0866 62.5096 11.9569 62.1461L11.9465 62.1425C10.7725 61.7816 9.92977 61.5105 9.21404 61.264C8.50352 61.0193 7.95216 60.7289 7.56951 60.397C7.39384 60.2474 7.1599 59.9789 7.1599 59.3856C7.1599 58.8478 7.33209 58.486 7.713 58.2175C8.17914 57.8944 8.77399 57.7404 9.47928 57.7562H9.49841C10.3281 57.7562 10.9394 57.9569 11.3673 58.3698C11.7908 58.7791 12.0048 59.2263 12.0213 59.7386L12.0271 59.9232V60.5349H18.0065L17.9789 59.8744L17.9715 59.6814C17.9193 58.309 17.5202 57.0978 16.7827 56.0785C16.0496 55.0767 15.0416 54.2933 13.7867 53.7502C12.5553 53.2168 11.1334 52.9465 9.55929 52.9465C7.98521 52.9465 6.59723 53.2115 5.38318 53.7335C4.13174 54.2634 3.12816 55.0345 2.39764 56.0274C1.64887 57.0459 1.28187 58.2668 1.30709 59.6567C1.30883 61.316 1.84541 62.6725 2.89944 63.6839C3.88128 64.6345 5.30318 65.4118 7.12685 65.9936L8.08057 66.2953C8.78459 66.5177 9.45953 66.7308 10.1046 66.9373C10.9368 67.204 11.5995 67.5403 12.0735 67.9381C12.5283 68.3202 12.624 68.8818 12.624 69.2858C12.624 69.8377 12.4283 70.2329 11.9891 70.5674C11.5004 70.9398 10.7986 71.1282 9.90368 71.1282C8.854 71.1282 8.0713 70.8755 7.51211 70.3553C6.95988 69.8421 6.67724 69.2339 6.64767 68.4944L6.63362 68.1406L6.62639 67.7143L0.755859 67.7143L0.769801 68.4028H0.770787L0.772249 68.5358C0.789643 70.0912 1.21578 71.4459 2.04021 72.5612C2.84204 73.6466 3.94825 74.4881 5.32753 75.0611C6.67028 75.6192 8.22262 75.9027 9.94194 75.9027H10.7438V75.8675C12.2135 75.7882 13.4962 75.4881 14.5659 74.9722C15.8635 74.3455 16.8592 73.4996 17.5228 72.4582C18.1959 71.4028 18.5377 70.2444 18.5377 69.0164C18.5377 67.63 18.2089 66.4655 17.5636 65.5579C16.9392 64.6715 16.1061 63.9567 15.0895 63.4321L15.0877 63.4304Z" fill="white"/>
<path d="M34.7085 66.8612C34.7085 68.2449 34.3789 69.2238 33.6971 69.8558C33.0066 70.5028 32.0552 70.8179 30.7881 70.8179C29.521 70.8179 28.54 70.4949 27.8643 69.8558C27.2033 69.2361 26.8685 68.2291 26.8685 66.8612C26.8685 62.34 26.8626 57.8184 26.8626 53.2974H21.2079C21.2079 57.8089 21.207 62.3205 21.207 66.8321C21.207 68.8409 21.6401 70.545 22.495 71.8962C23.3499 73.2483 24.5178 74.2667 25.9641 74.9225C27.3677 75.5669 28.9574 75.8943 30.6889 75.8961H30.7046C32.4169 75.8943 34.0189 75.5678 35.4668 74.9261C36.947 74.2659 38.1454 73.2509 39.0281 71.9077C39.9186 70.553 40.37 68.8453 40.37 66.8312C40.37 62.3201 40.3605 57.8082 40.3605 53.2974C38.4774 53.2974 36.5909 53.2974 34.7059 53.2974L34.7085 66.8612Z" fill="white"/>
<path d="M92.0048 53.2964C89.8091 57.3618 87.6038 61.4219 85.4582 65.5139C83.298 61.4436 81.0805 57.3627 78.9126 53.2964L72.8134 53.2964C72.8134 60.7051 72.8134 68.1366 72.8134 75.5553H78.4712V63.6255C80.0884 66.6301 81.7576 69.6111 83.3935 72.6056H87.5221C89.1494 69.6065 90.7984 66.6188 92.4363 63.6255L92.4329 75.5553H98.1026C98.1048 68.1357 98.1024 60.716 98.1024 53.2964H92.0048Z" fill="white"/>
<path d="M63.0185 53.2964C60.8228 57.3618 58.6175 61.4219 56.4719 65.5139C54.3116 61.4436 52.0942 57.3627 49.9263 53.2964L43.827 53.2964C43.827 60.7051 43.827 68.1366 43.827 75.5553H49.4849V63.6255C51.1021 66.6301 52.7713 69.6111 54.4072 72.6056H58.5358C60.1631 69.6065 61.8121 66.6188 63.45 63.6255L63.4466 75.5553H69.1163C69.1185 68.1357 69.116 60.716 69.116 53.2964H63.0185Z" fill="white"/>
<path d="M106.933 53.2964H101.271C101.271 60.716 101.272 68.1356 101.272 75.5552H106.933V53.2964Z" fill="white"/>
<path d="M116.752 75.6528V58.0052H110.229V53.3644H128.97V58.0052H122.398V75.6528H116.752Z" fill="white"/>
<path d="M11.5797 48.279H1.58008V24.5911H11.8187C14.5539 24.5911 16.8589 25.1198 18.7339 26.181C20.697 27.3157 22.1492 28.7881 23.0756 30.5874C24.002 32.3903 24.4653 34.3328 24.4653 36.4148C24.4653 38.9632 23.8954 41.1186 22.7521 42.8885C21.5315 44.7355 19.9397 46.0978 17.9802 46.9718C16.0207 47.8457 13.8848 48.2827 11.5797 48.2827V48.279ZM11.9878 43.2778C13.0024 43.2778 13.9804 43.0391 14.9215 42.5691C15.8626 42.0954 16.6383 41.3353 17.2596 40.2888C17.8368 39.2826 18.1236 38.0195 18.1236 36.4883C18.1236 34.9571 17.8184 33.6315 17.2082 32.618C16.5391 31.5568 15.7156 30.7967 14.734 30.3304C13.7524 29.864 12.7341 29.6327 11.6826 29.6327H7.78205V43.2851H11.9878V43.2778Z" fill="white"/>
<path d="M49.2064 48.279H42.6468L41.0315 44.0856H30.844L29.1959 48.279H22.877L32.9989 24.5911H39.3214L49.2064 48.279ZM39.2193 39.3598L35.9924 30.9142L32.6999 39.3598H39.2193Z" fill="white"/>
<path d="M59.0147 48.279H52.809V29.6914H45.7578V24.5911H66.1357V29.6951H59.0184V48.279H59.0147Z" fill="white"/>
<path d="M88.9179 48.279H82.3042L80.6756 44.0856H70.4076L68.7459 48.279H62.3711L72.5766 24.5911H78.9514L88.9179 48.279ZM78.8484 39.3598L75.5949 30.9142L72.2751 39.3598H78.8484Z" fill="white"/>
<path fill-rule="evenodd" clip-rule="evenodd" d="M93.2308 28.6159V24.5604H89.8513L89.8513 28.6159H85.6992V31.9955H89.8513L89.8513 36.2441H93.2308V31.9955H97.3829V28.6159H93.2308Z" fill="white"/>
<path d="M121.131 48.279H114.517L112.888 44.0856H102.62L100.959 48.279H94.584L104.789 24.5911H111.164L121.131 48.279ZM111.061 39.3598L107.808 30.9142L104.488 39.3598H111.061Z" fill="white"/>
<path d="M122.938 48.2788V24.5911H128.97V48.2788H122.938Z" fill="white"/>
<g clip-path="url(#clip0_16777_15620)">
<path d="M19.2111 9.1142L10.9037 13.8027L2.00793 8.79331L1.58008 9.02506V12.6618L10.9037 17.903L19.2111 13.2323V15.1576L10.9037 19.8461L2.00793 14.8367L1.58008 15.0685V15.6924L10.9037 20.9336L20.2094 15.6924V12.0557L19.7816 11.8239L10.9037 16.8155L2.5784 12.1448V10.2195L10.9037 14.8902L20.2094 9.64901V6.06576L19.7459 5.79835L10.9037 10.7721L3.00625 6.35099L10.9037 1.91204L17.3927 5.5666L17.9632 5.24571V4.80003L10.9037 0.824585L1.58008 6.06576V6.63623L10.9037 11.8774L19.2111 7.18887V9.1142Z" fill="#FF3621"/>
<path d="M37.6263 17.9565V1.94775H35.1661V7.93767C35.1661 8.0268 35.1127 8.09811 35.0235 8.13377C34.9344 8.16942 34.8452 8.13377 34.7918 8.08029C33.9539 7.09979 32.6525 6.54715 31.2263 6.54715C28.1779 6.54715 25.7891 9.11426 25.7891 12.3945C25.7891 13.9989 26.3417 15.4785 27.3579 16.566C28.374 17.6535 29.7467 18.2417 31.2263 18.2417C32.6347 18.2417 33.9361 17.6535 34.7918 16.6373C34.8452 16.566 34.9522 16.5482 35.0235 16.566C35.1127 16.6017 35.1661 16.673 35.1661 16.7621V17.9565H37.6263ZM31.7612 16.0134C29.8002 16.0134 28.267 14.4267 28.267 12.3945C28.267 10.3622 29.8002 8.77554 31.7612 8.77554C33.7221 8.77554 35.2553 10.3622 35.2553 12.3945C35.2553 14.4267 33.7221 16.0134 31.7612 16.0134Z" fill="white"/>
<path d="M50.7823 17.9388V6.81465H48.34V7.93776C48.34 8.0269 48.2865 8.09821 48.1973 8.13386C48.1082 8.16951 48.0191 8.13386 47.9656 8.06255C47.1455 7.08206 45.862 6.52942 44.4002 6.52942C41.3517 6.52942 38.9629 9.09653 38.9629 12.3767C38.9629 15.6569 41.3517 18.224 44.4002 18.224C45.8085 18.224 47.1099 17.6357 47.9656 16.6017C48.0191 16.5304 48.126 16.5126 48.1973 16.5304C48.2865 16.5661 48.34 16.6374 48.34 16.7265V17.9388H50.7823ZM44.9528 16.0135C42.9918 16.0135 41.4587 14.4268 41.4587 12.3945C41.4587 10.3623 42.9918 8.77564 44.9528 8.77564C46.9138 8.77564 48.4469 10.3623 48.4469 12.3945C48.4469 14.4268 46.9138 16.0135 44.9528 16.0135Z" fill="white"/>
<path d="M71.6944 17.9566V6.81465H69.2521V7.93776C69.2521 8.0269 69.1986 8.09821 69.1095 8.13386C69.0203 8.16951 68.9312 8.13386 68.8777 8.06255C68.0577 7.08206 66.7741 6.52942 65.3123 6.52942C62.246 6.52942 59.875 9.09653 59.875 12.3945C59.875 15.6926 62.2638 18.2418 65.3123 18.2418C66.7206 18.2418 68.022 17.6535 68.8777 16.6196C68.9312 16.5483 69.0381 16.5304 69.1095 16.5483C69.1986 16.5839 69.2521 16.6552 69.2521 16.7444V17.9566H71.6944V17.9566ZM65.8649 16.0135C63.9039 16.0135 62.3708 14.4268 62.3708 12.3945C62.3708 10.3623 63.9039 8.77564 65.8649 8.77564C67.8259 8.77564 69.359 10.3623 69.359 12.3945C69.359 14.4268 67.8259 16.0135 65.8649 16.0135Z" fill="white"/>
<path d="M76.1692 16.6373C76.187 16.6373 76.2226 16.6195 76.2405 16.6195C76.294 16.6195 76.3653 16.6551 76.4009 16.6908C77.2388 17.6713 78.5402 18.2239 79.9663 18.2239C83.0148 18.2239 85.4036 15.6568 85.4036 12.3766C85.4036 10.7722 84.851 9.29253 83.8348 8.20508C82.8187 7.11762 81.446 6.52933 79.9663 6.52933C78.558 6.52933 77.2566 7.11762 76.4009 8.13377C76.3474 8.20508 76.2583 8.2229 76.1692 8.20508C76.08 8.16942 76.0266 8.09811 76.0266 8.00898V1.94775H73.5664V17.9565H76.0266V16.8334C76.0266 16.7443 76.08 16.673 76.1692 16.6373ZM75.9196 12.3945C75.9196 10.3622 77.4527 8.77554 79.4137 8.77554C81.3747 8.77554 82.9078 10.3622 82.9078 12.3945C82.9078 14.4267 81.3747 16.0134 79.4137 16.0134C77.4527 16.0134 75.9196 14.4089 75.9196 12.3945Z" fill="white"/>
<path d="M92.5157 9.09651C92.7475 9.09651 92.9614 9.11434 93.104 9.14999V6.61854C93.0149 6.60071 92.8544 6.58289 92.694 6.58289C91.4104 6.58289 90.2339 7.24249 89.6099 8.29429C89.5564 8.38343 89.4673 8.41908 89.3782 8.38343C89.289 8.3656 89.2177 8.27646 89.2177 8.18733V6.81464H86.7754V17.9744H89.2355V13.0541C89.2355 10.6118 90.4834 9.09651 92.5157 9.09651Z" fill="white"/>
<path d="M97.152 6.81458H94.6562V17.9744H97.152V6.81458Z" fill="white"/>
<path d="M95.8669 1.96558C95.029 1.96558 94.3516 2.64301 94.3516 3.48088C94.3516 4.31876 95.029 4.99619 95.8669 4.99619C96.7047 4.99619 97.3822 4.31876 97.3822 3.48088C97.3822 2.64301 96.7047 1.96558 95.8669 1.96558Z" fill="white"/>
<path d="M104.459 6.52942C101.037 6.52942 98.5586 8.98956 98.5586 12.3945C98.5586 14.0525 99.1469 15.5321 100.199 16.6017C101.268 17.6714 102.766 18.2597 104.442 18.2597C105.832 18.2597 106.902 17.9923 108.934 16.4948L107.526 15.0151C106.527 15.6747 105.6 15.9956 104.691 15.9956C102.623 15.9956 101.072 14.4447 101.072 12.3945C101.072 10.3444 102.623 8.79346 104.691 8.79346C105.672 8.79346 106.581 9.11435 107.49 9.77396L109.059 8.2943C107.223 6.72552 105.565 6.52942 104.459 6.52942Z" fill="white"/>
<path d="M113.266 13.054C113.302 13.0184 113.356 13.0006 113.409 13.0006H113.427C113.48 13.0006 113.534 13.0362 113.587 13.0719L117.527 17.9565H120.558L115.459 11.7883C115.388 11.6992 115.388 11.5744 115.477 11.5031L120.166 6.81455H117.153L113.106 10.8791C113.053 10.9326 112.963 10.9504 112.874 10.9326C112.803 10.897 112.749 10.8257 112.749 10.7365V1.96558H110.271V17.9743H112.732V13.6245C112.732 13.571 112.749 13.4997 112.803 13.4641L113.266 13.054Z" fill="white"/>
<path d="M124.569 18.2417C126.584 18.2417 128.634 17.0117 128.634 14.6763C128.634 13.1432 127.671 12.0914 125.71 11.4496L124.373 11.0039C123.464 10.7008 123.036 10.273 123.036 9.6847C123.036 9.00727 123.642 8.54377 124.498 8.54377C125.318 8.54377 126.049 9.07858 126.512 10.0056L128.491 8.93596C127.76 7.43849 126.245 6.51147 124.498 6.51147C122.287 6.51147 120.683 7.93765 120.683 9.8808C120.683 11.4318 121.61 12.4657 123.517 13.0719L124.89 13.5175C125.853 13.8206 126.263 14.2128 126.263 14.8367C126.263 15.7816 125.389 16.1203 124.641 16.1203C123.642 16.1203 122.751 15.4785 122.323 14.4267L120.309 15.4963C120.968 17.1899 122.59 18.2417 124.569 18.2417Z" fill="white"/>
<path d="M57.6277 18.1349C58.4121 18.1349 59.1074 18.0636 59.4996 18.0101V15.8708C59.1787 15.9065 58.6082 15.9421 58.2695 15.9421C57.2712 15.9421 56.5046 15.7639 56.5046 13.6068V9.02522C56.5046 8.90043 56.5937 8.8113 56.7185 8.8113H59.1252V6.79683H56.7185C56.5937 6.79683 56.5046 6.7077 56.5046 6.58291V3.37402H54.0445V6.60073C54.0445 6.72552 53.9553 6.81466 53.8305 6.81466H52.1191V8.82912H53.8305C53.9553 8.82912 54.0445 8.91826 54.0445 9.04305V14.2307C54.0445 18.1349 56.6472 18.1349 57.6277 18.1349Z" fill="white"/>
</g>
<defs>
<clipPath id="clip0_16777_15620">
<rect width="127.072" height="20.1447" fill="white" transform="translate(1.58008 0.806885)"/>
</clipPath>
</defs>
</svg>
