<svg width="157" height="29" viewBox="0 0 157 29" fill="none" xmlns="http://www.w3.org/2000/svg">
<g clip-path="url(#clip0_493_2916)">
<path d="M142.379 10.0502H140.004V22.4068H142.379V16.7338C142.379 14.4894 142.379 11.7986 145.441 11.7986C147.872 11.7986 148.163 13.2246 148.163 15.3388V22.413H150.538V15.0474C150.538 12.0404 149.639 9.69059 146.154 9.69059C144.648 9.69059 143.172 10.4036 142.434 11.7242H142.385V10.0626L142.379 10.0502ZM131.237 11.9536C133.587 11.9536 135.459 13.9066 135.459 16.2564C135.459 18.6062 133.587 20.5592 131.237 20.5592C128.887 20.5592 127.015 18.5814 127.015 16.2564C127.015 13.9314 128.887 11.9536 131.237 11.9536ZM131.237 9.68439C127.542 9.68439 124.64 12.5364 124.64 16.2564C124.64 19.9764 127.542 22.8284 131.237 22.8284C134.932 22.8284 137.834 19.9764 137.834 16.2564C137.834 12.5364 134.932 9.68439 131.237 9.68439ZM123.053 3.42859C121.547 2.50479 119.78 2.08319 118.037 2.08319C112.178 2.08319 107.454 6.67739 107.454 12.5612C107.454 18.445 112.154 22.8284 117.827 22.8284C119.569 22.8284 121.522 22.3262 123.053 21.4272V18.4946C121.578 19.8152 119.699 20.553 117.746 20.553C113.313 20.553 109.934 16.833 109.934 12.4744C109.934 8.11579 113.338 4.34619 117.802 4.34619C119.674 4.34619 121.627 5.03439 123.053 6.29919V3.42239V3.42859Z" fill="url(#paint0_linear_493_2916)"/>
<path d="M105.265 9.28141C103.864 8.64901 102.333 8.40721 100.801 8.40721C97.844 8.40721 94.837 9.8828 94.837 13.2122C94.837 15.6426 96.3436 16.3804 97.844 16.7772C99.3506 17.174 100.851 17.2236 100.851 18.2838C100.851 19.0216 99.952 19.313 99.3444 19.313C98.154 19.313 96.5172 18.6248 95.5438 17.9428L93.8016 21.297C95.4384 22.3014 97.3356 22.8532 99.2638 22.8532C102.407 22.8532 105.65 21.3776 105.65 17.8126C105.65 15.3078 103.957 14.2476 101.719 13.8012C101.062 13.671 99.5552 13.5346 99.5552 12.6108C99.5552 11.9226 100.504 11.687 101.062 11.687C101.88 11.687 102.909 11.9536 103.647 12.3442L105.259 9.28141H105.265ZM84.2784 12.5798C86.2314 12.5798 87.366 13.981 87.366 15.6426C87.366 17.3042 86.2314 18.6806 84.2784 18.6806C82.3254 18.6806 81.1908 17.36 81.1908 15.6426C81.1908 13.9252 82.3254 12.5798 84.2784 12.5798ZM81.3458 8.85981H76.5408V29.1586H81.3458V21.1048C82.375 22.2952 83.987 22.847 85.5432 22.847C89.5546 22.847 92.326 19.5734 92.326 15.6674C92.326 11.7614 89.5298 8.40721 85.4874 8.40721C83.9064 8.40721 82.2696 9.03961 81.3954 10.385H81.3458V8.8536V8.85981ZM63.3968 6.85101C66.4844 6.85101 69.0202 9.35581 69.0202 12.1024C69.0202 15.531 66.4844 18.042 63.3968 18.042C60.3092 18.042 57.7734 15.5372 57.7734 12.1024C57.7734 9.35581 60.3092 6.85101 63.3968 6.85101ZM63.3968 1.83521C57.668 1.83521 52.3918 6.05741 52.3918 12.0776C52.3918 18.5194 57.0108 23.0578 63.3968 23.0578C69.7828 23.0578 74.4018 18.5194 74.4018 12.0776C74.4018 6.05741 69.1194 1.83521 63.3968 1.83521ZM40.246 8.85981H34.8582L41.9572 22.4006H45.02L52.0942 8.85981H46.7064L43.4886 15.8038L40.2398 8.85981H40.246ZM34.6474 15.934C34.6474 11.315 31.9256 8.4134 27.2322 8.4134C22.824 8.4134 19.7364 11.1352 19.7364 15.6488C19.7364 20.1624 23.0906 22.8532 27.5732 22.8532C29.1294 22.8532 30.6608 22.4812 31.9008 21.7186C33.1408 20.956 34.0894 19.7904 34.4614 18.2094H29.8424C29.3154 19.1084 28.5776 19.4494 27.5484 19.4494C25.5706 19.4494 24.5414 18.3954 24.5414 16.4424H34.6536V15.9402L34.6474 15.934ZM24.6158 13.6648C24.9072 12.2636 26.0666 11.5258 27.4678 11.5258C28.7636 11.5258 29.9478 12.369 30.1896 13.6648H24.622H24.6158ZM6.1708 6.88201H7.386C10.7154 6.88201 13.059 8.8908 13.059 12.4496C13.059 16.3308 10.4178 18.0172 7.3302 18.0172H6.1708V6.88201ZM1 22.4006H8.3408C13.8588 22.4006 18.453 18.042 18.453 12.4496C18.453 6.8572 13.8774 2.49861 8.3346 2.49861H1V22.4006Z" fill="url(#paint0_linear_493_2916)"/>
<path d="M105.265 9.28141C103.864 8.64901 102.333 8.40721 100.801 8.40721C97.844 8.40721 94.837 9.8828 94.837 13.2122C94.837 15.6426 96.3436 16.3804 97.844 16.7772C99.3506 17.174 100.851 17.2236 100.851 18.2838C100.851 19.0216 99.952 19.313 99.3444 19.313C98.154 19.313 96.5172 18.6248 95.5438 17.9428L93.8016 21.297C95.4384 22.3014 97.3356 22.8532 99.2638 22.8532C102.407 22.8532 105.65 21.3776 105.65 17.8126C105.65 15.3078 103.957 14.2476 101.719 13.8012C101.062 13.671 99.5552 13.5346 99.5552 12.6108C99.5552 11.9226 100.504 11.687 101.062 11.687C101.88 11.687 102.909 11.9536 103.647 12.3442L105.259 9.28141H105.265ZM84.2784 12.5798C86.2314 12.5798 87.366 13.981 87.366 15.6426C87.366 17.3042 86.2314 18.6806 84.2784 18.6806C82.3254 18.6806 81.1908 17.36 81.1908 15.6426C81.1908 13.9252 82.3254 12.5798 84.2784 12.5798ZM81.3458 8.85981H76.5408V29.1586H81.3458V21.1048C82.375 22.2952 83.987 22.847 85.5432 22.847C89.5546 22.847 92.326 19.5734 92.326 15.6674C92.326 11.7614 89.5298 8.40721 85.4874 8.40721C83.9064 8.40721 82.2696 9.03961 81.3954 10.385H81.3458V8.8536V8.85981ZM63.3968 6.85101C66.4844 6.85101 69.0202 9.35581 69.0202 12.1024C69.0202 15.531 66.4844 18.042 63.3968 18.042C60.3092 18.042 57.7734 15.5372 57.7734 12.1024C57.7734 9.35581 60.3092 6.85101 63.3968 6.85101ZM63.3968 1.83521C57.668 1.83521 52.3918 6.05741 52.3918 12.0776C52.3918 18.5194 57.0108 23.0578 63.3968 23.0578C69.7828 23.0578 74.4018 18.5194 74.4018 12.0776C74.4018 6.05741 69.1194 1.83521 63.3968 1.83521ZM40.246 8.85981H34.8582L41.9572 22.4006H45.02L52.0942 8.85981H46.7064L43.4886 15.8038L40.2398 8.85981H40.246ZM34.6474 15.934C34.6474 11.315 31.9256 8.4134 27.2322 8.4134C22.824 8.4134 19.7364 11.1352 19.7364 15.6488C19.7364 20.1624 23.0906 22.8532 27.5732 22.8532C29.1294 22.8532 30.6608 22.4812 31.9008 21.7186C33.1408 20.956 34.0894 19.7904 34.4614 18.2094H29.8424C29.3154 19.1084 28.5776 19.4494 27.5484 19.4494C25.5706 19.4494 24.5414 18.3954 24.5414 16.4424H34.6536V15.9402L34.6474 15.934ZM24.6158 13.6648C24.9072 12.2636 26.0666 11.5258 27.4678 11.5258C28.7636 11.5258 29.9478 12.369 30.1896 13.6648H24.622H24.6158ZM6.1708 6.88201H7.386C10.7154 6.88201 13.059 8.8908 13.059 12.4496C13.059 16.3308 10.4178 18.0172 7.3302 18.0172H6.1708V6.88201ZM1 22.4006H8.3408C13.8588 22.4006 18.453 18.042 18.453 12.4496C18.453 6.8572 13.8774 2.49861 8.3346 2.49861H1V22.4006Z" fill="url(#paint0_linear_493_2916)"/>
<path d="M105.265 9.28141C103.864 8.64901 102.333 8.40721 100.801 8.40721C97.844 8.40721 94.837 9.8828 94.837 13.2122C94.837 15.6426 96.3436 16.3804 97.844 16.7772C99.3506 17.174 100.851 17.2236 100.851 18.2838C100.851 19.0216 99.952 19.313 99.3444 19.313C98.154 19.313 96.5172 18.6248 95.5438 17.9428L93.8016 21.297C95.4384 22.3014 97.3356 22.8532 99.2638 22.8532C102.407 22.8532 105.65 21.3776 105.65 17.8126C105.65 15.3078 103.957 14.2476 101.719 13.8012C101.062 13.671 99.5552 13.5346 99.5552 12.6108C99.5552 11.9226 100.504 11.687 101.062 11.687C101.88 11.687 102.909 11.9536 103.647 12.3442L105.259 9.28141H105.265ZM84.2784 12.5798C86.2314 12.5798 87.366 13.981 87.366 15.6426C87.366 17.3042 86.2314 18.6806 84.2784 18.6806C82.3254 18.6806 81.1908 17.36 81.1908 15.6426C81.1908 13.9252 82.3254 12.5798 84.2784 12.5798ZM81.3458 8.85981H76.5408V29.1586H81.3458V21.1048C82.375 22.2952 83.987 22.847 85.5432 22.847C89.5546 22.847 92.326 19.5734 92.326 15.6674C92.326 11.7614 89.5298 8.40721 85.4874 8.40721C83.9064 8.40721 82.2696 9.03961 81.3954 10.385H81.3458V8.8536V8.85981ZM63.3968 6.85101C66.4844 6.85101 69.0202 9.35581 69.0202 12.1024C69.0202 15.531 66.4844 18.042 63.3968 18.042C60.3092 18.042 57.7734 15.5372 57.7734 12.1024C57.7734 9.35581 60.3092 6.85101 63.3968 6.85101ZM63.3968 1.83521C57.668 1.83521 52.3918 6.05741 52.3918 12.0776C52.3918 18.5194 57.0108 23.0578 63.3968 23.0578C69.7828 23.0578 74.4018 18.5194 74.4018 12.0776C74.4018 6.05741 69.1194 1.83521 63.3968 1.83521ZM40.246 8.85981H34.8582L41.9572 22.4006H45.02L52.0942 8.85981H46.7064L43.4886 15.8038L40.2398 8.85981H40.246ZM34.6474 15.934C34.6474 11.315 31.9256 8.4134 27.2322 8.4134C22.824 8.4134 19.7364 11.1352 19.7364 15.6488C19.7364 20.1624 23.0906 22.8532 27.5732 22.8532C29.1294 22.8532 30.6608 22.4812 31.9008 21.7186C33.1408 20.956 34.0894 19.7904 34.4614 18.2094H29.8424C29.3154 19.1084 28.5776 19.4494 27.5484 19.4494C25.5706 19.4494 24.5414 18.3954 24.5414 16.4424H34.6536V15.9402L34.6474 15.934ZM24.6158 13.6648C24.9072 12.2636 26.0666 11.5258 27.4678 11.5258C28.7636 11.5258 29.9478 12.369 30.1896 13.6648H24.622H24.6158ZM6.1708 6.88201H7.386C10.7154 6.88201 13.059 8.8908 13.059 12.4496C13.059 16.3308 10.4178 18.0172 7.3302 18.0172H6.1708V6.88201ZM1 22.4006H8.3408C13.8588 22.4006 18.453 18.042 18.453 12.4496C18.453 6.8572 13.8774 2.49861 8.3346 2.49861H1V22.4006Z" fill="white"/>
</g>
<defs>
<linearGradient id="paint0_linear_493_2916" x1="113.48" y1="1.54379" x2="145.497" y2="28.4084" gradientUnits="userSpaceOnUse">
<stop offset="0.08" stop-color="#EAB700"/>
<stop offset="0.445" stop-color="#65B600"/>
<stop offset="0.715" stop-color="#00B5CC"/>
<stop offset="0.9999" stop-color="#0091ED"/>
<stop offset="1" stop-color="#0091ED"/>
</linearGradient>
<clipPath id="clip0_493_2916">
<rect width="157" height="29" fill="white"/>
</clipPath>
</defs>
</svg>
