<svg width="1416" height="181" viewBox="0 0 1416 181" fill="none" xmlns="http://www.w3.org/2000/svg">
<path d="M58.8708 25.9254H13.3848V0.142578H139.946V25.9254H94.3571C93.0238 25.9254 91.8443 26.3951 90.8187 27.439C89.7931 28.4306 89.2803 29.6832 89.2803 31.0924V90.3303H75.8955V148.515C75.8955 149.977 76.4083 151.177 77.3827 152.169H77.3314C78.3057 153.16 79.5365 153.682 80.921 153.682H126.51V179.465H0V153.682H45.486C46.9219 153.682 48.1014 153.16 49.0757 152.169C50.05 151.177 50.5628 149.924 50.5628 148.515V89.2773H63.9476V31.0924C63.9476 29.631 63.4348 28.4306 62.4604 27.439C61.4861 26.4473 60.2554 25.9254 58.8708 25.9254Z" fill="white"/>
<path d="M336.967 77.4911H311.686V0.142578H458.502V77.4911H433.17V43.4097C433.17 39.5475 433.375 36.3116 433.888 33.6498C434.349 31.0402 435.375 28.4828 436.964 25.9254C437.323 25.5079 437.477 24.986 437.477 24.3075C437.477 23.4202 437.067 22.6373 436.247 22.011C435.426 21.4369 434.554 21.2803 433.631 21.5935C426.708 23.8377 420.708 24.986 416.093 24.986C411.478 24.986 406.863 23.9421 402.247 21.8544C401.735 21.5935 401.273 21.4369 400.76 21.4369C399.888 21.4369 399.119 21.6979 398.555 22.3764C397.94 22.9505 397.683 23.8377 397.683 24.9338V90.3303H384.301V148.515C384.301 149.977 384.814 151.177 385.789 152.169C386.763 153.16 387.994 153.682 389.378 153.682H419.788V179.465H323.636V153.682H353.892C355.328 153.682 356.507 153.16 357.482 152.169C358.456 151.177 358.969 149.924 358.969 148.515V89.2773H372.351V24.9338C372.351 23.8899 372.043 23.0027 371.479 22.3764C370.864 21.75 370.197 21.4369 369.376 21.4369C368.864 21.4369 368.402 21.5935 367.889 21.8544C363.377 23.9421 358.813 24.986 354.3 24.986C349.479 24.986 343.582 23.8377 336.505 21.5935C335.582 21.2281 334.711 21.3847 333.89 22.011C333.07 22.5851 332.659 23.368 332.659 24.3075C332.659 24.986 332.865 25.5079 333.172 25.9254C334.711 28.4306 335.736 30.988 336.249 33.6498C336.711 36.3116 336.967 39.5475 336.967 43.4097V77.4911Z" fill="white"/>
<path d="M597.119 90.3303H610.494V77.4911H514.343C513.009 77.4911 511.881 76.9691 510.856 75.9253C509.83 74.8815 509.317 73.681 509.317 72.3241V31.0402C509.317 29.631 509.83 28.3784 510.856 27.3868C511.881 26.3951 513.061 25.8732 514.343 25.8732H610.494V0.142578H483.984V89.2773H470.609V179.465H597.119V153.682H500.968C499.583 153.682 498.352 153.16 497.378 152.169C496.404 151.177 495.891 149.977 495.891 148.515V107.388C495.891 105.979 496.404 104.726 497.378 103.735C498.352 102.743 499.532 102.221 500.968 102.221H597.119V90.3303Z" fill="white"/>
<path fill-rule="evenodd" clip-rule="evenodd" d="M744.488 0.142578C749.36 0.142578 753.718 1.2908 757.667 3.53506H757.616C761.564 5.8315 764.59 8.91083 766.846 12.9296C769.051 16.9484 770.18 21.4369 770.18 26.4473V76.9691C770.18 81.5098 769.051 85.7896 766.846 89.8084C766.744 90.0171 766.539 90.3303 766.539 90.3303H752.577C750.487 93.6226 747.724 96.3896 744.29 98.5153C740.341 100.968 735.982 102.221 731.213 102.221H717.213C716.136 102.221 715.265 102.534 714.598 103.108C713.931 103.682 713.624 104.413 713.624 105.248C713.624 106.083 713.931 106.814 714.598 107.44C715.265 108.066 716.136 108.38 717.213 108.38C721.47 108.38 724.905 109.371 727.521 111.459C730.136 113.547 732.239 116.313 733.931 119.862L733.88 119.81C735.572 123.359 737.88 129.048 740.854 136.929L756.802 179.413H729.777L701.983 105.196C701.624 104.309 700.957 103.526 700.034 103.004C699.06 102.43 698.188 102.169 697.368 102.169H660.702C659.266 102.169 658.087 102.691 657.112 103.682C656.138 104.674 655.625 105.927 655.625 107.336V179.413H630.344V89.2773H643.67V0.142578H744.488ZM743.565 75.9253C744.539 74.8815 745.052 73.681 745.052 72.3241V31.0402C745.052 29.5788 744.539 28.3784 743.565 27.3868C742.591 26.3951 741.36 25.8732 739.975 25.8732H674.131C672.797 25.8732 671.618 26.3951 670.592 27.3868C669.567 28.3784 669.054 29.631 669.054 31.0402V72.3241C669.054 73.681 669.515 74.8815 670.592 75.9253C671.618 76.9691 672.797 77.4911 674.131 77.4911H739.975C741.411 77.4911 742.591 76.9691 743.565 75.9253Z" fill="white"/>
<path fill-rule="evenodd" clip-rule="evenodd" d="M903.972 0.142578C908.844 0.142578 913.254 1.2908 917.151 3.53506H917.1C921.049 5.8315 924.074 8.91083 926.331 12.9296C928.536 16.9484 929.664 21.4369 929.664 26.4473V76.9691C929.664 81.5098 928.536 85.7896 926.331 89.8084C926.228 90.0171 926.023 90.3303 926.023 90.3303H912.061C909.971 93.6226 907.209 96.3896 903.774 98.5153C899.825 100.968 895.466 102.221 890.697 102.221H876.698C875.621 102.221 874.749 102.534 874.082 103.108C873.416 103.682 873.108 104.413 873.108 105.248C873.108 106.083 873.416 106.814 874.082 107.44C874.749 108.066 875.621 108.38 876.698 108.38C880.954 108.38 884.39 109.371 887.005 111.459C889.62 113.547 891.723 116.313 893.415 119.862V119.81C895.107 123.359 897.415 129.048 900.389 136.929L916.338 179.413H889.261L861.467 105.196C861.108 104.309 860.442 103.526 859.519 103.004C858.544 102.43 857.673 102.169 856.852 102.169H820.186C818.75 102.169 817.571 102.691 816.597 103.682C815.622 104.674 815.109 105.927 815.109 107.336V179.413H789.828V89.2773H803.154V0.142578H903.972ZM902.998 75.9253C903.972 74.8815 904.485 73.681 904.485 72.3241V31.0402C904.485 29.5788 903.972 28.3784 902.998 27.3868C902.024 26.3951 900.793 25.8732 899.408 25.8732H833.512C832.179 25.8732 831 26.3951 829.974 27.3868C828.949 28.3784 828.436 29.631 828.436 31.0402V72.3241C828.436 73.681 828.949 74.8815 829.974 75.9253C831.051 76.9691 832.179 77.4911 833.512 77.4911H899.408C900.844 77.4911 902.024 76.9691 902.998 75.9253Z" fill="white"/>
<path d="M1086.18 0.142578H1060.85V89.3359H1047.56V148.574C1047.56 149.983 1047.05 151.236 1046.07 152.227C1045.1 153.219 1043.92 153.741 1042.48 153.741H976.74C975.355 153.741 974.124 153.219 973.15 152.227C972.176 151.236 971.663 150.035 971.663 148.574V90.3303H985.005V0.142578H959.672V89.3359H946.33V153.219C946.33 158.229 947.458 162.718 949.663 166.737C951.868 170.755 954.945 173.835 958.894 176.131C962.843 178.375 967.253 179.524 972.176 179.524H1047.05C1051.97 179.524 1056.38 178.375 1060.33 176.131C1064.28 173.887 1067.3 170.755 1069.56 166.737C1071.76 162.718 1072.89 158.229 1072.89 153.219V90.3303H1086.18V0.142578Z" fill="white"/>
<path fill-rule="evenodd" clip-rule="evenodd" d="M1223.92 0.142578C1228.84 0.142578 1233.25 1.2908 1237.2 3.53506H1237.15C1241.1 5.8315 1244.12 8.91083 1246.38 12.9296C1248.58 16.9484 1249.71 21.4369 1249.71 26.4473V76.9691C1249.71 81.9274 1248.64 86.4159 1246.53 90.3303H1232.56C1230.4 93.949 1227.54 96.8012 1224.02 98.8871C1220.22 101.131 1215.86 102.28 1210.99 102.28H1140.07C1138.63 102.28 1137.45 102.801 1136.48 103.793C1135.5 104.785 1134.99 106.037 1134.99 107.447V179.524H1109.76V89.3359H1123.2V0.142578H1223.92ZM1222.94 75.9253C1223.92 74.8815 1224.43 73.681 1224.43 72.3241V31.0402C1224.43 29.5788 1223.92 28.3784 1222.94 27.3868C1221.97 26.3951 1220.74 25.8732 1219.35 25.8732H1153.46C1152.13 25.8732 1150.95 26.3951 1149.92 27.3868C1148.89 28.3784 1148.38 29.631 1148.38 31.0402V72.3241C1148.38 73.681 1148.89 74.8815 1149.92 75.9253C1151 76.9691 1152.13 77.4911 1153.46 77.4911H1219.35C1220.79 77.4911 1221.97 76.9691 1222.94 75.9253Z" fill="white"/>
<path d="M1293.81 77.4911H1268.53V0.142578H1415.35V77.4389H1390.02V43.3575C1390.02 39.4953 1390.22 36.2594 1390.74 33.6498C1391.2 31.0402 1392.22 28.4828 1393.81 25.9254C1394.17 25.5079 1394.32 24.986 1394.32 24.3075C1394.32 23.4202 1393.91 22.6373 1393.09 22.011C1392.27 21.4369 1391.4 21.2803 1390.48 21.5935C1383.56 23.8377 1377.56 24.986 1372.94 24.986C1368.33 24.986 1363.71 23.9421 1359.1 21.8544C1358.58 21.5935 1358.07 21.4369 1357.61 21.4369C1356.74 21.4369 1355.97 21.75 1355.4 22.3764C1354.79 22.9505 1354.53 23.8377 1354.53 24.9338V90.3303H1341.14V148.515C1341.14 149.977 1341.65 151.177 1342.63 152.169C1343.6 153.16 1344.83 153.682 1346.22 153.682H1376.63V179.465H1280.48V153.682H1310.73C1312.17 153.682 1313.35 153.16 1314.32 152.169C1315.3 151.177 1315.81 149.924 1315.81 148.515V89.2773H1329.2V24.9338C1329.2 23.8899 1328.89 23.0027 1328.33 22.3764C1327.71 21.75 1327.04 21.4369 1326.22 21.4369C1325.71 21.4369 1325.25 21.5935 1324.74 21.8544C1320.22 23.9421 1315.66 24.986 1311.15 24.986C1306.38 24.986 1300.43 23.8377 1293.35 21.5935C1292.43 21.2281 1291.56 21.3847 1290.74 22.011C1289.92 22.5851 1289.51 23.368 1289.51 24.3075C1289.51 24.986 1289.71 25.5079 1290.02 25.9254C1291.56 28.4306 1292.58 30.988 1293.1 33.6498C1293.56 36.3116 1293.81 39.5475 1293.81 43.4097V77.4911Z" fill="white"/>
<path d="M205.077 72.7938L211.208 89.3848H198.145L231.374 179.572H275.476V90.3303H288.864V0.142578H263.531V89.3848H250.143V160.627C250.143 161.566 249.887 162.297 249.271 162.871C248.656 163.445 247.938 163.758 247.066 163.758C246.195 163.758 245.477 163.497 244.913 162.871C244.4 162.297 244.092 161.514 244.092 160.627C244.092 153.685 243.631 147.422 242.708 141.838C241.784 136.253 240.656 131.347 239.374 127.12C238.092 122.892 236.144 117.307 233.682 110.47L226.267 90.2781H239.332L206.307 0.142578H162.309V89.3359H148.975V179.524H174.307V90.3303H187.641V18.9839C187.641 18.0444 187.898 17.3137 188.513 16.7396C189.128 16.1655 189.795 15.8524 190.616 15.8524C191.539 15.8524 192.257 16.1133 192.821 16.7396C193.385 17.3659 193.692 18.0966 193.692 18.9839C193.692 26.1864 194.205 32.7626 195.18 38.7646C196.154 44.7667 197.385 50.0903 198.872 54.7876C200.359 59.4848 202.41 65.4869 205.025 72.7416L205.077 72.7938Z" fill="white"/>
<path d="M630.399 179.523V179.469H630.344L630.399 179.523Z" fill="white"/>
<path d="M789.834 179.523V179.469H789.779L789.834 179.523Z" fill="white"/>
</svg>
