<svg width="233" height="118" viewBox="0 0 233 118" fill="none" xmlns="http://www.w3.org/2000/svg">
<g clip-path="url(#clip0_107_968)">
<path d="M185.741 35.4944C190.301 40.0539 190.301 47.4738 185.741 52.0333L175.527 62.0822L175.424 61.5063C174.678 57.3763 172.714 53.6286 169.75 50.6645C167.518 48.4366 164.879 46.7894 161.905 45.7698C160.06 47.6248 159.045 50.0556 159.045 52.6138C159.045 53.133 159.092 53.6711 159.187 54.2092C160.825 54.7992 162.274 55.7102 163.491 56.9279C168.051 61.4874 168.051 68.9073 163.491 73.4668L154.599 82.3593C152.319 84.639 149.327 85.7766 146.329 85.7766C143.332 85.7766 140.34 84.639 138.06 82.3593C133.5 77.7998 133.5 70.3799 138.06 65.8204L148.274 55.7762L148.378 56.3521C149.119 60.4726 151.082 64.2203 154.056 67.1892C156.293 69.4265 158.771 70.9133 161.74 71.9281L162.288 71.3806C163.949 69.7191 164.86 67.5102 164.86 65.1549C164.86 64.631 164.813 64.107 164.723 63.5926C163.01 63.0262 161.599 62.219 160.315 60.9352C158.465 59.085 157.313 56.7202 156.992 54.1006C156.968 53.9118 156.954 53.7278 156.935 53.539C156.68 50.1264 157.912 46.7941 160.315 44.3963L169.207 35.5038C171.412 33.2996 174.347 32.0818 177.477 32.0818C180.606 32.0818 183.542 33.2949 185.746 35.5038V35.4944H185.741ZM232.177 59C232.177 91.535 205.707 118 173.177 118H59C26.4698 118 0 91.535 0 59C0 26.465 26.4698 0 59 0H173.177C205.712 0 232.177 26.4698 232.177 59ZM113.705 88.5897C114.635 87.4616 110.339 84.285 109.462 83.1192C107.677 81.184 107.668 78.3992 106.464 76.1383C103.519 69.3132 100.135 62.54 95.4006 56.7627C90.3974 50.4426 84.2237 45.2129 78.8004 39.2798C74.7742 35.1404 73.6981 29.2451 70.1439 24.7942C65.2446 17.5584 49.7535 15.5854 47.4832 25.8042C47.4926 26.1252 47.3935 26.3282 47.115 26.5311C45.8595 27.4421 44.7409 28.4852 43.8016 29.7454C41.503 32.9456 41.149 38.3736 44.0187 41.2481C44.1131 39.733 44.165 38.3028 45.3639 37.2172C47.5823 39.1194 50.9335 39.7943 53.5059 38.3736C59.1888 46.4873 57.7728 57.7114 62.2851 66.4529C63.5312 68.5202 64.7867 70.6301 66.3868 72.4426C67.6848 74.4627 72.1688 76.8463 72.4331 78.7154C72.4803 81.925 72.1027 85.432 74.2078 88.1177C75.199 90.1284 72.7635 92.1486 70.8 91.8984C68.2512 92.2477 65.1407 90.185 62.9082 91.4547C62.1199 92.309 60.5765 91.365 59.8968 92.5498C59.6608 93.1634 58.3864 94.0271 59.1463 94.6171C59.9912 93.9752 60.7747 93.305 61.9122 93.6873C61.7423 94.6124 62.4739 94.7446 63.0545 95.0136C63.0356 95.6414 62.6674 96.2833 63.1489 96.8166C63.7106 96.2502 64.0457 95.4478 64.9378 95.2118C67.9019 99.1625 70.918 91.214 77.3325 94.7918C76.0298 94.7257 74.8734 94.8909 73.9954 95.9623C73.7783 96.203 73.5942 96.4862 73.9766 96.7978C77.4363 94.5652 77.4174 97.5624 79.6642 96.642C81.3917 95.7405 83.1098 94.6124 85.163 94.9334C83.1664 95.5092 83.0862 97.114 81.9156 98.4686C81.7174 98.6763 81.623 98.9123 81.8542 99.2569C85.9984 98.9076 86.3382 97.5294 89.6847 95.8396C92.1816 94.315 94.669 98.0108 96.8308 95.9057C97.3075 95.4478 97.9589 95.6036 98.5489 95.5422C97.7937 91.5161 89.4912 96.2786 89.6234 90.8789C92.2949 89.0617 91.6813 85.583 91.8606 82.7746C94.9334 84.4786 98.3506 85.4698 101.362 87.0982C102.882 89.5526 105.265 92.7952 108.442 92.5828C108.527 92.3374 108.602 92.1202 108.692 91.8701C109.655 92.0353 110.892 92.6725 111.42 91.4547C112.86 92.9604 114.974 92.8849 116.858 92.4978C118.25 91.365 114.238 89.7508 113.7 88.585H113.705V88.5897ZM198.009 43.7638C198.009 38.2698 195.875 33.1108 192 29.2357C188.125 25.3606 182.966 23.2271 177.467 23.2271C171.968 23.2271 166.81 25.3606 162.934 29.2357L154.042 38.1282C151.965 40.205 150.389 42.6452 149.355 45.3781L149.294 45.5338L149.133 45.581C145.905 46.577 143.058 48.2856 140.675 50.6692L131.782 59.5617C123.773 67.5762 123.773 80.6129 131.782 88.6227C135.658 92.4978 140.816 94.6313 146.311 94.6313C151.805 94.6313 156.968 92.4978 160.843 88.6227L169.736 79.7302C171.803 77.6629 173.37 75.2321 174.404 72.5039L174.465 72.3482L174.626 72.2962C177.798 71.3239 180.724 69.5586 183.098 67.1892L191.991 58.2967C195.866 54.4216 197.999 49.2626 197.999 43.7638H198.009ZM81.3634 81.9392C80.5987 84.9222 80.3486 90.0057 76.4687 90.152C76.1478 91.8748 77.6629 92.5214 79.0364 91.9692C80.4005 91.3414 81.0471 92.4648 81.505 93.5834C83.6101 93.8902 86.7253 92.8802 86.8433 90.388C83.6998 88.5755 82.7274 85.1299 81.3586 81.9392H81.3634Z" fill="white"/>
</g>
<defs>
<clipPath id="clip0_107_968">
<rect width="232.177" height="118" fill="white"/>
</clipPath>
</defs>
</svg>
