<svg width="340" height="152" viewBox="0 0 340 152" fill="none" xmlns="http://www.w3.org/2000/svg">
<g clip-path="url(#clip0_4_1224)">
<path d="M54.5914 91.5526H42.1675L52.0442 45.1515H64.468L54.5914 91.5526Z" fill="#1A1A18"/>
<path d="M61.0195 91.5526L70.8962 45.1515H94.3154C105.869 45.1515 109.224 50.0391 106.615 62.1656C103.82 75.2201 99.9684 79.6745 86.9859 79.6745H75.9906L73.4441 91.5533H61.0202L61.0195 91.5526ZM86.799 68.9084C91.7064 68.723 92.5145 68.1659 93.8187 62.1649C94.8129 57.4012 94.378 55.9162 89.5324 55.9162H81.0224L78.289 68.9084H86.799Z" fill="#1A1A18"/>
<path d="M147.476 73.9822L147.228 75.3433C146.109 80.4163 145.115 84.9953 140.084 88.5217C135.176 91.9865 130.02 91.9243 124.616 91.9243C111.943 91.9243 102.811 91.3056 106.414 74.3538L108.962 62.3518C112.254 47.0081 121.013 44.7813 134.679 44.7813C147.476 44.7813 153.129 46.0809 150.396 60.0011L150.023 61.7954H137.226L137.599 60.0011C138.096 55.856 135.239 55.5467 131.014 55.5467C123.933 55.5467 122.752 57.712 121.386 64.3323L119.833 71.5706C118.342 78.5002 118.094 81.1603 125.548 81.1603C130.704 81.1603 133.251 80.7894 134.431 75.3447L134.679 73.9836H147.476L147.476 73.9822Z" fill="#1A1A18"/>
<path d="M126.388 8.46382C140.336 13.2488 147.393 16.8304 150.186 19.3297C152.039 20.9853 151.97 21.6075 149.262 22.4385C143.027 24.3525 129.262 23.1237 126.144 20.6675C100.766 0.686174 69.241 -4.31465 47.5303 11.3957C19.5221 31.663 19.3586 77.9098 45.9952 114.423C57.977 130.847 77.9756 142.745 98.0126 149.897C102.553 151.519 98.8725 152.851 92.4058 151.335C88.6846 150.461 84.9093 149.369 81.0352 148.042C25.5389 129.011 -10.452 82.241 2.72523 44.125C15.9209 5.95952 70.9624 -10.5421 126.388 8.46382Z" fill="url(#paint0_linear_4_1224)"/>
<path d="M54.5914 91.5526H42.1675L52.0442 45.1515H64.468L54.5914 91.5526Z" fill="white"/>
<path d="M61.0195 91.5526L70.8962 45.1515H94.3154C105.869 45.1515 109.224 50.0391 106.615 62.1656C103.82 75.2201 99.9684 79.6745 86.9859 79.6745H75.9906L73.4441 91.5533H61.0202L61.0195 91.5526ZM86.799 68.9084C91.7064 68.723 92.5145 68.1659 93.8187 62.1649C94.8129 57.4012 94.378 55.9162 89.5324 55.9162H81.0224L78.289 68.9084H86.799Z" fill="white"/>
<path d="M147.476 73.9822L147.228 75.3433C146.109 80.4163 145.115 84.9953 140.084 88.5217C135.176 91.9865 130.02 91.9243 124.616 91.9243C111.943 91.9243 102.811 91.3056 106.414 74.3538L108.962 62.3518C112.254 47.0081 121.013 44.7813 134.679 44.7813C147.476 44.7813 153.129 46.0809 150.396 60.0011L150.023 61.7954H137.226L137.599 60.0011C138.096 55.856 135.239 55.5467 131.014 55.5467C123.933 55.5467 122.752 57.712 121.386 64.3323L119.833 71.5706C118.342 78.5002 118.094 81.1603 125.548 81.1603C130.704 81.1603 133.251 80.7894 134.431 75.3447L134.679 73.9836H147.476L147.476 73.9822Z" fill="white"/>
<path d="M126.387 8.46388C140.335 13.2488 147.392 16.8304 150.185 19.3298C152.039 20.9854 151.97 21.6076 149.261 22.4386C143.026 24.3526 129.262 23.1238 126.143 20.6676C100.765 0.686235 69.2405 -4.31459 47.5299 11.3957C19.5216 31.663 19.3581 77.9099 45.9947 114.423C57.9765 130.847 77.9751 142.745 98.0121 149.897C102.552 151.519 98.8721 152.851 92.4053 151.335C88.6841 150.461 84.9088 149.369 81.0347 148.042C25.5384 129.011 -10.4525 82.2411 2.72474 44.1251C15.9204 5.95958 70.9619 -10.5421 126.387 8.46388Z" fill="url(#paint1_linear_4_1224)"/>
</g>
<path d="M161.406 65.1671H159.204L163.324 46.9091H165.527L161.406 65.1671Z" fill="white"/>
<path d="M169.313 53.9445C170.298 52.4107 172.345 52.2404 173.899 52.2404C177.397 52.2404 178.874 53.116 178.019 56.671L176.102 65.1671H174.055L175.998 56.5249C176.542 54.1884 175.661 53.7984 173.355 53.7984C170.012 53.7984 169.08 54.772 168.406 57.7178L166.721 65.1671H164.673L167.575 52.3865H169.623L169.26 53.9445H169.313Z" fill="white"/>
<path d="M184.073 53.9445L182.233 62.051C181.948 63.4389 182.259 63.7551 183.762 63.7551C185.679 63.7551 185.912 62.8056 186.171 61.5885L186.405 60.6391H188.349L188.116 61.5885C187.546 64.1205 186.172 65.3131 183.373 65.3131C180.187 65.3131 179.642 64.4607 180.316 61.4668L182.026 53.9445H180.212L180.575 52.3865H182.389L183.089 49.2948H185.136L184.436 52.3865H189.696L189.333 53.9445H184.073Z" fill="white"/>
<path d="M201.194 61.2964L201.09 61.7589C200.313 65.1432 197.514 65.3131 194.482 65.3131C189.171 65.3131 188.729 63.6581 189.844 58.7889C191.036 53.4819 192.565 52.2404 197.436 52.2404C201.841 52.2404 203.033 53.19 201.945 57.9126L201.66 59.2028H191.865C190.958 63.2438 191.141 63.7551 194.82 63.7551C197.618 63.7551 198.577 63.5848 198.992 61.7833L199.095 61.2964H201.194ZM199.898 57.6448C200.598 54.0175 200.184 53.7984 197.074 53.7984C193.369 53.7984 193.032 54.699 192.229 57.6448H199.898Z" fill="white"/>
<path d="M208.102 52.3865L207.635 53.9688L207.661 54.0175C208.698 52.6049 210.408 52.2404 211.937 52.2404C214.554 52.2404 215.435 53.4573 214.891 55.8433L214.683 56.7684H212.74L212.947 55.9177C213.31 54.335 212.843 53.7984 211.133 53.7984C208.593 53.7984 207.505 54.9437 207.064 57.2079L205.251 65.1684H203.203L206.105 52.3865H208.1H208.102Z" fill="white"/>
<path d="M219.424 53.9445C220.409 52.4107 222.456 52.2404 224.01 52.2404C227.508 52.2404 228.985 53.116 228.13 56.671L226.213 65.1671H224.165L226.109 56.5249C226.653 54.1884 225.772 53.7984 223.466 53.7984C220.123 53.7984 219.191 54.772 218.517 57.7178L216.832 65.1671H214.785L217.686 52.3865H219.734L219.371 53.9445H219.424Z" fill="white"/>
<path d="M238.713 65.1671L238.999 63.8525L238.973 63.8052C237.858 65.266 235.863 65.3145 234.153 65.3145C231.095 65.3145 229.074 64.7792 229.852 61.4438C230.629 57.9142 232.702 57.4257 236.07 57.4257C237.418 57.4257 240.035 57.5483 240.035 58.7173H240.164L240.709 56.3545C241.227 54.018 239.957 53.7984 237.652 53.7984C236.045 53.7984 234.075 53.7985 233.713 55.5512L233.609 55.9907H231.485L231.536 55.7229C232.287 52.4364 234.75 52.2163 237.782 52.2404C241.201 52.2163 243.637 52.5575 242.73 56.4533L240.761 65.1684H238.714L238.713 65.1671ZM239.517 61.3694C240.061 58.9592 238.532 58.9837 235.941 58.9837C233.505 58.9837 232.494 59.1296 232.027 61.199C231.457 63.6333 232.494 63.7551 234.852 63.7551C236.899 63.7551 238.999 63.7072 239.517 61.3694Z" fill="white"/>
<path d="M248.664 53.9445L246.824 62.051C246.538 63.4389 246.849 63.7551 248.352 63.7551C250.27 63.7551 250.503 62.8056 250.762 61.5885L250.996 60.6391H252.939L252.706 61.5885C252.136 64.1205 250.762 65.3131 247.964 65.3131C244.777 65.3131 244.233 64.4607 244.907 61.4668L246.617 53.9445H244.803L245.166 52.3865H246.98L247.68 49.2948H249.727L249.027 52.3865H254.287L253.924 53.9445H248.664Z" fill="white"/>
<path d="M255.513 65.1671H253.466L256.368 52.3865H258.415L255.513 65.1671ZM259.167 49.027H257.119L257.586 46.9091H259.633L259.167 49.027Z" fill="white"/>
<path d="M267.351 52.2404C272.404 52.2404 273.129 53.3842 271.911 58.7889C270.694 64.169 269.45 65.3131 264.397 65.3131C259.344 65.3131 258.618 64.1696 259.836 58.7889C261.054 53.3842 262.298 52.2404 267.351 52.2404ZM264.733 63.7551C268.387 63.7551 268.776 63.2196 269.786 58.7889C270.797 54.3335 270.641 53.7971 266.988 53.7971C263.335 53.7971 262.971 54.3335 261.961 58.7889C260.95 63.2203 261.079 63.7551 264.733 63.7551Z" fill="white"/>
<path d="M278.085 53.9445C279.07 52.4107 281.117 52.2404 282.672 52.2404C286.17 52.2404 287.646 53.116 286.791 56.671L284.874 65.1671H282.827L284.77 56.5249C285.315 54.1884 284.433 53.7984 282.127 53.7984C278.784 53.7984 277.852 54.772 277.178 57.7178L275.493 65.1671H273.446L276.347 52.3865H278.395L278.032 53.9445H278.085Z" fill="white"/>
<path d="M297.375 65.1671L297.66 63.8525L297.634 63.8052C296.52 65.266 294.524 65.3145 292.814 65.3145C289.756 65.3145 287.735 64.7792 288.513 61.4438C289.29 57.9142 291.363 57.4257 294.731 57.4257C296.08 57.4257 298.697 57.5483 298.697 58.7173H298.825L299.37 56.3545C299.888 54.018 298.619 53.7984 296.313 53.7984C294.706 53.7984 292.737 53.7985 292.374 55.5512L292.27 55.9907H290.146L290.197 55.7229C290.948 52.4364 293.411 52.2163 296.443 52.2404C299.862 52.2163 302.298 52.5575 301.391 56.4533L299.423 65.1684H297.375L297.375 65.1671ZM298.178 61.3694C298.722 58.9592 297.193 58.9837 294.602 58.9837C292.166 58.9837 291.155 59.1296 290.688 61.199C290.118 63.6333 291.155 63.7551 293.513 63.7551C295.56 63.7551 297.66 63.7072 298.178 61.3694Z" fill="white"/>
<path d="M304.736 65.1671H302.689L306.809 46.9091H308.856L304.736 65.1671Z" fill="white"/>
<path d="M153.309 90.6661L157.127 73.7443H166.18C170.646 73.7443 171.942 75.5271 170.934 79.9493C169.853 84.7097 168.364 86.3342 163.345 86.3342H159.095L158.111 90.6661H153.309ZM163.274 82.408C165.171 82.3403 165.484 82.1379 165.988 79.9493C166.372 78.2122 166.204 77.6704 164.331 77.6704H161.041L159.985 82.408H163.274Z" fill="white"/>
<path d="M186.028 90.6661H181.226L182.715 84.0323H176.447L174.958 90.6661H170.156L173.973 73.7443H178.776L177.335 80.1075H183.602L185.043 73.7443H189.845L186.027 90.6661H186.028Z" fill="white"/>
<path d="M188.726 90.6661L192.544 73.7443H201.596C206.063 73.7443 207.36 75.5271 206.351 79.9493C205.271 84.7097 203.781 86.3342 198.763 86.3342H194.513L193.528 90.6661H188.726ZM198.691 82.408C200.588 82.3403 200.901 82.1379 201.405 79.9493C201.789 78.2122 201.621 77.6704 199.748 77.6704H196.458L195.401 82.408H198.691Z" fill="white"/>
<path d="M218.93 90.8C215.653 90.8 214.145 88.8669 214.912 85.4957L216.395 78.9769C217.471 74.2113 220.725 73.6726 225.079 73.6726H226.754C230.51 73.6726 231.299 75.2016 230.557 78.5279L230.437 79.0675H228.404L228.5 78.5941C229.026 76.2342 228.716 75.3577 226.083 75.3577H224.935C220.725 75.3577 219.121 75.8299 218.428 78.9093L217.375 83.54C216.513 87.3837 216.299 89.1135 219.696 89.1135H222.112C225.366 89.1135 226.466 88.6864 226.993 86.2814L227.304 84.9331H229.338L228.979 86.506C228.117 90.3717 225.39 90.8 221.801 90.8H218.93Z" fill="white"/>
<path d="M237.93 78.7294C242.595 78.7294 243.264 79.7864 242.14 84.7762C241.015 89.7438 239.867 90.8 235.202 90.8C230.537 90.8 229.867 89.7438 230.991 84.7762C232.116 79.7864 233.265 78.7294 237.93 78.7294ZM235.513 89.3623C238.886 89.3623 239.245 88.8674 240.178 84.7762C241.111 80.6628 240.968 80.1684 237.595 80.1684C234.221 80.1684 233.886 80.6628 232.953 84.7762C232.021 88.8667 232.14 89.3623 235.513 89.3623Z" fill="white"/>
<path d="M247.804 80.3023H247.852C248.761 78.8864 250.652 78.7294 252.087 78.7294C255.317 78.7294 256.68 79.5392 255.891 82.8205L254.12 90.6647H252.231L254.025 82.6853C254.527 80.5273 253.713 80.1684 251.585 80.1684C248.498 80.1684 247.637 81.0672 247.015 83.7875L245.46 90.6661H243.571L246.25 78.8646H248.139L247.804 80.3023Z" fill="white"/>
<path d="M265.502 78.8646L265.167 80.3036H261.842L259.498 90.6661H257.608L259.952 80.3036H258.037L258.373 78.8646H260.287L260.598 77.4486C261.244 74.5713 262.416 73.6726 265.502 73.6726C265.885 73.6726 266.268 73.6964 266.651 73.7186L266.34 75.1562C265.957 75.1334 265.55 75.1116 265.167 75.1116C263.278 75.1116 262.894 75.6952 262.536 77.2688L262.177 78.8646H265.502Z" fill="white"/>
<path d="M275.046 87.0916L274.952 87.5189C274.234 90.6432 271.65 90.8 268.851 90.8C263.947 90.8 263.539 89.2714 264.567 84.7762C265.669 79.8764 267.08 78.7294 271.578 78.7294C275.644 78.7294 276.745 79.6071 275.74 83.9674L275.477 85.1589H266.433C265.596 88.8898 265.764 89.3623 269.16 89.3623C271.744 89.3623 272.629 89.204 273.013 87.5406L273.108 87.0916H275.046ZM273.85 83.7199C274.497 80.3708 274.113 80.1684 271.242 80.1684C267.821 80.1684 267.51 81.0003 266.769 83.7199H273.85Z" fill="white"/>
<path d="M281.436 78.8646L281.006 80.3253L281.03 80.3713C281.987 79.0675 283.566 78.7294 284.978 78.7294C287.394 78.7294 288.208 79.8541 287.705 82.0564L287.513 82.9112H285.719L285.911 82.1254C286.246 80.6646 285.815 80.1684 284.236 80.1684C281.892 80.1684 280.886 81.2253 280.48 83.3155L278.805 90.6661H276.916L279.594 78.866L281.436 78.8646Z" fill="white"/>
<path d="M298.981 87.0916L298.886 87.5189C298.169 90.6432 295.585 90.8 292.786 90.8C287.881 90.8 287.474 89.2714 288.503 84.7762C289.604 79.8764 291.015 78.7294 295.512 78.7294C299.579 78.7294 300.679 79.6071 299.675 83.9674L299.411 85.1589H290.368C289.531 88.8898 289.699 89.3623 293.095 89.3623C295.679 89.3623 296.564 89.204 296.947 87.5406L297.043 87.0916H298.981ZM297.785 83.7199C298.431 80.3708 298.049 80.1684 295.178 80.1684C291.757 80.1684 291.445 81.0003 290.704 83.7199H297.785Z" fill="white"/>
<path d="M305.208 80.3023H305.256C306.165 78.8864 308.054 78.7294 309.49 78.7294C312.72 78.7294 314.083 79.5392 313.294 82.8205L311.523 90.6647H309.634L311.428 82.6853C311.93 80.5273 311.116 80.1684 308.988 80.1684C305.902 80.1684 305.04 81.0672 304.419 83.7875L302.864 90.6661H300.974L303.653 78.8646H305.542L305.208 80.3023Z" fill="white"/>
<path d="M326.011 86.3951L325.868 87.0469C325.126 90.3732 322.686 90.8 319.695 90.8C314.48 90.8 314.552 88.9118 315.532 84.5287C316.394 80.6851 317.567 78.7294 322.112 78.7294C325.15 78.7294 327.471 79.0448 326.705 82.3945L326.632 82.7096H324.743L324.838 82.3499C325.317 80.214 324.073 80.1684 321.896 80.1684C318.546 80.1684 318.236 81.2478 317.374 85.0237C316.633 88.3506 316.537 89.3623 320.221 89.3623C322.59 89.3623 323.523 89.1152 324.001 86.9807L324.121 86.3964H326.011L326.011 86.3951Z" fill="white"/>
<path d="M338.958 87.0916L338.863 87.5189C338.145 90.6432 335.561 90.8 332.762 90.8C327.857 90.8 327.45 89.2714 328.479 84.7762C329.58 79.8764 330.991 78.7294 335.489 78.7294C339.556 78.7294 340.656 79.6071 339.651 83.9674L339.388 85.1589H330.344C329.507 88.8898 329.675 89.3623 333.071 89.3623C335.655 89.3623 336.54 89.204 336.923 87.5406L337.019 87.0916H338.958ZM337.761 83.7199C338.407 80.3708 338.025 80.1684 335.154 80.1684C331.733 80.1684 331.421 81.0003 330.68 83.7199H337.761Z" fill="white"/>
<defs>
<linearGradient id="paint0_linear_4_1224" x1="75.7277" y1="0.545317" x2="75.7277" y2="152" gradientUnits="userSpaceOnUse">
<stop stop-color="#FECE43"/>
<stop offset="0.56" stop-color="#F7A600"/>
<stop offset="0.956" stop-color="#F28D00"/>
<stop offset="1" stop-color="#F28D00"/>
</linearGradient>
<linearGradient id="paint1_linear_4_1224" x1="75.7272" y1="0.545378" x2="75.7272" y2="152" gradientUnits="userSpaceOnUse">
<stop stop-color="#FECE43"/>
<stop offset="0.56" stop-color="#F7A600"/>
<stop offset="0.956" stop-color="#F28D00"/>
<stop offset="1" stop-color="#F28D00"/>
</linearGradient>
<clipPath id="clip0_4_1224">
<rect width="151.455" height="151.455" fill="white" transform="translate(0 0.54541)"/>
</clipPath>
</defs>
</svg>
