<?xml version="1.0" standalone="no"?>
<!DOCTYPE svg PUBLIC "-//W3C//DTD SVG 1.1//EN" "http://www.w3.org/Graphics/SVG/1.1/DTD/svg11.dtd">
<!--Generator: Xara Designer (www.xara.com), SVG filter version: 6.6.0.13-->
<svg fill="none" fill-rule="evenodd" stroke="black" stroke-linejoin="bevel" stroke-miterlimit="10" font-family="Times New Roman" font-size="16" style="font-variant-ligatures:none" xmlns:xlink="http://www.w3.org/1999/xlink" xmlns="http://www.w3.org/2000/svg" version="1.1" overflow="visible" width="222.048pt" height="129.187pt" viewBox="97.675 118.598 222.048 129.187">
 <defs>
  <style type="text/css">@import url('https://themes.googleusercontent.com/fonts/css?family=Open Sans:400');
@import url('https://themes.googleusercontent.com/fonts/css?family=Poppins:400,700');</style>
 </defs>
 <g id="Page background" transform="scale(1 -1)" stroke-width="0.501"/>
 <g id="Pasteboard background (2)" transform="scale(1 -1)" stroke-width="0.501"/>
 <g id="Page background (2)" transform="scale(1 -1)" stroke-width="0.501"/>
 <g id="Pasteboard background (3)" transform="scale(1 -1)" stroke-width="0.501"/>
 <g id="Page background (3)" transform="scale(1 -1)" stroke-width="0.501"/>
 <g id="Pasteboard background (4)" transform="scale(1 -1)" stroke-width="0.501"/>
 <g id="Page background (4)" transform="scale(1 -1)" stroke-width="0.501"/>
 <g id="Layer 1" transform="scale(1 -1)" stroke-width="0.501">
  <g id="Group" fill="#ffffff">
   <path d="M 100.756,-169.479 L 317.718,-169.479" fill="none" stroke-opacity="0.235294" stroke="#ffffff" stroke-width="4.01" stroke-linecap="round" stroke-linejoin="round" fill-opacity="0.235294"/>
   <path d="M 99.68,-169.479 L 200.217,-169.479" fill="none" stroke-width="4.01" stroke="#ffffff" stroke-linecap="round" stroke-linejoin="round"/>
   <path d="M 100.756,-176.105 L 317.718,-176.105" fill="none" stroke="#ffffff" stroke-opacity="0.235294" stroke-width="4.01" stroke-linecap="round" stroke-linejoin="round" fill-opacity="0.235294"/>
   <path d="M 217.181,-176.105 L 317.718,-176.105" fill="none" stroke-width="4.01" stroke="#ffffff" stroke-linecap="round" stroke-linejoin="round"/>
   <path d="M 282.881,-192.29 L 282.881,-185.035 L 286.891,-185.035 L 286.891,-192.29 C 286.891,-193.397 285.992,-194.295 284.886,-194.295 C 283.779,-194.295 282.881,-193.397 282.881,-192.29 Z M 129.577,-191.647 L 129.577,-185.035 L 133.587,-185.035 L 133.587,-191.647 C 133.587,-192.754 132.688,-193.652 131.582,-193.652 C 130.475,-193.652 129.577,-192.754 129.577,-191.647 Z M 155.415,-191.647 L 155.415,-185.035 L 159.425,-185.035 L 159.425,-191.647 C 159.425,-192.754 158.526,-193.652 157.42,-193.652 C 156.313,-193.652 155.415,-192.754 155.415,-191.647 Z M 180.464,-191.647 L 180.464,-185.035 L 184.474,-185.035 L 184.474,-191.647 C 184.474,-192.754 183.575,-193.652 182.469,-193.652 C 181.362,-193.652 180.464,-192.754 180.464,-191.647 Z M 206.482,-191.647 L 206.482,-185.035 L 210.492,-185.035 L 210.492,-191.647 C 210.492,-192.754 209.593,-193.652 208.487,-193.652 C 207.38,-193.652 206.482,-192.754 206.482,-191.647 Z M 257.832,-191.311 L 257.832,-185.035 L 261.842,-185.035 L 261.842,-191.311 C 261.842,-192.418 260.943,-193.316 259.837,-193.316 C 258.73,-193.316 257.832,-192.418 257.832,-191.311 Z M 231.572,-190.405 L 231.572,-185.035 L 235.582,-185.035 L 235.582,-190.405 C 235.582,-191.512 234.683,-192.41 233.577,-192.41 C 232.47,-192.41 231.572,-191.512 231.572,-190.405 Z M 129.577,-163.016 L 129.577,-141.229 C 129.577,-140.123 130.475,-139.224 131.582,-139.224 C 132.688,-139.224 133.587,-140.123 133.587,-141.229 L 133.587,-163.016 L 129.577,-163.016 Z M 155.415,-163.016 L 155.415,-120.603 C 155.415,-119.497 156.313,-118.598 157.42,-118.598 C 158.526,-118.598 159.425,-119.497 159.425,-120.603 L 159.425,-163.016 L 155.415,-163.016 Z M 180.464,-163.016 L 180.464,-126.181 C 180.464,-125.075 181.362,-124.176 182.469,-124.176 C 183.575,-124.176 184.474,-125.075 184.474,-126.181 L 184.474,-163.016 L 180.464,-163.016 Z M 206.482,-163.016 L 206.482,-147.311 C 206.482,-146.205 207.38,-145.306 208.487,-145.306 C 209.593,-145.306 210.492,-146.205 210.492,-147.311 L 210.492,-163.016 L 206.482,-163.016 Z M 231.572,-163.016 L 231.572,-132.917 C 231.572,-131.811 232.47,-130.912 233.577,-130.912 C 234.683,-130.912 235.582,-131.811 235.582,-132.917 L 235.582,-163.016 L 231.572,-163.016 Z M 257.832,-163.016 L 257.832,-124.176 C 257.832,-123.07 258.73,-122.171 259.837,-122.171 C 260.943,-122.171 261.842,-123.07 261.842,-124.176 L 261.842,-163.016 L 257.832,-163.016 Z M 282.881,-163.016 L 282.881,-146.668 C 282.881,-145.562 283.779,-144.663 284.886,-144.663 C 285.992,-144.663 286.891,-145.562 286.891,-146.668 L 286.891,-163.016 L 282.881,-163.016 Z" fill-rule="evenodd" stroke="none" stroke-width="0.5" marker-start="none" marker-end="none"/>
   <g id="Group_1" fill-rule="nonzero" stroke-linejoin="round" stroke-linecap="round" stroke="none" stroke-width="0.27">
    <g id="Group_2">
     <path d="M 111.579,-241.727 C 111.295,-241.727 111.186,-241.585 111.252,-241.301 L 118.324,-220.575 C 118.39,-220.378 118.532,-220.28 118.75,-220.28 L 122.941,-220.28 C 123.181,-220.28 123.334,-220.378 123.4,-220.575 L 130.505,-241.301 C 130.592,-241.585 130.494,-241.727 130.21,-241.727 L 126.739,-241.727 C 126.521,-241.727 126.379,-241.629 126.314,-241.432 L 122.09,-227.975 C 121.872,-227.254 121.659,-226.54 121.451,-225.83 C 121.244,-225.121 121.042,-224.406 120.846,-223.685 L 120.78,-223.685 C 120.584,-224.384 120.382,-225.088 120.174,-225.797 C 119.967,-226.507 119.754,-227.211 119.536,-227.909 L 115.41,-241.4 C 115.345,-241.618 115.192,-241.727 114.952,-241.727 L 111.579,-241.727 Z M 116.065,-237.241 L 116.818,-234.032 L 124.775,-234.032 L 125.561,-237.241 L 116.065,-237.241 Z" marker-start="none" marker-end="none"/>
     <path d="M 133.8,-241.727 C 133.56,-241.727 133.439,-241.596 133.439,-241.334 L 133.439,-220.673 C 133.439,-220.411 133.56,-220.28 133.8,-220.28 L 136.976,-220.28 C 137.238,-220.28 137.369,-220.411 137.369,-220.673 L 137.369,-241.334 C 137.369,-241.596 137.238,-241.727 136.976,-241.727 L 133.8,-241.727 Z" marker-start="none" marker-end="none"/>
     <path d="M 150.224,-241.727 C 149.984,-241.727 149.863,-241.596 149.863,-241.334 L 149.863,-220.673 C 149.863,-220.411 149.984,-220.28 150.224,-220.28 L 156.74,-220.28 C 159.315,-220.28 161.253,-220.717 162.552,-221.59 C 163.85,-222.463 164.5,-223.795 164.5,-225.584 C 164.5,-226.829 164.222,-227.822 163.665,-228.564 C 163.108,-229.306 162.208,-229.896 160.964,-230.332 L 160.964,-230.431 C 162.426,-230.692 163.534,-231.255 164.287,-232.117 C 165.04,-232.979 165.417,-234.141 165.417,-235.604 C 165.417,-237.743 164.729,-239.299 163.354,-240.27 C 161.979,-241.241 159.774,-241.727 156.74,-241.727 L 150.224,-241.727 Z M 153.793,-238.453 L 156.838,-238.453 C 158.497,-238.453 159.687,-238.218 160.407,-237.749 C 161.127,-237.279 161.487,-236.488 161.487,-235.375 C 161.487,-234.283 161.122,-233.487 160.391,-232.985 C 159.659,-232.482 158.486,-232.231 156.871,-232.231 L 153.793,-232.231 L 153.793,-238.453 Z M 153.793,-229.252 L 156.641,-229.252 C 158.017,-229.252 159.015,-229.012 159.637,-228.531 C 160.26,-228.051 160.571,-227.309 160.571,-226.305 C 160.571,-225.323 160.243,-224.613 159.588,-224.177 C 158.933,-223.74 157.864,-223.522 156.379,-223.522 L 153.793,-223.522 L 153.793,-229.252 Z" marker-start="none" marker-end="none"/>
     <path d="M 171.56,-247.785 C 171.254,-247.785 171.167,-247.632 171.298,-247.326 L 173.492,-241.596 L 167.5,-226.076 C 167.39,-225.77 167.489,-225.617 167.794,-225.617 L 171.167,-225.617 C 171.385,-225.617 171.527,-225.726 171.593,-225.945 L 173.95,-232.657 C 174.19,-233.334 174.419,-234.049 174.638,-234.802 C 174.856,-235.555 175.063,-236.313 175.26,-237.078 L 175.325,-237.078 C 175.544,-236.313 175.762,-235.56 175.98,-234.818 C 176.198,-234.076 176.428,-233.356 176.668,-232.657 L 179.025,-225.945 C 179.091,-225.726 179.233,-225.617 179.451,-225.617 L 182.725,-225.617 C 183.053,-225.617 183.162,-225.77 183.053,-226.076 L 175.031,-247.49 C 174.943,-247.686 174.801,-247.785 174.605,-247.785 L 171.56,-247.785 Z" marker-start="none" marker-end="none"/>
     <path d="M 198.663,-241.727 C 198.401,-241.727 198.27,-241.596 198.27,-241.334 L 198.27,-223.751 L 192.638,-223.751 C 192.376,-223.751 192.245,-223.62 192.245,-223.358 L 192.245,-220.673 C 192.245,-220.411 192.376,-220.28 192.638,-220.28 L 207.864,-220.28 C 208.126,-220.28 208.257,-220.411 208.257,-220.673 L 208.257,-223.358 C 208.257,-223.62 208.126,-223.751 207.864,-223.751 L 202.232,-223.751 L 202.232,-241.334 C 202.232,-241.596 202.101,-241.727 201.839,-241.727 L 198.663,-241.727 Z" marker-start="none" marker-end="none"/>
     <path d="M 222.161,-241.727 C 221.899,-241.727 221.768,-241.596 221.768,-241.334 L 221.768,-231.249 C 221.768,-230.332 221.588,-229.656 221.228,-229.219 C 220.867,-228.782 220.294,-228.564 219.508,-228.564 C 218.744,-228.564 217.975,-228.799 217.2,-229.268 C 216.425,-229.737 215.634,-230.42 214.826,-231.315 L 214.695,-228.433 C 215.306,-227.778 215.929,-227.211 216.562,-226.731 C 217.195,-226.25 217.866,-225.879 218.575,-225.617 C 219.285,-225.355 220.054,-225.224 220.884,-225.224 C 222.455,-225.224 223.64,-225.666 224.436,-226.55 C 225.233,-227.435 225.632,-228.793 225.632,-230.627 L 225.632,-241.334 C 225.632,-241.596 225.501,-241.727 225.239,-241.727 L 222.161,-241.727 Z M 211.879,-241.727 C 211.639,-241.727 211.519,-241.596 211.519,-241.334 L 211.519,-219.756 C 211.519,-219.494 211.639,-219.363 211.879,-219.363 L 214.99,-219.363 C 215.252,-219.363 215.383,-219.494 215.383,-219.756 L 215.383,-241.334 C 215.383,-241.596 215.252,-241.727 214.99,-241.727 L 211.879,-241.727 Z" marker-start="none" marker-end="none"/>
     <path d="M 236.955,-242.12 C 234.597,-242.12 232.829,-241.602 231.651,-240.565 C 230.472,-239.528 229.882,-237.983 229.882,-235.931 L 229.882,-231.871 C 229.882,-229.688 230.466,-228.035 231.634,-226.911 C 232.802,-225.786 234.565,-225.224 236.922,-225.224 C 239.236,-225.224 240.982,-225.77 242.161,-226.861 C 243.34,-227.953 243.929,-229.546 243.929,-231.642 L 243.929,-234.196 C 243.929,-234.458 243.798,-234.589 243.536,-234.589 L 233.713,-234.589 L 233.713,-235.571 C 233.713,-236.772 233.97,-237.651 234.483,-238.207 C 234.996,-238.764 235.831,-239.042 236.988,-239.042 C 237.883,-239.042 238.576,-238.9 239.067,-238.616 C 239.558,-238.333 239.804,-237.907 239.804,-237.339 C 239.804,-237.078 239.935,-236.947 240.197,-236.947 L 243.209,-236.947 C 243.449,-236.947 243.58,-237.067 243.602,-237.307 C 243.667,-238.878 243.127,-240.074 241.981,-240.892 C 240.835,-241.711 239.16,-242.12 236.955,-242.12 Z M 233.713,-231.97 L 240.131,-231.97 L 240.131,-231.806 C 240.131,-230.605 239.869,-229.721 239.345,-229.154 C 238.821,-228.586 238.025,-228.302 236.955,-228.302 C 235.842,-228.302 235.023,-228.591 234.499,-229.17 C 233.975,-229.748 233.713,-230.638 233.713,-231.839 L 233.713,-231.97 Z" marker-start="none" marker-end="none"/>
     <path d="M 256.022,-241.727 C 255.782,-241.727 255.661,-241.596 255.661,-241.334 L 255.661,-220.673 C 255.661,-220.411 255.782,-220.28 256.022,-220.28 L 262.538,-220.28 C 265.113,-220.28 267.051,-220.717 268.35,-221.59 C 269.648,-222.463 270.298,-223.795 270.298,-225.584 C 270.298,-226.829 270.02,-227.822 269.463,-228.564 C 268.906,-229.306 268.006,-229.896 266.762,-230.332 L 266.762,-230.431 C 268.224,-230.692 269.332,-231.255 270.085,-232.117 C 270.838,-232.979 271.215,-234.141 271.215,-235.604 C 271.215,-237.743 270.527,-239.299 269.152,-240.27 C 267.777,-241.241 265.572,-241.727 262.538,-241.727 L 256.022,-241.727 Z M 259.591,-238.453 L 262.636,-238.453 C 264.295,-238.453 265.485,-238.218 266.205,-237.749 C 266.925,-237.279 267.285,-236.488 267.285,-235.375 C 267.285,-234.283 266.92,-233.487 266.189,-232.985 C 265.457,-232.482 264.284,-232.231 262.669,-232.231 L 259.591,-232.231 L 259.591,-238.453 Z M 259.591,-229.252 L 262.439,-229.252 C 263.815,-229.252 264.813,-229.012 265.435,-228.531 C 266.058,-228.051 266.369,-227.309 266.369,-226.305 C 266.369,-225.323 266.041,-224.613 265.386,-224.177 C 264.731,-223.74 263.662,-223.522 262.177,-223.522 L 259.591,-223.522 L 259.591,-229.252 Z" marker-start="none" marker-end="none"/>
     <path d="M 284.79,-241.727 C 284.659,-241.727 284.566,-241.689 284.512,-241.613 C 284.457,-241.536 284.408,-241.432 284.364,-241.301 C 284.321,-241.083 284.266,-240.707 284.201,-240.172 C 284.135,-239.637 284.08,-239.14 284.037,-238.682 L 283.808,-237.339 L 283.808,-230.791 C 283.808,-229.874 283.622,-229.224 283.251,-228.842 C 282.88,-228.46 282.236,-228.269 281.319,-228.269 C 279.66,-228.269 278.852,-228.87 278.896,-230.07 C 278.896,-230.332 278.776,-230.463 278.536,-230.463 L 275.589,-230.463 C 275.327,-230.463 275.185,-230.267 275.163,-229.874 C 275.032,-228.411 275.529,-227.271 276.653,-226.452 C 277.777,-225.634 279.387,-225.224 281.483,-225.224 C 283.622,-225.224 285.188,-225.683 286.182,-226.6 C 287.175,-227.516 287.671,-228.935 287.671,-230.856 L 287.671,-237.667 C 287.671,-238.365 287.688,-239.02 287.721,-239.632 C 287.753,-240.243 287.802,-240.799 287.868,-241.301 C 287.912,-241.585 287.791,-241.727 287.508,-241.727 L 284.79,-241.727 Z M 278.536,-242.12 C 277.226,-242.12 276.222,-241.727 275.523,-240.941 C 274.825,-240.155 274.476,-239.031 274.476,-237.569 C 274.476,-236.434 274.694,-235.511 275.131,-234.802 C 275.567,-234.092 276.282,-233.536 277.275,-233.132 C 278.269,-232.728 279.595,-232.461 281.254,-232.33 L 284.299,-232.068 L 284.299,-234.425 L 281.581,-234.654 C 280.315,-234.764 279.442,-235.004 278.962,-235.375 C 278.481,-235.746 278.241,-236.346 278.241,-237.176 C 278.241,-237.809 278.372,-238.284 278.634,-238.6 C 278.896,-238.917 279.3,-239.075 279.846,-239.075 C 280.501,-239.075 281.166,-238.862 281.843,-238.436 C 282.52,-238.011 283.371,-237.252 284.397,-236.161 L 284.528,-238.78 C 283.873,-239.501 283.229,-240.112 282.596,-240.614 C 281.963,-241.116 281.319,-241.492 280.664,-241.743 C 280.009,-241.995 279.3,-242.12 278.536,-242.12 Z" marker-start="none" marker-end="none"/>
     <path d="M 294.633,-247.785 C 294.327,-247.785 294.24,-247.632 294.371,-247.326 L 296.565,-241.596 L 290.573,-226.076 C 290.463,-225.77 290.562,-225.617 290.867,-225.617 L 294.24,-225.617 C 294.458,-225.617 294.6,-225.726 294.666,-225.945 L 297.023,-232.657 C 297.263,-233.334 297.492,-234.049 297.711,-234.802 C 297.929,-235.555 298.136,-236.313 298.333,-237.078 L 298.398,-237.078 C 298.617,-236.313 298.835,-235.56 299.053,-234.818 C 299.271,-234.076 299.501,-233.356 299.741,-232.657 L 302.098,-225.945 C 302.164,-225.726 302.306,-225.617 302.524,-225.617 L 305.798,-225.617 C 306.126,-225.617 306.235,-225.77 306.126,-226.076 L 298.104,-247.49 C 298.016,-247.686 297.874,-247.785 297.678,-247.785 L 294.633,-247.785 Z" marker-start="none" marker-end="none"/>
    </g>
   </g>
  </g>
 </g>
</svg>
