<?xml version="1.0" encoding="UTF-8" standalone="no"?>
<!-- Created with Inkscape (http://www.inkscape.org/) -->

<svg
   version="1.1"
   id="svg2"
   xml:space="preserve"
   width="126.66667"
   height="128"
   viewBox="0 0 126.66667 128"
   sodipodi:docname="bbuzz-logo.svg"
   inkscape:version="1.1.2 (0a00cf5339, 2022-02-04)"
   xmlns:inkscape="http://www.inkscape.org/namespaces/inkscape"
   xmlns:sodipodi="http://sodipodi.sourceforge.net/DTD/sodipodi-0.dtd"
   xmlns="http://www.w3.org/2000/svg"
   xmlns:svg="http://www.w3.org/2000/svg"><defs
     id="defs6" /><sodipodi:namedview
     id="namedview4"
     pagecolor="#ffffff"
     bordercolor="#666666"
     borderopacity="1.0"
     inkscape:pageshadow="2"
     inkscape:pageopacity="0.0"
     inkscape:pagecheckerboard="0"
     showgrid="false"
     inkscape:zoom="5.6796875"
     inkscape:cx="63.383769"
     inkscape:cy="64"
     inkscape:window-width="1920"
     inkscape:window-height="1014"
     inkscape:window-x="0"
     inkscape:window-y="0"
     inkscape:window-maximized="1"
     inkscape:current-layer="g8" /><g
     id="g8"
     inkscape:groupmode="layer"
     inkscape:label="ink_ext_XXXXXX"
     transform="matrix(1.3333333,0,0,-1.3333333,0,128)"><g
       id="g10"
       transform="scale(0.1)"><path
         d="M 136.91,831.84 12.2695,914.488 C 5.12109,918.012 0.429688,925.078 0,933.051 0.308594,943.199 8.39844,951.449 18.5508,951.949 23.75,951.641 28.75,949.801 32.9297,946.68 L 177.191,850.738 c 7.688,-4.918 13.278,-9.097 12.969,-18.898 0,-10.16 -5.281,-14.031 -12.969,-18.91 L 33.2813,717.34 c -4.3321,-3.43 -9.5704,-5.5 -15.0821,-5.93 C 8.05078,712.07 0.121094,720.469 0,730.66 c 0.230469,7.621 4.69141,14.5 11.5586,17.86 z"
         style="fill:#ffffff;fill-opacity:1;fill-rule:nonzero;stroke:none"
         id="path12" /><path
         d="m 267.5,960 h 98.051 c 51.48,0 74.918,-31.48 74.918,-80.898 1.332,-21.012 -7.231,-41.481 -23.129,-55.313 19.961,-18.91 23.129,-37.5 23.129,-63.359 0,-45.899 -30.469,-72.852 -74.918,-72.852 H 267.5 Z m 35.039,-118.711 h 62.973 c 25.226,0 39.918,11.211 39.918,37.813 0,29.418 -8.051,45.898 -39.918,45.898 h -62.973 z m 0,-118.668 h 62.973 c 25.226,0 39.918,11.168 39.918,37.809 0,29.41 -8.051,45.859 -39.918,45.859 h -62.973 z"
         style="fill:#ffffff;fill-opacity:1;fill-rule:nonzero;stroke:none"
         id="path14" /><path
         d="m 682.031,722.621 c 10.039,0.899 18.438,-7.5 17.539,-17.543 0.899,-10 -7.5,-18.398 -17.539,-17.5 H 526.602 V 942.5 c 0,23.32 35,23.32 35,0 V 722.621 Z"
         style="fill:#ffffff;fill-opacity:1;fill-rule:nonzero;stroke:none"
         id="path16" /><path
         d="m 910,942.148 c 0.469,22.852 34.531,22.852 35,0 V 687.23 h -46.211 l -91.41,210.071 v 0.398 h -0.66 V 705.078 c -0.508,-22.848 -34.571,-22.848 -35.039,0 V 960 h 46.211 l 91.41,-212.539 h 0.347 z"
         style="fill:#ffffff;fill-opacity:1;fill-rule:nonzero;stroke:none"
         id="path18" /><path
         d="M 8.39844,618.441 H 106.449 c 51.481,0 74.922,-31.531 74.922,-80.902 1.328,-21.019 -7.23,-41.488 -23.09,-55.309 19.918,-18.91 23.09,-37.46 23.09,-63.402 0,-45.859 -30.473,-72.808 -74.922,-72.808 H 8.39844 Z M 43.3984,499.691 H 106.41 c 25.231,0 39.918,11.207 39.918,37.809 0,29.41 -8.047,45.898 -39.918,45.898 H 43.3984 Z m 0,-118.671 H 106.41 c 25.231,0 39.918,11.171 39.918,37.808 0,29.41 -8.047,45.863 -39.918,45.863 H 43.3984 Z"
         style="fill:#ffffff;fill-opacity:1;fill-rule:nonzero;stroke:none"
         id="path20" /><path
         d="M 440.469,595.621 314.77,381.02 h 108.199 c 9.652,0 17.5,-7.86 17.5,-17.5 0,-9.692 -7.848,-17.5 -17.5,-17.5 H 267.5 v 22.031 L 392.809,583.398 H 284.961 c -22.852,0.473 -22.852,34.532 0,35.043 h 155.508 z"
         style="fill:#ffffff;fill-opacity:1;fill-rule:nonzero;stroke:none"
         id="path22" /><path
         d="M 699.57,595.621 573.871,381.02 H 682.07 c 9.649,0 17.5,-7.86 17.5,-17.5 0,-9.692 -7.851,-17.5 -17.5,-17.5 H 526.602 v 22.031 L 651.949,583.398 H 544.102 c -22.891,0.473 -22.891,34.532 0,35.043 H 699.57 Z"
         style="fill:#ffffff;fill-opacity:1;fill-rule:nonzero;stroke:none"
         id="path24" /><path
         d="m 806.371,358.238 c -4.223,-7.34 -8.441,-12.218 -17.191,-12.218 -9.258,0.031 -16.879,7.218 -17.5,16.441 0.859,6.68 3.519,12.969 7.699,18.199 l 130.973,224.461 c 4.179,6.988 8.398,13.277 17.148,13.277 9.219,0.082 16.84,-7.226 17.148,-16.449 -0.039,-4.801 -1.367,-9.527 -3.828,-13.668 z"
         style="fill:#ffffff;fill-opacity:1;fill-rule:nonzero;stroke:none"
         id="path26" /><path
         d="m 116.602,4.41016 c -11.911,0 -18.9028,2.46875 -21.3715,15.03904 H 94.5313 C 92.0703,6.83984 85.0781,4.41016 73.1992,4.41016 h -26.25 c -12.2578,0 -15.4297,2.07031 -21.3594,12.57814 L 13.3203,38.3594 C 9.37891,43.4414 7.62109,49.8398 8.39844,56.2109 V 259.34 c -1.63672,10.269 7.22266,19.14 17.49996,17.5 10.2735,1.64 19.1407,-7.231 17.5,-17.5 V 56.25 L 52.8516,39.4492 H 67.9297 L 77.3789,56.25 v 110.309 c 0,10.82 4.9219,20.671 17.5,20.671 12.5821,0 17.5431,-9.808 17.5431,-20.671 V 56.25 l 9.457,-16.8008 h 15.031 l 9.461,16.8008 v 203.09 c -1.641,10.269 7.219,19.14 17.5,17.5 10.27,1.64 19.141,-7.231 17.539,-17.5 V 56.25 c 0.738,-6.3711 -1.019,-12.7695 -4.93,-17.8516 L 164.219,17.0313 C 158.238,6.51953 155.121,4.41016 142.852,4.41016 Z"
         style="fill:#ffffff;fill-opacity:1;fill-rule:nonzero;stroke:none"
         id="path28" /><path
         d="m 302.539,21.8789 c 0,-23.32812 -35.039,-23.32812 -35.039,0 V 276.801 h 117.621 c 27.649,0 55.348,-19.61 55.348,-50.781 v -24.141 c 0,-32.93 -27.309,-49.731 -55.348,-49.731 H 352.93 L 431.68,39.4102 c 4.691,-5.1914 7.73,-11.6407 8.75,-18.5508 C 440.27,11.2891 432.148,3.78906 422.578,4.41016 416.051,4.73047 410.23,8.44141 407.191,14.2188 L 310.551,152.148 H 302.5 Z m 0,165.2691 h 77.691 c 9.848,0 25.239,0.704 25.239,14.731 v 24.141 c 0,14.019 -14.379,15.742 -24.879,15.742 h -78.051 z"
         style="fill:#ffffff;fill-opacity:1;fill-rule:nonzero;stroke:none"
         id="path30" /><path
         d="m 560.898,241.801 h -12.929 c -11.559,0 -21.367,4.179 -21.367,17.5 0,12.609 9.449,17.5 20.308,17.5 h 58.481 c 27.308,0 40.98,-11.211 52.89,-35 l 30.821,-61.641 c 13.867,-24.5 14.019,-54.5 0.347,-79.109 L 657.578,37.3008 C 645.309,12.4219 629.57,4.37891 602.27,4.37891 h -58.129 c -23.36,0 -23.36,34.99999 0,34.99999 h 16.8 z M 595.941,39.4102 h 6.637 c 14.692,0 18.203,1.7617 24.492,14.7304 l 30.821,62.3084 c 4.058,6.91 6.328,14.723 6.64,22.77 -0.39,10.16 -3.402,20.043 -8.75,28.711 l -29.019,59.179 c -7.383,15.039 -10.512,14.692 -26.641,14.692 h -4.18 z"
         style="fill:#ffffff;fill-opacity:1;fill-rule:nonzero;stroke:none"
         id="path32" /><path
         d="m 925.391,73.0508 c 7.418,-7.9297 11.8,-18.25 12.269,-29.0703 0,-26.25 -19.961,-39.57034 -44.14,-39.57034 h -77 c -12.77,-0.78125 -25.391,3.21093 -35.348,11.21094 -9.961,7.9687 -15.942,19.8477 -16.524,32.5391 -1.25,11.1406 7.383,20.8984 18.551,21.0195 9.61,-0.1602 17.11,-8.2813 16.531,-17.8516 0,-10.5078 5.579,-11.9179 15.391,-11.9179 h 75.969 c 2.82,0 11.57,-1.0508 11.57,4.2187 0,2.7813 -4.93,8.0508 -6.332,10.1602 L 776.25,208.199 c -7.379,7.742 -11.52,18.012 -11.559,28.711 -0.16,13.68 6.911,26.41 18.547,33.602 8.75,5.187 18.953,7.418 29.063,6.328 h 74.258 c 12.582,0.66 25,-3.442 34.652,-11.57 9.769,-8.391 15.699,-20.43 16.488,-33.282 0,-11.207 -5.59,-20.308 -18.211,-20.308 -9.449,-0.782 -17.379,6.992 -16.789,16.441 0,11.918 -5.937,13.68 -16.801,13.68 H 811.68 c -3.871,0 -11.91,1.051 -11.91,-4.922 0,-3.168 3.859,-7.348 5.269,-9.457 z"
         style="fill:#ffffff;fill-opacity:1;fill-rule:nonzero;stroke:none"
         id="path34" /></g></g></svg>
