<svg width="133" height="43" viewBox="0 0 133 43" fill="none" xmlns="http://www.w3.org/2000/svg">
<g clip-path="url(#clip1_54_162)">
<path fill-rule="evenodd" clip-rule="evenodd" d="M25.1083 22.0386C25.1083 18.6415 26.9137 15.6586 30.2017 15.6586C30.7182 15.6586 31.3296 15.7698 31.8453 15.8798C31.5883 19.8006 28.6864 24.5225 26.4631 24.5225C25.5918 24.5225 25.1087 23.6122 25.1087 22.0382L25.1083 22.0386ZM34.9407 13.4497C33.5863 13.0902 32.0714 12.8419 30.3634 12.8419C25.0448 12.8419 20.6602 16.2111 20.6602 22.4519C20.6602 26.1523 22.6912 27.8374 25.4957 27.8374C28.2033 27.8374 30.6856 26.0976 32.0718 22.0653H32.2009C31.6852 23.7772 31.3626 25.7106 31.137 27.56H37.0039L37.2955 24.7437H35.2633L36.0702 16.3211C36.1668 15.3824 36.3273 14.388 36.5851 13.4497H34.9419H34.9407Z" fill="white"/>
<path d="M49.6814 27.5605H54.71L55.0004 24.7446H52.7764L49.6814 20.3268L55.8062 15.7703L56.0966 13.1178H49.4565L49.1653 15.7703H51.4224L48.1987 18.2542L44.588 13.1178H39.559L39.269 15.9349H41.493L44.6528 20.4368L38.5932 24.91L38.3027 27.5605H45.1375L45.4263 24.91H42.9762L46.1351 22.5074L49.6814 27.5605Z" fill="white"/>
<path d="M10.6379 34.8245L12.2811 34.1612C15.957 32.6698 17.9554 30.4609 18.5032 25.1862L19.7277 13.1178H13.4742L13.1838 15.9353H15.2148L14.3765 24.468C13.9577 28.6103 12.9903 30.9858 9.15479 32.3386L10.6379 34.8245Z" fill="white"/>
<path fill-rule="evenodd" clip-rule="evenodd" d="M56.9668 12.5693C56.9668 13.1085 57.3996 13.4565 57.8843 13.4565C58.3691 13.4565 58.8015 13.1089 58.8015 12.5693C58.8015 12.0296 58.3691 11.686 57.8843 11.686C57.3996 11.686 56.9668 12.0316 56.9668 12.5693ZM57.2106 12.5693C57.2106 12.1667 57.5086 11.8758 57.8843 11.8758C58.2544 11.8758 58.5577 12.1663 58.5577 12.5693C58.5577 12.9722 58.2548 13.2672 57.8843 13.2672C57.5086 13.2672 57.2106 12.9726 57.2106 12.5693ZM57.5284 13.0631H57.7271V12.6398H57.8514L58.0939 13.0631H58.3015L58.0344 12.6307C58.1828 12.6187 58.2975 12.5474 58.2975 12.3664C58.2975 12.1496 58.1567 12.0719 57.9053 12.0719H57.5279V13.0635L57.5284 13.0631ZM57.7271 12.2253H57.8944C57.9853 12.2253 58.1 12.2424 58.1 12.3493C58.1 12.47 58.0163 12.4864 57.9033 12.4864H57.7275V12.2257L57.7271 12.2253Z" fill="white"/>
<path d="M63.3051 13.1453H67.3779L64.974 24.2854H69.4154L68.7227 27.5553H60.2085L63.3051 13.1453Z" fill="#03D4D9"/>
<path d="M78.4749 12.863C83.7099 12.863 83.0587 15.8906 82.1005 20.3502C81.1029 24.9513 80.4931 27.8374 75.2581 27.8374C70.0231 27.8374 70.6349 24.9513 71.6329 20.3502C72.5895 15.8906 73.2416 12.863 78.4749 12.863ZM77.9053 15.5263C77.0296 15.5263 76.7247 16.1317 75.8285 20.3502C74.9113 24.5675 74.9528 25.1734 75.8285 25.1734C76.7042 25.1734 76.9898 24.5679 77.9053 20.3502C78.8024 16.1317 78.7819 15.5263 77.9053 15.5263Z" fill="#03D4D9"/>
<path d="M92.2834 13.1453H96.1117L93.0175 27.5553H88.6578L88.3111 18.6747H88.2717L86.3557 27.5553H82.6489L85.7451 13.1453H90.1655L90.3481 21.9446H90.3892L92.2834 13.1453Z" fill="#03D4D9"/>
<path d="M98.5741 13.1453H104.44C106.252 13.1453 107.271 13.8519 107.679 15.0213C108.065 16.1521 108.044 16.9186 107.312 20.3503C106.64 23.4982 105.642 27.5553 101.405 27.5553H95.4775L98.5741 13.1453ZM100.183 24.6489H101.017C102.036 24.6489 102.423 23.5396 102.668 22.4491L103.565 18.2514C103.869 16.7986 103.869 16.0517 102.606 16.0517H102.017L100.184 24.6485L100.183 24.6489Z" fill="#03D4D9"/>
<path d="M116.005 12.863C121.24 12.863 120.588 15.8906 119.631 20.3502C118.632 24.9513 118.022 27.8374 112.787 27.8374C107.552 27.8374 108.164 24.9513 109.162 20.3502C110.118 15.8906 110.771 12.863 116.005 12.863ZM115.434 15.5263C114.559 15.5263 114.254 16.1317 113.358 20.3502C112.441 24.5675 112.483 25.1734 113.358 25.1734C114.233 25.1734 114.519 24.5679 115.434 20.3502C116.332 16.1317 116.311 15.5263 115.434 15.5263Z" fill="#03D4D9"/>
<path d="M129.813 13.1453H133.641L130.545 27.5553H126.187L125.841 18.6747H125.8L123.885 27.5553H120.179L123.273 13.1453H127.693L127.878 21.9446H127.917L129.813 13.1453H129.813Z" fill="#03D4D9"/>
<path d="M27.5315 37.9409C27.6019 37.3917 27.7821 36.8795 28.05 36.4247L20.6991 31.0639C20.173 30.6813 20.7522 29.9001 21.2776 30.2827L28.6397 35.6507C29.4647 34.8013 30.6478 34.3151 31.894 34.4331C34.0283 34.6331 35.5376 36.5291 35.2641 38.6675C34.9897 40.8058 33.0376 42.3766 30.9008 42.1757C28.7664 41.9748 27.2571 40.0792 27.5315 37.9409Z" fill="#03D4D9"/>
<path d="M22.547 10.578L34.9546 5.17296C34.8355 4.7142 34.8009 4.22356 34.8657 3.71936C35.14 1.58102 37.0922 0.0102429 39.2282 0.210725C41.3634 0.412004 42.8722 2.30801 42.5979 4.44676C42.3244 6.5847 40.371 8.15548 38.2354 7.9546C36.9538 7.83383 35.8983 7.10245 35.3174 6.07373L22.9408 11.4664C22.3434 11.7267 21.9504 10.8387 22.5466 10.5784L22.547 10.578Z" fill="#03D4D9"/>
<path d="M0.673052 18.5105C0.946989 16.3714 2.89955 14.801 5.03553 15.0011C6.30104 15.121 7.3465 15.8357 7.93179 16.8437L11.5855 15.2578C12.1841 14.9975 12.5767 15.8855 11.9797 16.1458L8.30629 17.7413C8.43381 18.2116 8.47162 18.7166 8.40685 19.2367C8.33847 19.7608 8.17073 20.2515 7.92374 20.6895L13.4552 24.6979C13.9821 25.0806 13.4029 25.8622 12.8759 25.4791L7.34811 21.4739C6.52268 22.3567 5.3151 22.8657 4.04397 22.7461C1.90879 22.5453 0.399919 20.6488 0.673052 18.5105Z" fill="#03D4D9"/>
</g>
<defs>
<clipPath id="clip0_54_162">
<rect width="90" height="20" fill="white" transform="translate(141.265 12.1932)"/>
</clipPath>
<clipPath id="clip1_54_162">
<rect width="133" height="42" fill="white" transform="translate(0.641602 0.193237)"/>
</clipPath>
</defs>
</svg>
