<svg width="470" viewBox="0 0 470 138" fill="none" xmlns="http://www.w3.org/2000/svg">
<path d="M267.385 136.619C258.776 136.619 251.019 135.301 244.173 132.664C237.327 130.028 231.509 126.131 226.779 121.004C222.019 115.877 218.376 109.637 215.849 102.254C213.292 94.8717 212.029 86.3757 212.029 76.7958C212.029 67.2158 213.498 58.7198 216.436 51.337C219.375 43.9543 223.371 37.7141 228.454 32.5872C233.537 27.4603 239.501 23.5932 246.348 20.9272C253.194 18.2905 260.539 16.9722 268.384 16.9722C273.144 16.9722 277.434 17.3237 281.312 18.0561C285.191 18.7886 288.541 19.5796 291.42 20.4585C294.299 21.3374 296.679 22.2748 298.56 23.2709C300.44 24.267 301.763 24.9701 302.526 25.4096L296.386 42.4309C293.741 40.7903 289.951 39.2083 285.044 37.7141C280.137 36.22 274.79 35.4876 269.06 35.4876C264.094 35.4876 259.452 36.3372 255.133 38.0364C250.814 39.7356 247.082 42.3137 243.938 45.7121C240.794 49.1398 238.326 53.4171 236.563 58.6026C234.8 63.7881 233.919 69.7939 233.919 76.62C233.919 82.6844 234.595 88.2507 236.005 93.319C237.386 98.3873 239.501 102.782 242.381 106.473C245.26 110.165 248.904 113.036 253.311 115.057C257.718 117.108 263.037 118.104 269.236 118.104C276.641 118.104 282.664 117.372 287.306 115.877C291.949 114.383 295.534 112.977 298.09 111.659L303.731 128.68C302.409 129.559 300.617 130.438 298.354 131.317C296.092 132.196 293.418 133.045 290.303 133.895C287.218 134.715 283.722 135.389 279.873 135.887C276.024 136.385 271.851 136.619 267.444 136.619H267.385Z" fill="#fff"/>
<path d="M386.677 90.8289C386.677 97.655 385.678 103.895 383.71 109.52C381.712 115.145 378.891 119.92 375.248 123.905C371.604 127.86 367.197 130.965 362.055 133.162C356.913 135.36 351.242 136.473 345.072 136.473C338.902 136.473 333.231 135.36 328.177 133.162C323.094 130.965 318.716 127.86 315.073 123.905C311.429 119.95 308.579 115.145 306.522 109.52C304.466 103.895 303.467 97.6843 303.467 90.8289C303.467 83.9735 304.495 77.7919 306.522 72.2256C308.579 66.6592 311.429 61.8839 315.131 57.9288C318.834 53.9738 323.212 50.8977 328.324 48.759C333.407 46.6204 338.99 45.5364 345.072 45.5364C351.154 45.5364 356.766 46.6204 361.908 48.759C367.05 50.8977 371.428 53.9738 375.071 57.9288C378.715 61.8839 381.565 66.6592 383.622 72.2256C385.678 77.7919 386.677 84.0028 386.677 90.8289V90.8289ZM366.11 90.8289C366.11 82.245 364.259 75.4189 360.556 70.4092C356.854 65.3995 351.683 62.8799 345.072 62.8799C338.461 62.8799 333.26 65.3995 329.558 70.4092C325.856 75.4189 324.005 82.2157 324.005 90.8289C324.005 99.4421 325.856 106.415 329.558 111.483C333.26 116.551 338.432 119.1 345.072 119.1C351.712 119.1 356.854 116.581 360.556 111.483C364.259 106.415 366.11 99.53 366.11 90.8289V90.8289Z" fill="#fff"/>
<path d="M396.403 50.5168C400.281 49.4035 405.306 48.3781 411.476 47.3821C417.676 46.386 424.522 45.8879 432.044 45.8879C439.125 45.8879 445.031 46.8547 449.791 48.7883C454.55 50.7219 458.341 53.4172 461.161 56.8742C463.982 60.3311 465.98 64.5206 467.126 69.4424C468.272 74.3349 468.86 79.7255 468.86 85.5555V134.159H448.792V88.7195C448.792 84.0907 448.498 80.1649 447.881 76.913C447.264 73.6611 446.265 71.0244 444.884 68.9736C443.503 66.9229 441.622 65.458 439.242 64.5206C436.862 63.5831 433.953 63.1143 430.545 63.1143C427.989 63.1143 425.345 63.2901 422.583 63.6124C419.821 63.9346 417.764 64.2276 416.442 64.4327V134.188H396.374V50.5168H396.403Z" fill="#fff"/>
<path d="M110.484 0.331787H146.477L91.6791 97.3327C90.9151 98.8561 89.7692 100.057 88.2414 100.878C86.7135 101.698 85.1562 102.108 83.6283 102.108H70.5826C68.4083 102.108 66.616 101.522 65.2056 100.38C63.7953 99.237 62.9138 98.2116 62.5319 97.3034L48.5165 69.7647V129.061C48.5165 130.467 48.017 131.668 46.9886 132.694C45.9603 133.719 44.7556 134.217 43.3452 134.217H8.61537C7.20502 134.217 6.00035 133.719 4.97197 132.694C3.94359 131.668 3.44409 130.467 3.44409 129.061V5.48798C3.44409 4.08175 3.94359 2.88059 4.97197 1.85521C6.00035 0.829829 7.20502 0.331787 8.61537 0.331787H43.7272C47.3118 0.331787 50.0738 2.06028 51.9836 5.48798L77.1055 51.3957L102.227 5.48798C104.137 2.03099 106.899 0.331787 110.484 0.331787Z" fill="#fff"/>
<path d="M199.101 96.5417C198.072 95.5163 196.868 95.0183 195.457 95.0183H150.884V5.48799C150.884 4.08176 150.355 2.8806 149.356 1.85522C149.121 1.62085 148.886 1.44507 148.622 1.23999L105.753 77.2939V129.061C105.753 130.467 106.253 131.668 107.281 132.694C108.309 133.719 109.514 134.217 110.924 134.217H195.457C196.868 134.217 198.072 133.719 199.101 132.694C200.129 131.668 200.629 130.467 200.629 129.061V100.175C200.629 98.7683 200.129 97.5671 199.101 96.5417Z" fill="#fff"/>
</svg>
