<svg xmlns="http://www.w3.org/2000/svg" role="img" viewBox="18.90 -2.10 1461.20 330.20"><title>ossIndia25_logo_black.svg</title><defs><style>.cls-1{fill:#fff}</style></defs><path d="M138.86347 208.2005c-50.08084 0-90.81851-40.74241-90.81851-90.81828 0-50.08099 40.73767-90.8234 90.81851-90.8234 50.07587 0 90.81847 40.74241 90.81847 90.8234h-32.27041c0-32.28777-26.26285-58.5531-58.54806-58.5531s-58.5481 26.26534-58.5481 58.5531c0 32.28265 26.26285 58.54798 58.5481 58.54798v32.2703z" class="cls-1"/><path d="M138.86347 300.26019c-50.08084 0-90.81851-40.74241-90.81851-90.82069h32.27041c0 32.28506 26.26285 58.55039 58.5481 58.55039s58.54806-26.26534 58.54806-58.55039-26.26285-58.55069-58.54806-58.55069v-32.26789c50.07587 0 90.81847 40.74001 90.81847 90.81858s-40.7426 90.82069-90.81847 90.82069m170.99612-177.70695c52.37031 0 52.37031 78.44817 0 78.44817s-52.37034-78.44817 0-78.44817m0 15.64651c-30.44225 0-30.44225 47.04884 0 47.04884s30.44222-47.04884 0-47.04884m56.7443 61.73704V123.9362h29.90938c29.59353 0 29.48744 46.94253 0 46.94253H381.8238v29.05806h-15.2199zm28.63387-43.85377c10.21896 0 10.21896-17.03067 0-17.03067H381.8238v17.03067h13.41396zM433.993 199.937v-76.109h38.108v15.225h-22.886v15.22h20.011v15.222h-20.011v15.22h24.164v15.222h-39.386zm72.069 0H490.84v-77.703h4.046l38.426 44.705v-43.003h15.329v77.595h-4.047l-38.532-43v41.406zm94.74911-20.86292c8.7263 6.17542 18.20017 6.38503 21.71584 6.06941 4.46803-.32074 8.30452-3.51341 7.8752-7.66318-.31826-4.3642-3.61934-6.28113-7.8752-7.7713-11.92371-4.36451-22.56701-10.43361-22.56701-23.20609s8.83487-22.5646 21.50126-23.20609c3.94001-.20991 9.15561-.20991 18.94774 3.19237l-1.917 14.6894c-8.40804-3.40469-13.1993-3.29838-15.54057-3.19237-5.42777.32315-7.8752 4.25819-7.55695 8.51669.42434 4.25819 4.14977 6.17512 8.5142 7.66529 11.81763 4.36451 22.03417 11.17629 22.03417 23.3121 0 12.66646-8.72638 22.35017-22.99143 23.09526-4.25834.32074-13.73222-.21232-24.05478-5.53394l1.91452-15.96755zm97.72434-56.52084c52.36782 0 52.36782 78.44817 0 78.44817s-52.37038-78.44817 0-78.44817m0 15.64651c-30.44478 0-30.44478 47.04884 0 47.04884 30.44222 0 30.44222-47.04884 0-47.04884m56.31822 35.23468v-49.60454h15.2248v49.49612c0 15.96755 24.69129 15.96755 24.69129 0v-49.49612h15.11382v49.60454c0 36.18848-55.02991 36.18848-55.02991 0m112.94499 26.50236l-15.32847-29.05806h-7.34221v29.05806h-15.22239v-76.1069h30.01787c27.14369 0 29.80081 38.21141 7.45086 44.70757l17.66974 31.39932h-17.2454zm-22.67069-43.85377h13.40899c10.32994 0 10.32994-17.03067 0-17.03067h-13.40899v17.03067z" class="cls-1"/><path d="M933.5891 138.19975c-30.12403 0-30.12403 46.40977 0 46.40977 6.59713 0 11.81514-1.91452 14.6894-3.40469l2.02309 15.75041c-4.68269 1.91693-11.38839 3.19508-16.71249 3.19508-51.62281 0-51.51921-77.27633 0-77.27633 5.3241 0 10.43113.95711 15.00766 2.97793l-1.80843 15.64892c-2.87418-1.49017-6.6021-3.30109-13.19923-3.30109M965.638 199.937v-76.109h38.105v15.225H980.86v15.22h20.009v15.222H980.86v15.22h24.158v15.222h-39.38zm88.67846-20.86292c8.7263 6.17542 18.20507 6.38503 21.71577 6.06941 4.46811-.32074 8.30211-3.51341 7.8752-7.66318-.31818-4.3642-3.61686-6.28113-7.8752-7.7713-11.92364-4.36451-22.56701-10.43361-22.56701-23.20609s8.83487-22.5646 21.50133-23.20609c3.94001-.20991 9.15305-.20991 18.94774 3.19237l-1.91708 14.6894c-8.40797-3.40469-13.19682-3.29838-15.5405-3.19237-5.42537.32315-7.8752 4.25819-7.55702 8.51669.42434 4.25819 4.15233 6.17512 8.51669 7.66529 11.81522 4.36451 22.03169 11.17629 22.03169 23.3121 0 12.66646-8.7263 22.35017-22.99136 23.09526-4.25834.32074-13.72973-.21232-24.05734-5.53394l1.91708-15.96755zm60.67949-5.63965v-49.60454h15.22231v49.49612c0 15.96755 24.6937 15.96755 24.6937 0v-49.49612h15.11389v49.60454c0 36.18848-55.02991 36.18848-55.02991 0M1254.979 122.659h4.791v77.279h-15.435l.104-42.472-19.481 20.438-19.475-20.438v42.472h-15.435v-77.279h4.897l30.013 33.423 30.021-33.423zm90.063 0h4.791v77.279h-15.435l.104-42.472-19.481 20.438-19.475-20.438v42.472h-15.432v-77.279h4.894l30.013 33.423 30.021-33.423zm25.129 1.169h15.222v76.109h-15.222zm48.114 76.109v-60.884h-18.948v-15.117h53.118v15.117h-18.945v60.884h-15.225zM944.21041 62.61718c.16775 0 .25162.08403.25162.25418v3.04208c0 .16775-.08387.25178-.25162.25178h-7.3127v24.11139c0 .17257-.08387.25418-.25411.25418h-3.03952c-.16775 0-.25162-.08162-.25162-.25418V66.16522h-7.32994c-.17023 0-.25411-.08403-.25411-.25178v-3.04208c0-.17016.08387-.25418.25411-.25418h18.1879zm28.33677 0c.16775 0 .25162.08403.25162.25418v27.40525c0 .17257-.08387.25418-.25162.25418h-3.06422c-.16534 0-.2517-.08162-.2517-.25418V78.30855h-13.04134v11.92861c0 .17016-.08387.25418-.2517.25418h-3.06173c-.16775 0-.25162-.08403-.25162-.25418V62.83191c0-.17016.08387-.25418.25162-.25418h3.06173c.16783 0 .2517.08403.2517.25418v11.91144h13.04134V62.87136c0-.17016.08636-.25418.2517-.25418h3.06422zm29.56838 0c.16775 0 .25162.08403.25162.25418v3.04208c0 .16775-.08387.25178-.25162.25178h-14.83757v8.63505h10.74442c.16534 0 .25418.08372.25418.25147v3.04208c0 .17016-.08884.25418-.25418.25418h-10.74442v8.63746h14.83757c.16775 0 .25162.08372.25162.25147v3.03967c0 .17257-.08387.25418-.25162.25418h-18.12872c-.16775 0-.25418-.08162-.25418-.25418V62.87135c0-.17016.08643-.25418.25418-.25418h18.12872zm38.60534 24.3457c.16775 0 .25162.08403.25162.25418v3.06196c0 .17016-.08387.25388-.25162.25388h-15.51595c-.17031 0-.25418-.08372-.25418-.25388V62.85148c0-.16775.08387-.25178.25418-.25178h3.05925c.17016 0 .25403.08403.25403.25178v24.11139h12.20267zm8.82598-24.3457h3.06166c.14029 0 .25418.1139.25418.25418v27.40766c0 .13896-.11282.25178-.25178.25178h-3.06407c-.14029 0-.25418-.1139-.25418-.25418V62.87137c0-.14029.1139-.25418.25418-.25418zm34.08799-.01927c.17257 0 .25162.08403.25162.25418v27.42754c0 .16775-.07906.25147-.25162.25147h-1.38416c-.0765 0-.14064-.03192-.19245-.09607l-14.87688-19.86555v19.71015c0 .16775-.08387.25147-.25178.25147h-2.88653c-.16534 0-.25162-.08372-.25162-.25147V62.85209c0-.17016.08628-.25418.25162-.25418h1.28794c.07891 0 .14546.03975.19245.11866l14.9731 19.97909V62.8521c0-.17016.08387-.25418.25418-.25418h2.88412zm30.54386.01927c.17257 0 .25644.08403.25644.25418v17.64023c0 2.72857-.96464 5.06743-2.88653 7.01899-1.9243 1.94915-4.24841 2.94842-6.97954 3.00022-2.79287.04939-5.19091-.94265-7.19186-2.98275-2.0008-2.0133-2.99992-4.43106-2.99992-7.25119v-17.4255c0-.17016.08131-.25418.25162-.25418h3.03952c.17016 0 .25659.08403.25659.25418v17.46495c0 1.76664.5945 3.30109 1.79104 4.60152 1.22379 1.29773 2.70402 1.98107 4.44341 2.04763 1.83305.06174 3.41463-.5427 4.7369-1.81573 1.32739-1.28809 1.98604-2.83729 1.98604-4.65814V62.87136c0-.17016.08884-.25418.25659-.25418h3.03967zm30.01502.01898c.09125 0 .16278.04457.21458.13583.04939.07891.04939.16534 0 .25178l-8.53882 13.58894 8.50178 13.52991c.04683.09125.04683.17528 0 .25178-.05421.09125-.12574.13552-.21714.13552h-3.53043c-.08884 0-.15796-.03704-.21217-.11595l-6.60714-10.52728-6.58967 10.52728c-.0518.07891-.12333.11595-.21473.11595h-3.53043c-.08884 0-.15796-.04427-.21217-.13552-.0518-.0765-.0518-.16052 0-.25178l8.49937-13.52991-8.53882-13.58894c-.0518-.08643-.0518-.17287 0-.25178.03945-.09125.11098-.13583.21714-.13583h3.50829c.1036 0 .17513.03975.21458.11866l6.64644 10.5839 6.66632-10.5839c.03704-.07891.10857-.11866.21458-.11866h3.50844zm25.31304 3.50889v8.59559h10.56673c.16534 0 .25162.08643.25162.25178v3.06407c0 .16805-.08628.25178-.25162.25178h-10.56673v11.97077c0 .16775-.08403.25147-.25178.25147h-3.06422c-.16519 0-.25403-.08372-.25403-.25147V62.83192c0-.16775.08884-.25659.25403-.25659h16.93957c.17272 0 .25418.08884.25418.25659v3.06166c0 .16775-.08147.25147-.25418.25147h-13.62357zm33.3271-3.52787c3.8462 0 7.13494 1.36188 9.8611 4.09556 2.73369 2.72616 4.09556 6.0149 4.09556 9.8611s-1.36188 7.13253-4.09556 9.86381c-2.72616 2.72857-6.0149 4.09526-9.8611 4.09526s-7.13509-1.36669-9.86125-4.09526c-2.73369-2.73128-4.09556-6.01761-4.09556-9.86381s1.36188-7.13494 4.09556-9.8611c2.72616-2.73369 6.0149-4.09556 9.86125-4.09556m0 24.3457c2.85943 0 5.30927-1.01132 7.34952-3.03937 2.02565-2.02806 3.03967-4.47805 3.03967-7.34967 0-2.85958-1.01403-5.30686-3.03967-7.34726-2.04025-2.03046-4.49009-3.04449-7.34952-3.04449-2.87177 0-5.32417 1.01403-7.34967 3.04449-2.02565 2.0404-3.03967 4.48768-3.03967 7.34726 0 2.87162 1.01403 5.32161 3.03967 7.34967 2.0255 2.02806 4.4779 3.03937 7.34967 3.03937m43.0373-24.3457c.17257 0 .25644.08403.25644.25418v17.64023c0 2.72857-.96464 5.06743-2.88653 7.01899-1.9243 1.94915-4.25082 2.94842-6.97954 3.00022-2.79287.04939-5.19091-.94265-7.19186-2.98275-2.0008-2.0133-2.99992-4.43106-2.99992-7.25119v-17.4255c0-.17016.08131-.25418.25162-.25418h3.03952c.16775 0 .25659.08403.25659.25418v17.46495c0 1.76664.5945 3.30109 1.79104 4.60152 1.22379 1.29773 2.70402 1.98107 4.44341 2.04763 1.83305.06174 3.41463-.5427 4.7369-1.81573 1.32739-1.28809 1.98604-2.83729 1.98604-4.65814V62.87136c0-.17016.08884-.25418.25659-.25418h3.03967zm30.7348-.01927c.17257 0 .25162.08403.25162.25418v27.42754c0 .16775-.07906.25147-.25162.25147h-1.38416c-.0765 0-.14064-.03192-.19245-.09607l-14.87688-19.86555v19.71015c0 .16775-.08387.25147-.25178.25147h-2.88653c-.16534 0-.25162-.08372-.25162-.25147V62.85209c0-.17016.08628-.25418.25162-.25418h1.28794c.07891 0 .14546.03975.19245.11866l14.9731 19.97909V62.8521c0-.17016.08387-.25418.25418-.25418h2.88412zm20.29019-.03765c3.91035 0 7.23854 1.39651 9.97961 4.18923 2.75326 2.79543 4.093 6.14832 4.0141 10.05625-.07906 3.8215-1.50749 7.06597-4.28545 9.73039-2.78308 2.66201-6.09636 3.99678-9.94271 3.99678h-8.61532c-.17016 0-.25403-.08372-.25403-.25388V62.81204c0-.16775.08387-.25178.25403-.25178h8.84978zm0 24.40262c2.88397 0 5.33878-1.01885 7.36684-3.05925 2.0404-2.04281 3.06181-4.49762 3.06181-7.36924 0-2.86921-1.02141-5.32673-3.06181-7.36955-2.02806-2.02535-4.48286-3.03937-7.36684-3.03937h-5.53634v20.83741h5.53634zm35.16361-24.40563c.11836 0 .19485.05421.2319.1554l11.40322 27.46699c.04186.07891.03207.1554-.01491.2319-.05421.07891-.12333.11836-.21699.11836h-3.11858c-.11836 0-.19485-.0518-.23431-.15299l-4.46314-10.76189h-9.88594l-4.46299 10.76189c-.03945.10119-.11354.15299-.2319.15299h-3.11858c-.08884 0-.16519-.03945-.21217-.11836-.05421-.0765-.06159-.15299-.02214-.2319l11.40322-27.46699c.0518-.10119.1283-.1554.23431-.1554h2.70899zm2.16373 13.66543l-3.50844-8.47694-3.52802 8.47694h7.03646zm33.62058-13.6055c.16775 0 .25162.08403.25162.25418v3.04208c0 .16775-.08387.25178-.25162.25178h-7.31278v24.11139c0 .17257-.08387.25418-.25403.25418h-3.03952c-.16775 0-.25162-.08162-.25162-.25418V66.16522h-7.32994c-.17031 0-.25418-.08403-.25418-.25178v-3.04208c0-.17016.08387-.25418.25418-.25418h18.1879zm8.67043 0h3.06181c.14029 0 .25418.1139.25418.25418v27.40766c0 .13896-.11282.25178-.25178.25178h-3.06407c-.14029 0-.25418-.1139-.25418-.25418v-27.4054c0-.14021.11383-.25403.25403-.25403zm26.19427 0c3.8462 0 7.13494 1.36188 9.8611 4.09556 2.73369 2.72616 4.09556 6.0149 4.09556 9.8611s-1.36188 7.13253-4.09556 9.86381c-2.72616 2.72857-6.0149 4.09526-9.8611 4.09526s-7.13509-1.36669-9.86125-4.09526c-2.73369-2.73128-4.09556-6.01761-4.09556-9.86381s1.36188-7.13494 4.09556-9.8611c2.72616-2.73369 6.0149-4.09556 9.86125-4.09556m0 24.3457c2.85943 0 5.30927-1.01132 7.34952-3.03937 2.02565-2.02806 3.03967-4.47805 3.03967-7.34967 0-2.85958-1.01403-5.30686-3.03967-7.34726-2.04025-2.03046-4.49009-3.04449-7.34952-3.04449-2.87177 0-5.32417 1.01403-7.34967 3.04449-2.02565 2.0404-3.03967 4.48768-3.03967 7.34726 0 2.87162 1.01403 5.32161 3.03967 7.34967 2.0255 2.02806 4.4779 3.03937 7.34967 3.03937m43.52203-24.36497c.17257 0 .25162.08403.25162.25418v27.42754c0 .16775-.07906.25147-.25162.25147h-1.38416c-.0765 0-.14064-.03192-.19245-.09607l-14.87688-19.86555v19.71015c0 .16775-.08387.25147-.25178.25147h-2.88653c-.16534 0-.25162-.08372-.25162-.25147V62.85209c0-.17016.08628-.25418.25162-.25418h1.28794c.07891 0 .14546.03975.19245.11866l14.9731 19.97909V62.8521c0-.17016.08387-.25418.25418-.25418h2.88412z" class="cls-1"/><path fill="#231f20" d="M279.84082 287.08491v-55.94629h11.18945v55.94629h-11.18945zm38.88965 0h-11.18945v-57.12012h2.97314l28.24756 32.86328v-31.61133h11.26758v57.04199h-2.97363l-28.3252-31.6123v30.43848zm64.47851 0h-16.6665v-55.94629h16.6665c37.24561 0 37.24561 55.94629 0 55.94629zm-5.47705-44.75781v33.56836h5.47705c21.75293 0 21.75293-33.56836 0-33.56836h-5.47705zm47.81202 44.75781v-55.94629h11.18945v55.94629h-11.18945zm46.24414-57.98144h1.17383l23.55225 57.98145h-12.59766l-2.26904-6.02539h-18.54443l-2.19141 6.02539h-12.67578l23.55225-57.98145zm5.7124 41.47168l-5.08643-14.55469-5.24268 14.55469h10.3291z"/></svg>