<?xml version="1.0" standalone="no"?>
<!DOCTYPE svg PUBLIC "-//W3C//DTD SVG 1.1//EN" "http://www.w3.org/Graphics/SVG/1.1/DTD/svg11.dtd">
<!--Generator: Xara Designer (www.xara.com), SVG filter version: 6.6.0.13-->
<svg fill="none" fill-rule="evenodd" stroke="black" stroke-linejoin="bevel" stroke-miterlimit="10" font-family="Times New Roman" font-size="16" style="font-variant-ligatures:none" xmlns:xlink="http://www.w3.org/1999/xlink" xmlns="http://www.w3.org/2000/svg" version="1.1" overflow="visible" width="715.099pt" height="70.56pt" viewBox="19.5 -91.659 715.099 70.56">
 <defs>
	</defs>
 <g id="Layer 1" transform="scale(1 -1)" stroke-width="0.501">
  <g id="Group" fill="#ffffff" fill-rule="nonzero" stroke-linejoin="miter" stroke="none" stroke-width="0.75" stroke-miterlimit="4">
   <g id="Group_1">
    <path d="M 19.5,53.4 L 64.7,33.199 L 64.7,39.899 L 28,55.8 L 28,56 L 64.7,71.9 L 64.7,78.6 L 19.5,58.4 Z" marker-start="none" marker-end="none"/>
   </g>
   <g id="Group_2">
    <path d="M 689.399,33.3 L 734.599,53.5 L 734.599,58.5 L 689.399,78.699 L 689.399,71.999 L 726.099,56.1 L 726.099,55.899 L 689.399,40 Z" marker-start="none" marker-end="none"/>
   </g>
   <g id="Group_3">
    <path d="M 88.8,57.58 C 88.8,41.18 100.64,28.14 117.28,28.14 C 131.12,28.14 138.799,36.86 138.799,36.86 L 135.6,40.78 C 135.6,40.78 128.72,33.26 117.36,33.26 C 104,33.26 94.56,44.22 94.56,57.66 C 94.56,70.94 104,81.18 117.2,81.18 C 127.759,81.18 134.319,74.94 134.319,74.94 L 137.279,79.02 C 137.279,79.02 130.479,86.3 117.04,86.3 C 100.96,86.3 88.8,73.9 88.8,57.58 Z" marker-start="none" marker-end="none"/>
    <path d="M 146.532,57.58 C 146.532,41.1 159.252,28.14 175.172,28.14 C 191.092,28.14 203.812,41.1 203.812,57.58 C 203.812,73.74 191.092,86.3 175.172,86.3 C 159.252,86.3 146.532,73.74 146.532,57.58 Z M 152.292,57.58 C 152.292,71.02 162.452,81.18 175.172,81.18 C 187.812,81.18 198.052,71.02 198.052,57.58 C 198.052,43.82 187.812,33.26 175.172,33.26 C 162.452,33.26 152.292,43.82 152.292,57.58 Z" marker-start="none" marker-end="none"/>
    <path d="M 216.309,29.1 L 234.469,29.1 C 251.349,29.1 262.709,39.34 262.709,57.26 C 262.709,75.02 251.349,85.34 234.469,85.34 L 216.309,85.34 Z M 221.829,34.06 L 221.829,80.38 L 233.909,80.38 C 247.669,80.38 256.949,72.22 256.949,57.26 C 256.949,42.22 247.749,34.06 233.909,34.06 Z" marker-start="none" marker-end="none"/>
    <path d="M 275.528,29.1 L 308.648,29.1 L 308.648,34.06 L 281.048,34.06 L 281.048,54.94 L 302.408,54.94 L 302.408,59.9 L 281.048,59.9 L 281.048,80.38 L 307.208,80.38 L 307.208,85.34 L 275.528,85.34 Z" marker-start="none" marker-end="none"/>
   </g>
   <g id="Group_4">
    <path d="M 322.296,21.099 L 328.056,21.099 L 350.826,91.659 L 345.156,91.659 Z" marker-start="none" marker-end="none"/>
   </g>
   <g id="Group_5">
    <path d="M 365.108,56.62 C 365.108,39.659 377.188,26.939 395.108,26.939 C 410.068,26.939 418.148,36.539 418.148,36.539 L 410.948,46.779 C 410.948,46.779 404.388,39.739 395.748,39.739 C 385.188,39.739 379.588,48.459 379.588,56.94 C 379.588,65.18 384.788,73.26 395.748,73.26 C 403.668,73.26 410.068,67.42 410.068,67.42 L 416.548,77.98 C 416.548,77.98 409.268,86.06 395.108,86.06 C 377.908,86.06 365.108,73.26 365.108,56.62 Z" marker-start="none" marker-end="none"/>
    <path d="M 426.685,27.899 L 440.685,27.899 L 440.685,47.179 L 447.245,47.179 L 457.405,27.899 L 473.005,27.899 L 461.885,47.899 C 460.525,50.299 459.725,51.339 459.725,51.339 L 459.725,51.499 C 465.405,54.379 468.285,61.019 468.285,67.1 C 468.285,75.42 464.205,81.26 457.725,83.74 C 455.245,84.7 452.445,85.1 446.605,85.1 L 426.685,85.1 Z M 440.685,59.18 L 440.685,73.1 L 445.405,73.1 C 452.445,73.1 454.045,70.54 454.045,66.22 C 454.045,61.66 451.245,59.18 446.765,59.18 Z" marker-start="none" marker-end="none"/>
    <path d="M 513.688,27.899 L 528.089,27.899 L 508.648,85.1 L 493.928,85.1 L 474.488,27.899 L 488.888,27.899 L 492.328,39.899 L 510.169,39.899 Z M 501.368,72.06 C 501.368,72.06 502.648,65.82 503.688,62.22 L 506.888,51.099 L 495.608,51.099 L 498.888,62.22 C 499.928,65.82 501.208,72.06 501.208,72.06 Z" marker-start="none" marker-end="none"/>
    <path d="M 534.497,27.899 L 548.497,27.899 L 548.497,49.099 L 565.937,49.099 L 565.937,61.1 L 548.497,61.1 L 548.497,73.1 L 569.537,73.1 L 569.537,85.1 L 534.497,85.1 Z" marker-start="none" marker-end="none"/>
    <path d="M 589.676,27.899 L 603.676,27.899 L 603.676,73.1 L 621.036,73.1 L 621.036,85.1 L 572.316,85.1 L 572.316,73.1 L 589.676,73.1 Z" marker-start="none" marker-end="none"/>
    <path d="M 623.851,35.099 C 623.851,35.099 631.291,26.939 644.731,26.939 C 657.611,26.939 664.891,35.179 664.891,44.699 C 664.891,62.78 639.131,61.5 639.131,68.7 C 639.131,71.9 642.331,73.18 645.211,73.18 C 652.091,73.18 657.851,68.14 657.851,68.14 L 663.771,79.58 C 663.771,79.58 657.691,86.06 645.371,86.06 C 634.011,86.06 625.131,79.1 625.131,68.54 C 625.131,50.939 650.891,51.179 650.891,44.379 C 650.891,40.939 647.771,39.819 644.891,39.819 C 637.691,39.819 631.211,45.739 631.211,45.739 Z" marker-start="none" marker-end="none"/>
   </g>
  </g>
 </g>
</svg>
