<?xml version="1.0" encoding="UTF-8" standalone="no"?>
<!DOCTYPE svg PUBLIC "-//W3C//DTD SVG 1.1//EN" "http://www.w3.org/Graphics/SVG/1.1/DTD/svg11.dtd">
<svg width="100%" height="100%" viewBox="0 0 580 170" version="1.1" xmlns="http://www.w3.org/2000/svg" xmlns:xlink="http://www.w3.org/1999/xlink" xml:space="preserve" xmlns:serif="http://www.serif.com/" style="fill-rule:evenodd;clip-rule:evenodd;stroke-linejoin:round;stroke-miterlimit:2;">
    <g transform="matrix(1,0,0,1,0.009277,46.8087)">
        <path d="M251.638,115.205C260.867,120.367 271.504,122.948 283.549,122.948C295.28,122.948 305.761,119.976 314.989,114.032C324.375,108.088 331.336,99.797 335.872,89.161L311.47,79.775C308.967,85.563 305.135,90.177 299.973,93.619C294.811,96.903 288.945,98.546 282.375,98.546C275.962,98.546 270.175,96.982 265.013,93.853C260.007,90.568 256.018,86.189 253.046,80.714C250.231,75.083 248.823,68.669 248.823,61.474C248.823,54.278 250.231,47.943 253.046,42.469C255.862,36.837 259.772,32.458 264.778,29.329C269.783,26.044 275.493,24.402 281.906,24.402C288.476,24.402 294.342,25.966 299.504,29.094C304.666,32.223 308.498,36.368 311.001,41.53L335.403,32.145C330.866,21.821 323.906,13.921 314.52,8.447C305.135,2.816 294.655,-0 283.079,-0C271.191,-0 260.633,2.659 251.404,7.977C242.331,13.139 235.136,20.335 229.818,29.564C224.656,38.793 222.075,49.429 222.075,61.474C222.075,73.518 224.656,84.155 229.818,93.384C235.136,102.613 242.41,109.887 251.638,115.205ZM398.507,122.948C386.775,122.948 376.295,120.367 367.066,115.205C357.993,109.887 350.876,102.613 345.714,93.384C340.552,84.155 337.971,73.518 337.971,61.474C337.971,49.429 340.474,38.793 345.479,29.564C350.641,20.335 357.759,13.139 366.831,7.977C375.904,2.659 386.306,-0 398.037,-0C409.769,-0 420.171,2.659 429.244,7.977C438.316,13.139 445.355,20.335 450.361,29.564C455.522,38.793 458.103,49.429 458.103,61.474C458.103,73.518 455.601,84.155 450.595,93.384C445.59,102.613 438.551,109.887 429.478,115.205C420.406,120.367 410.082,122.948 398.507,122.948ZM398.507,98.781C404.92,98.781 410.629,97.216 415.635,94.088C420.64,90.803 424.551,86.423 427.366,80.948C430.182,75.317 431.59,68.826 431.59,61.474C431.59,54.122 430.104,47.709 427.132,42.234C424.316,36.603 420.406,32.223 415.4,29.094C410.395,25.81 404.607,24.167 398.037,24.167C391.468,24.167 385.68,25.731 380.674,28.86C375.669,31.988 371.758,36.368 368.943,41.999C366.127,47.63 364.719,54.122 364.719,61.474C364.719,68.826 366.127,75.317 368.943,80.948C371.915,86.423 375.904,90.803 380.909,94.088C386.071,97.216 391.937,98.781 398.507,98.781ZM469.144,120.132L469.144,2.816L493.781,2.816L495.022,19.131C498.127,14.114 501.937,10.083 506.451,7.039C513.177,2.346 521.154,-0 530.383,-0C539.769,-0 547.746,1.877 554.316,5.631C561.042,9.385 566.126,15.251 569.567,23.229C573.165,31.05 574.964,41.295 574.964,53.966L574.964,120.132L548.685,120.132L548.685,60.066C548.685,50.681 547.59,43.485 545.4,38.48C543.366,33.318 540.394,29.72 536.484,27.687C532.73,25.653 528.272,24.636 523.11,24.636C514.35,24.48 507.546,27.374 502.697,33.318C497.848,39.262 495.423,47.787 495.423,58.893L495.423,120.132L469.144,120.132ZM111.088,120.132L154.675,59.322L114.138,2.815L145.11,2.815L169.008,38.331L192.74,2.815L223.712,2.815L183.577,59.621L226.527,120.132L195.321,120.132L169.19,80.582L142.529,120.132L111.088,120.132ZM80.11,103.676L81.183,120.132L105.82,120.132L105.82,2.815L79.775,2.815L79.775,64.055C79.775,75.161 77.351,83.686 72.502,89.63C67.653,95.574 60.77,98.468 51.854,98.311C46.848,98.311 42.39,97.294 38.48,95.261C34.726,93.227 31.754,89.63 29.564,84.468C27.374,79.306 26.279,72.11 26.279,62.882L26.279,2.815L0,2.815L0,68.982C0,81.496 1.799,91.741 5.397,99.719C8.994,107.697 14.078,113.562 20.648,117.317C27.374,121.071 35.351,122.948 44.58,122.948C53.966,122.948 61.943,120.68 68.513,116.143C73.109,112.937 76.975,108.781 80.11,103.676Z" style="fill:rgb(13,29,57);"/>
    </g>
    <g transform="matrix(1,0,0,1,545.708,1.5e-05)">
        <path d="M25.587,39.341L25.203,32.118L25.203,19.594C25.203,16.981 24.921,14.804 24.358,13.063C23.846,11.27 22.975,9.912 21.745,8.99C20.567,8.017 18.979,7.53 16.981,7.53C15.137,7.53 13.524,7.914 12.14,8.683C10.757,9.451 9.579,10.655 8.606,12.294L1.076,9.528C1.895,7.838 2.971,6.275 4.303,4.841C5.686,3.355 7.402,2.177 9.451,1.306C11.551,0.435 14.061,-0 16.981,-0C20.721,-0 23.846,0.743 26.356,2.228C28.866,3.663 30.71,5.737 31.888,8.452C33.117,11.167 33.732,14.446 33.732,18.288L33.502,39.341L25.587,39.341ZM14.522,40.263C9.912,40.263 6.326,39.239 3.765,37.19C1.255,35.141 0,32.246 0,28.507C0,24.511 1.332,21.464 3.996,19.363C6.711,17.263 10.476,16.213 15.291,16.213L25.587,16.213L25.587,22.821L18.057,22.821C14.625,22.821 12.217,23.308 10.834,24.281C9.451,25.203 8.76,26.535 8.76,28.277C8.76,29.762 9.349,30.94 10.527,31.811C11.756,32.631 13.447,33.04 15.598,33.04C17.545,33.04 19.235,32.605 20.67,31.734C22.104,30.863 23.205,29.711 23.974,28.277C24.793,26.842 25.203,25.229 25.203,23.436L27.739,23.436C27.739,28.661 26.689,32.784 24.588,35.807C22.488,38.778 19.133,40.263 14.522,40.263Z" style="fill:rgb(13,29,57);fill-rule:nonzero;"/>
    </g>
    <g transform="matrix(1,0,0,1,508.33,-5e-05)">
        <path d="M0,39.341L0,0.922L8.068,0.922L8.606,7.991L8.606,39.341L0,39.341ZM26.048,39.341L26.048,19.671L34.654,19.671L34.654,39.341L26.048,39.341ZM26.048,19.671C26.048,16.597 25.69,14.241 24.972,12.602C24.307,10.911 23.333,9.733 22.053,9.067C20.823,8.401 19.363,8.068 17.673,8.068C14.804,8.017 12.576,8.965 10.988,10.911C9.4,12.858 8.606,15.649 8.606,19.286L5.379,19.286C5.379,15.24 5.968,11.782 7.146,8.913C8.324,5.993 10.015,3.791 12.217,2.305C14.42,0.768 17.033,0 20.055,0C23.128,0 25.741,0.615 27.892,1.844C30.095,3.074 31.76,4.995 32.887,7.607C34.065,10.168 34.654,13.524 34.654,17.673L34.654,19.671L26.048,19.671Z" style="fill:rgb(13,29,57);fill-rule:nonzero;"/>
    </g>
    <g transform="matrix(1,0,0,1,468.8,-5e-05)">
        <path d="M0,39.341L0,0.922L8.068,0.922L8.606,7.991L8.606,39.341L0,39.341ZM26.048,39.341L26.048,19.671L34.654,19.671L34.654,39.341L26.048,39.341ZM26.048,19.671C26.048,16.597 25.69,14.241 24.972,12.602C24.307,10.911 23.333,9.733 22.053,9.067C20.823,8.401 19.363,8.068 17.673,8.068C14.804,8.017 12.576,8.965 10.988,10.911C9.4,12.858 8.606,15.649 8.606,19.286L5.379,19.286C5.379,15.24 5.968,11.782 7.146,8.913C8.324,5.993 10.015,3.791 12.217,2.305C14.42,0.768 17.033,0 20.055,0C23.128,0 25.741,0.615 27.892,1.844C30.095,3.074 31.76,4.995 32.887,7.607C34.065,10.168 34.654,13.524 34.654,17.673L34.654,19.671L26.048,19.671Z" style="fill:rgb(13,29,57);fill-rule:nonzero;"/>
    </g>
    <g transform="matrix(1,0,0,1,428.17,1.5e-05)">
        <path d="M19.286,40.263C15.547,40.263 12.217,39.418 9.297,37.728C6.429,35.986 4.149,33.604 2.459,30.582C0.82,27.559 0,24.076 0,20.132C0,16.187 0.845,12.704 2.536,9.682C4.226,6.659 6.531,4.303 9.451,2.612C12.422,0.871 15.803,-0 19.594,-0C23.026,-0 26.125,0.896 28.891,2.689C31.657,4.431 33.834,6.967 35.422,10.296C37.062,13.626 37.881,17.596 37.881,22.206L7.684,22.206L8.836,21.131C8.836,23.487 9.349,25.536 10.373,27.278C11.398,28.968 12.755,30.274 14.446,31.196C16.136,32.118 18.006,32.579 20.055,32.579C22.411,32.579 24.358,32.067 25.895,31.043C27.431,29.967 28.635,28.584 29.506,26.893L37.113,30.121C36.037,32.17 34.654,33.963 32.964,35.499C31.324,37.036 29.352,38.214 27.047,39.034C24.793,39.854 22.206,40.263 19.286,40.263ZM9.374,16.674L8.145,15.598L29.813,15.598L28.661,16.674C28.661,14.574 28.2,12.858 27.278,11.526C26.356,10.143 25.177,9.118 23.743,8.452C22.36,7.735 20.9,7.376 19.363,7.376C17.827,7.376 16.29,7.735 14.753,8.452C13.216,9.118 11.936,10.143 10.911,11.526C9.887,12.858 9.374,14.574 9.374,16.674Z" style="fill:rgb(13,29,57);fill-rule:nonzero;"/>
    </g>
    <g transform="matrix(0,-1,-1,0,431.996,31.3658)">
        <rect x="-7.976" y="7.976" width="24.48" height="8.529" style="fill:rgb(13,29,57);"/>
    </g>
    <g transform="matrix(1,0,0,1,373,0.922002)">
        <path d="M16.52,38.419L31.504,-0L40.417,-0L24.588,38.419L16.52,38.419ZM15.906,38.419L0,-0L8.836,-0L23.897,38.419L15.906,38.419Z" style="fill:rgb(13,29,57);fill-rule:nonzero;"/>
    </g>
    <g transform="matrix(1,0,0,1,414.685,2.21671)">
        <path d="M1.46,8.606C2.484,9.579 3.688,10.066 5.071,10.066C6.454,10.066 7.633,9.579 8.606,8.606C9.63,7.581 10.143,6.378 10.143,4.994C10.143,3.611 9.63,2.433 8.606,1.46C7.633,0.487 6.454,-0 5.071,-0C3.688,-0 2.484,0.487 1.46,1.46C0.487,2.433 0,3.611 0,4.994C0,6.378 0.487,7.581 1.46,8.606Z" style="fill:rgb(13,29,57);fill-rule:nonzero;"/>
    </g>
</svg>
