<svg width="226" height="118" viewBox="0 0 226 118" fill="none" xmlns="http://www.w3.org/2000/svg">
<path d="M29.1679 0.681641V29.8408H21.8781V7.97142L7.29857 12.8313V22.551H21.8781L14.5883 29.8408H0.00878906V7.97142L21.8781 0.681641H29.1679Z" fill="#DCF42F"/>
<path d="M43.7468 0.681641L36.457 7.97142V0.681641H43.7468Z" fill="#DCF42F"/>
<path d="M36.457 7.9707L43.7468 15.2605V29.84H36.457V7.9707Z" fill="#DCF42F"/>
<path d="M58.3256 37.1309V44.4206H43.7461L51.0359 37.1309H58.3256Z" fill="white"/>
<path d="M43.7468 37.1309H36.457V66.29H43.7468V37.1309Z" fill="white"/>
<path d="M29.1679 44.4216V66.2909H14.5883L7.29857 59.0012H21.8781V49.2815L7.29857 44.4216V80.8705H0.00878906V37.1318H7.29857L29.1679 44.4216Z" fill="white"/>
<path d="M72.907 66.29H65.6172V37.1309H80.1967L87.4865 44.4206H72.907V66.29Z" fill="white"/>
<path d="M94.7756 37.1309V66.29H80.196L72.9062 59.0002H87.4858V37.1309H94.7756Z" fill="white"/>
<path d="M131.226 22.5518V66.2904H123.936V44.4211L109.356 49.2809V59.0006H123.936L116.646 66.2904H102.066V44.4211L123.936 37.1313V22.5518H131.226Z" fill="white"/>
<path d="M167.675 37.1309H160.385V66.29H167.675V37.1309Z" fill="white"/>
<path d="M160.381 59.0002L153.091 66.29H138.512V37.1309H145.801V59.0002H160.381Z" fill="white"/>
<path d="M189.542 66.2898L182.252 59H196.832V66.2898H189.542Z" fill="white"/>
<path d="M182.252 44.4206L189.542 37.1309H196.832V44.4206H182.252Z" fill="white"/>
<path d="M182.253 37.1309H174.963V66.29H182.253V37.1309Z" fill="white"/>
<path d="M225.992 37.1318V44.4216H211.412L218.702 37.1318H225.992Z" fill="white"/>
<path d="M211.413 22.5518H204.123V66.2904H211.413V22.5518Z" fill="white"/>
<path d="M94.7763 73.5801V102.739H87.4865V80.8699L72.907 85.7297V95.4494H87.4865L80.1967 102.739H65.6172V80.8699L87.4865 73.5801H94.7763Z" fill="#DCF42F"/>
<path d="M58.3271 59V102.739H51.0373V80.8693L36.4577 85.7292V95.4489H51.0373L43.7475 102.739H29.168V80.8693L51.0373 73.5796V59H58.3271Z" fill="#DCF42F"/>
<path d="M131.225 73.5801H123.936V117.319H131.225V73.5801Z" fill="#DCF42F"/>
<path d="M123.936 95.4489L116.646 102.739H102.066V80.8694L109.356 78.4395V95.4489H123.936Z" fill="#DCF42F"/>
</svg>
