<svg width="160" height="48" viewBox="0 0 160 48" fill="none" xmlns="http://www.w3.org/2000/svg">
<path d="M32.6846 7.74414H36.708V22.175H32.6846V7.74414Z" fill="white"/>
<path d="M42.877 11.2463H38.5444V7.74414H51.2111V11.2463H46.8786V22.1706H42.877V11.2463Z" fill="white"/>
<path d="M55.1516 12.2598C55.2605 12.5339 55.4608 12.7862 55.7482 13.0125C56.0355 13.2387 56.4361 13.4475 56.9456 13.6303C57.455 13.8173 58.1082 13.9914 58.905 14.1567C60.5161 14.5134 61.7005 15.0094 62.4625 15.6446C63.2245 16.2798 63.6077 17.1499 63.6077 18.268C63.6077 18.8857 63.4858 19.4513 63.2419 19.9603C62.9981 20.4694 62.6584 20.9044 62.2317 21.2612C61.8006 21.6179 61.2868 21.8963 60.6816 22.0878C60.0763 22.2792 59.4145 22.3749 58.7004 22.3749C57.5465 22.3749 56.4884 22.1878 55.5348 21.818C54.5768 21.4439 53.6668 20.8696 52.8003 20.0909L53.8105 18.8944C54.5681 19.5818 55.3301 20.0952 56.1009 20.4302C56.8716 20.7652 57.7598 20.9349 58.7613 20.9349C59.7628 20.9349 60.5205 20.7086 61.104 20.2518C61.6874 19.7994 61.9792 19.199 61.9792 18.455C61.9792 18.1113 61.9226 17.8068 61.8137 17.5371C61.7049 17.2673 61.5089 17.0237 61.2346 16.8062C60.9603 16.5843 60.5771 16.3885 60.0851 16.2058C59.593 16.0231 58.9703 15.8534 58.2127 15.6881C57.3854 15.5097 56.6669 15.3009 56.053 15.0703C55.439 14.8354 54.9339 14.5526 54.5333 14.2219C54.1327 13.8913 53.8366 13.5084 53.645 13.0647C53.4534 12.6209 53.3576 12.1032 53.3576 11.4941C53.3576 10.8851 53.4752 10.3847 53.706 9.90617C53.9368 9.42761 54.2677 9.00996 54.6944 8.65756C55.1211 8.30516 55.6219 8.03108 56.201 7.83095C56.7801 7.63082 57.4115 7.53076 58.0995 7.53076C59.1576 7.53076 60.085 7.67433 60.8732 7.96582C61.6657 8.25731 62.432 8.69671 63.1723 9.27969L62.223 10.537C61.5481 9.98883 60.8732 9.58858 60.1895 9.3406C59.5103 9.09262 58.7962 8.9708 58.0559 8.9708C57.59 8.9708 57.1633 9.03171 56.7888 9.15787C56.41 9.28404 56.0878 9.44936 55.8178 9.65384C55.5479 9.85832 55.3432 10.1063 55.1995 10.3978C55.0558 10.6893 54.9818 10.9982 54.9818 11.3288C54.9818 11.6595 55.0384 11.9814 55.1473 12.2598H55.1516Z" fill="white"/>
<path d="M77.3674 9.22768H68.5587V14.1525H76.44V15.6361H68.5587V20.6871H77.4719V22.1706H66.9302V7.74414H77.3674V9.22768Z" fill="white"/>
<path d="M91.9628 20.9219C91.5578 21.2308 91.1224 21.4962 90.6521 21.7137C90.1862 21.9356 89.6811 22.1053 89.1455 22.2271C88.61 22.3489 88.0091 22.4141 87.3516 22.4141C86.3065 22.4141 85.3442 22.2227 84.4647 21.8355C83.5851 21.4527 82.8231 20.9263 82.1743 20.2606C81.5299 19.595 81.0204 18.8075 80.659 17.9026C80.2932 16.9977 80.1104 16.0188 80.1104 14.9747C80.1104 13.9305 80.2932 12.9734 80.659 12.0685C81.0248 11.1636 81.5299 10.3674 82.1743 9.68874C82.8187 9.01005 83.5894 8.47058 84.4864 8.07903C85.3791 7.68747 86.3544 7.4917 87.4169 7.4917C88.0787 7.4917 88.6709 7.54826 89.2021 7.65702C89.729 7.76578 90.2211 7.92241 90.6783 8.12253C91.1311 8.32266 91.5535 8.56194 91.9366 8.84473C92.3198 9.12751 92.6943 9.44075 93.0514 9.78445L91.9366 10.9809C91.3183 10.4022 90.6521 9.92802 89.9467 9.55822C89.237 9.18842 88.3879 9.00135 87.3995 9.00135C86.6026 9.00135 85.8624 9.15362 85.1831 9.45381C84.5039 9.75835 83.9117 10.176 83.4109 10.7111C82.9102 11.2462 82.5183 11.8771 82.2353 12.5949C81.9522 13.3171 81.8129 14.0959 81.8129 14.9355C81.8129 15.7752 81.9522 16.5583 82.2353 17.2848C82.5183 18.0114 82.9102 18.6466 83.4109 19.1817C83.9117 19.7168 84.5039 20.1388 85.1831 20.4477C85.8624 20.7566 86.6026 20.9132 87.3995 20.9132C88.3879 20.9132 89.2413 20.7305 89.9554 20.365C90.6695 19.9996 91.3706 19.4906 92.0586 18.8293L93.1297 19.8821C92.7596 20.265 92.3677 20.613 91.9628 20.9219Z" fill="white"/>
<path d="M107.774 16.0059C107.774 17.0631 107.63 17.9897 107.339 18.7902C107.051 19.5864 106.642 20.252 106.111 20.7915C105.58 21.3266 104.948 21.7312 104.212 21.9966C103.476 22.2663 102.653 22.3969 101.748 22.3969C100.842 22.3969 100.041 22.262 99.305 21.9966C98.5691 21.7269 97.9377 21.331 97.4065 20.8002C96.8753 20.2694 96.466 19.6168 96.1786 18.8337C95.8912 18.0506 95.7432 17.1501 95.7432 16.132V7.74414H97.3717V16.032C97.3717 17.5982 97.7592 18.8033 98.5386 19.6386C99.3137 20.4783 100.398 20.8959 101.787 20.8959C103.176 20.8959 104.182 20.4957 104.966 19.6995C105.749 18.9034 106.141 17.7156 106.141 16.132V7.74414H107.77V16.0102L107.774 16.0059Z" fill="white"/>
<path d="M121.577 22.1706L117.388 16.5627H113.264V22.1706H111.636V7.74414H117.845C118.642 7.74414 119.36 7.84855 120 8.05303C120.64 8.25751 121.185 8.55335 121.642 8.9275C122.095 9.30599 122.447 9.75845 122.696 10.2892C122.944 10.82 123.066 11.4073 123.066 12.0512C123.066 12.6559 122.97 13.1954 122.778 13.6696C122.587 14.1438 122.313 14.5571 121.964 14.9052C121.616 15.2576 121.198 15.5491 120.714 15.784C120.231 16.0189 119.709 16.1842 119.147 16.28L123.584 22.1706H121.581H121.577ZM120.458 10.0021C119.809 9.49742 118.899 9.24509 117.727 9.24509H113.26V15.1184H117.706C118.241 15.1184 118.738 15.0487 119.195 14.9095C119.652 14.7703 120.044 14.5745 120.375 14.3179C120.706 14.0612 120.963 13.7479 121.15 13.3781C121.337 13.004 121.429 12.5863 121.429 12.1165C121.429 11.2072 121.106 10.4981 120.458 9.99774V10.0021Z" fill="white"/>
<path d="M128.322 7.74414V22.1706H126.694V7.74414H128.322Z" fill="white"/>
<path d="M137.998 22.1701H136.369V9.24455H131.523V7.73926H142.849V9.24455H138.002V22.1701H137.998Z" fill="white"/>
<path d="M152.066 22.1706H150.438V16.4627L144.433 7.74414H146.414L151.274 14.9574L156.172 7.74414H158.071L152.066 16.4409V22.1706Z" fill="white"/>
<path d="M31.5083 39.2636L33.7377 36.6054C35.1615 37.7409 36.7508 38.3369 38.4185 38.3369C39.4897 38.3369 40.0688 37.9671 40.0688 37.3494V37.3102C40.0688 36.7142 39.5942 36.3835 37.6348 35.9311C34.5606 35.2306 32.1875 34.3649 32.1875 31.3978V31.3586C32.1875 28.6787 34.3124 26.7427 37.7785 26.7427C40.2343 26.7427 42.1502 27.404 43.7221 28.6613L41.7191 31.4848C40.3998 30.5581 38.9541 30.0622 37.674 30.0622C36.7029 30.0622 36.2283 30.4755 36.2283 30.9888V31.028C36.2283 31.6893 36.7247 31.9764 38.7233 32.4289C42.0457 33.1511 44.1096 34.2213 44.1096 36.923V36.9622C44.1096 39.9075 41.7801 41.6608 38.2705 41.6608C35.7102 41.6608 33.2761 40.8559 31.5039 39.268L31.5083 39.2636Z" fill="white"/>
<path d="M45.8691 35.0793V26.9785H49.9317V34.9966C49.9317 37.0805 50.9854 38.0681 52.5921 38.0681C54.1989 38.0681 55.2526 37.1197 55.2526 35.101V26.9785H59.3152V34.9749C59.3152 39.6343 56.6547 41.6747 52.5486 41.6747C48.4425 41.6747 45.8647 39.5908 45.8647 35.0793H45.8691Z" fill="white"/>
<path d="M61.6875 26.978H65.9155L69.3598 32.5641L72.804 26.978H77.0321V41.4088H73.0522V33.121L69.3598 38.768H69.2771L65.6064 33.1601V41.4045H61.6875V26.9736V26.978Z" fill="white"/>
<path d="M79.5981 26.978H83.8262L87.2704 32.5641L90.7147 26.978H94.9427V41.4088H90.9629V33.121L87.2704 38.768H87.1877L83.517 33.1601V41.4045H79.5981V26.9736V26.978Z" fill="white"/>
<path d="M97.5859 26.9785H101.609V41.4094H97.5859V26.9785Z" fill="white"/>
<path d="M107.774 30.4846H103.442V26.9824H116.109V30.4846H111.776V41.4089H107.774V30.4846Z" fill="white"/>
<g style="mix-blend-mode:multiply">
<path d="M6.49294 14.5741C6.49294 12.9253 7.1548 11.4504 8.23466 10.3715C9.31453 9.29255 10.795 8.63127 12.4409 8.63127C14.0912 8.63127 15.5673 9.2969 16.6472 10.3715C17.7271 11.4504 18.3889 12.9296 18.3889 14.5741V21.0608H21.6372V14.5741C21.6372 12.0421 20.6052 9.73196 18.9419 8.07439C17.2873 6.41683 14.9795 5.38574 12.4453 5.38574C9.91107 5.38574 7.60329 6.41683 5.93994 8.07874C4.2766 9.73631 3.24463 12.0465 3.24463 14.5785V17.8197H6.49294V14.5785V14.5741Z" fill="white"/>
<path d="M23.9356 23.092C23.3521 22.509 22.5292 22.1392 21.6409 22.1436H3.24831C2.35568 22.1436 1.53707 22.509 0.953593 23.092C0.365762 23.675 0 24.4929 0 25.3848V39.4415C0 40.3333 0.365762 41.1512 0.949239 41.7342C1.53272 42.3172 2.35568 42.687 3.24396 42.6826H21.6365C22.5292 42.6826 23.3478 42.3172 23.9313 41.7342C24.5147 41.1512 24.8849 40.329 24.8805 39.4415V25.3848C24.8805 24.4929 24.5147 23.675 23.9313 23.092H23.9356ZM21.6409 39.4415H3.24831V25.3848H21.6409V39.4415Z" fill="white"/>
<path d="M11.3955 32.2644L10.5856 35.5055C10.5028 35.8275 10.5769 36.1712 10.7815 36.4322C10.9862 36.6932 11.304 36.8499 11.635 36.8499H13.2591C13.59 36.8499 13.9079 36.6976 14.1126 36.4322C14.3172 36.1712 14.3912 35.8275 14.3085 35.5055L13.4986 32.2644C14.2258 31.8859 14.7222 31.1289 14.7222 30.2544C14.7222 29.0014 13.7033 27.9834 12.4492 27.9834C11.1952 27.9834 10.1763 29.0014 10.1763 30.2544C10.1763 31.1289 10.6727 31.8859 11.3998 32.2644H11.3955Z" fill="white"/>
</g>
</svg>
