<svg style="max-width: 900px; margin: 0 auto; display: block;" viewBox="0 0 809 181" fill="none" xmlns="http://www.w3.org/2000/svg">
<path d="M10.6605 173.09C10.2705 173.48 10.4005 173.8 10.9505 173.8H67.2305L38.6505 145.24L10.6605 173.1V173.09Z" fill="white"></path>
<path d="M165.271 11.6598C165.431 11.1298 165.271 11.0398 164.901 11.4498L106.691 77.3398L136.141 106.75L165.271 11.6498V11.6598Z" fill="white"></path>
<path d="M219.321 126.58C219.521 127.09 219.761 127.07 219.841 126.52L226.831 82.88C226.921 82.34 226.721 81.53 226.381 81.1L176.041 15.04C175.711 14.6 175.601 14.66 175.801 15.18L219.311 126.59L219.321 126.58Z" fill="white"></path>
<path d="M81.8107 117.11C81.6607 116.96 81.3707 116.84 81.1707 116.84H81.1107C80.9007 116.84 80.6107 116.96 80.4707 117.11L78.9807 118.59C78.8307 118.74 78.7207 119.03 78.7207 119.24V119.3C78.7207 119.51 78.8307 119.79 78.9807 119.94L80.4707 121.43C80.6207 121.58 80.9007 121.7 81.1107 121.7H81.1707C81.3807 121.7 81.6707 121.58 81.8107 121.43L83.3007 119.94C83.4507 119.79 83.5707 119.5 83.5707 119.3V119.24C83.5707 119.03 83.4407 118.74 83.3007 118.59L81.8107 117.11Z" fill="white"></path>
<path d="M135.161 126.26V113.3C135.161 112.63 134.581 111.21 134.131 110.75L90.1111 66.7902C89.6411 66.3102 88.2711 65.7402 87.6011 65.7402H74.6611C73.9811 65.7402 72.6211 66.3202 72.1411 66.8002L28.1511 110.75C27.6911 111.2 27.1211 112.63 27.1211 113.3V126.26C27.1211 126.91 27.6911 128.29 28.1411 128.73L72.1411 172.69C72.6311 173.19 74.0011 173.78 74.6511 173.79H87.6211C88.3111 173.79 89.6111 173.22 90.1111 172.7L134.141 128.73C134.591 128.28 135.161 126.9 135.161 126.25V126.26ZM84.1111 93.5902C84.1111 91.5802 85.7311 89.9502 87.7511 89.9502C89.7711 89.9502 91.4011 91.5802 91.4011 93.5902V101.58L98.3311 97.5802C100.071 96.5702 102.301 97.1702 103.301 98.9102C104.301 100.66 103.711 102.88 101.971 103.89L89.6011 111.03C88.9411 111.41 88.2011 111.56 87.4911 111.51C85.6011 111.37 84.1211 109.79 84.1211 107.88V93.5902H84.1111ZM58.9911 98.9102C60.0011 97.1702 62.2211 96.5702 63.9611 97.5802L70.8911 101.58V93.5902C70.8911 91.5802 72.5211 89.9502 74.5311 89.9502C76.5411 89.9502 78.1711 91.5802 78.1711 93.5902V107.88C78.1711 109.8 76.6811 111.37 74.8011 111.51C74.0911 111.57 73.3511 111.42 72.6911 111.03L60.3211 103.89C58.5811 102.88 57.9811 100.66 58.9911 98.9102ZM52.4511 128.24C51.4411 126.49 52.0411 124.27 53.7811 123.26L60.6911 119.28L53.7811 115.28C52.0311 114.27 51.4411 112.05 52.4511 110.31C53.4511 108.57 55.6811 107.97 57.4211 108.97L69.7911 116.11C70.6611 116.61 71.2411 117.41 71.4811 118.3C71.5611 118.59 71.6011 118.87 71.6111 119.16C71.6111 119.56 71.5711 119.96 71.4411 120.35C71.1811 121.2 70.6111 121.95 69.7811 122.43L57.4111 129.58C55.6611 130.58 53.4411 129.99 52.4411 128.25L52.4511 128.24ZM78.1811 144.95C78.1811 146.96 76.5511 148.59 74.5411 148.59C72.5311 148.59 70.9011 146.96 70.9011 144.95V136.96L63.9711 140.96C62.2311 141.97 60.0111 141.37 59.0011 139.63C58.0011 137.89 58.5911 135.65 60.3311 134.65L72.7011 127.51C73.3611 127.12 74.1011 126.97 74.8111 127.03C76.6911 127.17 78.1811 128.74 78.1811 130.66V144.95ZM81.9011 126.08H80.3911C80.1811 126.08 79.8911 125.96 79.7411 125.81L74.6011 120.67C74.4511 120.53 74.3311 120.23 74.3311 120.03V118.52C74.3311 118.31 74.4511 118.02 74.6011 117.87L79.7411 112.73C79.8911 112.58 80.1811 112.46 80.3911 112.46H81.9011C82.1111 112.46 82.4011 112.58 82.5511 112.73L87.6911 117.87C87.8411 118.02 87.9611 118.31 87.9611 118.52V120.03C87.9611 120.23 87.8411 120.53 87.6911 120.67L82.5511 125.81C82.4011 125.96 82.1211 126.08 81.9011 126.08ZM103.291 139.63C102.291 141.37 100.061 141.97 98.3211 140.96L91.3911 136.96V144.95C91.3911 146.96 89.7611 148.59 87.7411 148.59C85.7211 148.59 84.1011 146.96 84.1011 144.95V130.66C84.1011 128.74 85.5811 127.17 87.4711 127.03C88.1811 126.97 88.9211 127.12 89.5811 127.51L101.951 134.65C103.691 135.66 104.281 137.89 103.281 139.63H103.291ZM108.501 123.26C110.251 124.27 110.841 126.49 109.831 128.24C108.821 129.98 106.601 130.57 104.861 129.57L92.4911 122.42C91.6611 121.94 91.0911 121.19 90.8411 120.34C90.7211 119.95 90.6611 119.55 90.6811 119.15C90.6811 118.86 90.7311 118.58 90.8111 118.29C91.0611 117.4 91.6411 116.61 92.5011 116.1L104.871 108.96C106.611 107.96 108.841 108.55 109.841 110.3C110.851 112.04 110.251 114.26 108.511 115.27L101.601 119.27L108.511 123.25L108.501 123.26Z" fill="white"></path>
<path d="M296.781 173.38L221.951 138.56C221.451 138.33 220.741 138.47 220.361 138.87L188.351 173.07C187.971 173.47 188.121 173.8 188.671 173.8H296.691C297.241 173.8 297.281 173.61 296.781 173.38Z" fill="white"></path>
<path d="M217.711 134.16L170.151 12.3695C169.951 11.8595 169.651 11.8695 169.491 12.3895L139.141 111.479C139.311 112.109 139.421 112.74 139.421 113.299V126.259C139.421 128.049 138.401 130.519 137.141 131.749L95.041 173.789H180.851C181.401 173.789 182.161 173.459 182.531 173.059L217.391 135.809C217.771 135.409 217.911 134.659 217.711 134.149V134.16Z" fill="white"></path>
<path d="M349.811 173.01L285.981 91.7501C285.641 91.3201 284.921 90.9001 284.371 90.8301L231.991 83.8501C231.451 83.7801 230.931 84.1601 230.841 84.7001L223.061 133.32C222.971 133.86 223.311 134.5 223.811 134.73L306.871 173.37C307.371 173.6 308.231 173.79 308.781 173.79H349.441C349.991 173.79 350.161 173.44 349.821 173L349.811 173.01Z" fill="white"></path>
<path d="M386.87 157.41C386.87 157.41 394.62 162.64 401.91 162.64C405.96 162.64 407.86 160.84 407.86 158.14C407.86 155.44 406.15 153.91 398.58 151.65C387.23 148.32 380.74 143.9 380.74 134.98C380.74 125.16 387.41 118.22 401.64 118.22C415.87 118.22 422 123.99 422 123.99L414.97 134.62C414.97 134.62 409.29 130.12 401.64 130.12C397.23 130.12 395.78 131.83 395.78 134.08C395.78 136.78 398.12 137.86 404.34 139.66C416.32 142.99 423.17 147.68 423.17 156.69C423.17 166.51 416.59 174.62 402.36 174.62C387.41 174.62 379.75 167.41 379.75 167.41L386.87 157.41Z" fill="white"></path>
<path d="M433.119 150.11V119.39H446.179V150.11C446.179 156.87 449.779 162 457.079 162C464.379 162 467.979 156.87 467.979 150.11V119.39H481.039V150.11C481.039 164.07 472.029 174.7 457.079 174.7C442.129 174.7 433.119 164.07 433.119 150.11Z" fill="white"></path>
<path d="M536.3 143.619L524.68 159.119H519.18L507.47 143.539V173.449H494.5L494.59 119.399H505.13L521.89 142.549L538.65 119.399H549.19L549.28 173.449H536.31V143.629L536.3 143.619Z" fill="white"></path>
<path d="M605.12 143.619L593.5 159.119H588L576.29 143.539V173.449H563.32L563.41 119.399H573.95L590.71 142.549L607.47 119.399H618.01L618.1 173.449H605.13V143.629L605.12 143.619Z" fill="white"></path>
<path d="M645.23 173.44H632.17V119.39H645.23V173.44Z" fill="white"></path>
<path d="M654.061 119.39H697.571V130.65H682.351V173.44H669.291V130.65H654.071V119.39H654.061Z" fill="white"></path>
<path d="M720.69 163.98L740.78 144.97C743.66 142.27 744.56 140.47 744.56 137.4C744.56 133.98 741.86 131 737.17 131C732.76 131 729.69 132.98 726.09 135.87L719.24 125.42C719.24 125.42 726.45 118.21 738.97 118.21C752.75 118.21 760.41 126.41 760.41 135.6C760.41 141.64 758.7 146.32 754.1 150.55L741.58 162.17H760.77V173.43H720.68V163.97L720.69 163.98Z" fill="white"></path>
<path d="M782.04 130.65L781.86 138.94C783.12 138.85 784.38 138.76 785.82 138.76C801.86 138.76 807.8 145.7 807.8 155.88C807.8 166.06 801.04 174.35 785.28 174.35C772.58 174.35 766.18 166.96 766.18 166.96L772.76 157.5C772.76 157.5 778.08 162.45 785.01 162.45C791.05 162.45 793.66 159.84 793.66 156.23C793.66 152.62 790.87 149.38 781.86 149.38C775.19 149.38 770.42 150.91 770.42 150.91L769.34 150.28L770.15 119.38H804.2V130.64H782.04V130.65Z" fill="white"></path>
<path d="M386.151 88.6703C386.151 88.6703 392.251 93.4503 398.831 93.4503C403.031 93.4503 404.931 91.2303 404.931 87.9303C404.931 84.6303 403.451 83.0703 396.361 80.6803C386.561 77.5503 381.371 73.6003 381.371 65.6903C381.371 57.0403 387.051 51.0303 398.671 51.0303C410.291 51.0303 415.311 56.1403 415.311 56.1403L409.961 64.2903C409.961 64.2903 405.351 60.1703 398.681 60.1703C394.561 60.1703 392.751 62.0603 392.751 65.1103C392.751 68.1603 394.641 69.4803 400.821 71.5303C411.201 74.9903 416.471 79.0303 416.471 87.0203C416.471 95.6703 410.871 102.59 399.171 102.59C386.821 102.59 380.721 96.2503 380.721 96.2503L386.161 88.6703H386.151Z" fill="white"></path>
<path d="M466.821 101.521H459.241L436.181 70.4706V101.521H426.301V52.1006H433.881L456.941 83.3206V52.1006H466.821V101.521Z" fill="white"></path>
<path d="M476.701 76.8103C476.701 62.5603 486.091 51.0303 499.761 51.0303C513.431 51.0303 522.911 62.5603 522.911 76.8103C522.911 91.0603 513.601 102.67 499.761 102.67C485.921 102.67 476.701 91.0603 476.701 76.8103ZM512.621 76.8103C512.621 67.4203 507.101 60.5803 499.771 60.5803C492.441 60.5803 487.001 67.4203 487.001 76.8103C487.001 86.2003 492.521 93.0403 499.771 93.0403C507.021 93.0403 512.621 86.2003 512.621 76.8103Z" fill="white"></path>
<path d="M556.431 69.7198L548.521 101.51H540.781L527.111 52.0898H537.901L544.821 82.8898L552.561 52.0898H560.301L568.211 82.9798L575.211 52.0898H586.081L572.321 101.51H564.661L556.421 69.7198H556.431Z" fill="white"></path>
<path d="M623.141 80.6006H603.951V101.521H593.98V52.1006H627.01V60.8306H603.951V72.5306H623.141V80.6006Z" fill="white"></path>
<path d="M635.84 101.521V52.1006H645.81V92.7906H666.65V101.521H635.84Z" fill="white"></path>
<path d="M718.831 101.521H708.121L704.991 91.9706H686.381L683.331 101.521H672.621L690.411 52.1006H701.041L718.831 101.521ZM689.011 83.8906H702.351L695.681 63.3806L689.011 83.8906Z" fill="white"></path>
<path d="M735.8 74.0906L754.09 52.1006H766.2V53.1706L749.31 73.1906L766.28 100.451V101.521H755.08L742.64 81.0106L735.8 89.1606V101.521H725.83V52.1006H735.8V74.0906Z" fill="white"></path>
<path d="M802.841 80.5098H783.651V92.7798H806.471V101.51H773.691V52.0898H806.471V60.8198H783.651V72.4298H802.841V80.4998V80.5098Z" fill="white"></path>
</svg>