<svg xmlns="http://www.w3.org/2000/svg" xmlns:xlink="http://www.w3.org/1999/xlink" xmlns:serif="http://www.serif.com/" width="100%" height="100%" viewBox="0 0 135 22" version="1.1" xml:space="preserve" style="fill-rule:evenodd;clip-rule:evenodd;stroke-linejoin:round;stroke-miterlimit:2;">
    <g transform="matrix(1.35002,0,0,1.35002,-2.09373,-8.11259)">
        <g transform="matrix(12,0,0,12,42.6047,15.9791)">
            <path d="M0.356,-0.101C0.34,-0.095 0.315,-0.089 0.29,-0.089C0.209,-0.089 0.141,-0.154 0.141,-0.335C0.141,-0.519 0.216,-0.586 0.289,-0.586C0.321,-0.586 0.337,-0.58 0.353,-0.572L0.373,-0.663C0.36,-0.671 0.329,-0.68 0.285,-0.68C0.165,-0.68 0.028,-0.587 0.028,-0.328C0.028,-0.12 0.116,0.006 0.27,0.006C0.314,0.006 0.349,-0.001 0.369,-0.011L0.356,-0.101Z" style="fill:#ffffff;fill-rule:nonzero;"/>
        </g>
        <g transform="matrix(12,0,0,12,47.2247,15.9791)">
            <path d="M0.059,-0L0.346,-0L0.346,-0.09L0.166,-0.09L0.166,-0.674L0.059,-0.674L0.059,-0Z" style="fill:#ffffff;fill-rule:nonzero;"/>
        </g>
        <g transform="matrix(12,0,0,12,51.1847,15.9791)">
            <path d="M0.23,0.008C0.348,0.008 0.437,-0.092 0.437,-0.346C0.437,-0.528 0.381,-0.682 0.24,-0.682C0.104,-0.682 0.028,-0.54 0.028,-0.338C0.028,-0.134 0.095,0.008 0.229,0.008L0.23,0.008ZM0.234,-0.085C0.163,-0.085 0.138,-0.206 0.139,-0.339C0.138,-0.464 0.163,-0.589 0.234,-0.589C0.306,-0.589 0.326,-0.463 0.326,-0.341C0.326,-0.206 0.304,-0.085 0.235,-0.085L0.234,-0.085Z" style="fill:#ffffff;fill-rule:nonzero;"/>
        </g>
        <g transform="matrix(12,0,0,12,56.7647,15.9791)">
            <path d="M0.056,-0.674L0.056,-0.243C0.056,-0.076 0.116,0.008 0.239,0.008C0.355,0.008 0.424,-0.074 0.424,-0.248L0.424,-0.674L0.317,-0.674L0.317,-0.23C0.317,-0.12 0.286,-0.086 0.239,-0.086C0.197,-0.086 0.163,-0.121 0.163,-0.23L0.163,-0.674L0.056,-0.674Z" style="fill:#ffffff;fill-rule:nonzero;"/>
        </g>
        <g transform="matrix(12,0,0,12,62.5367,15.9791)">
            <path d="M0.059,-0.002C0.083,0.002 0.12,0.005 0.157,0.005C0.244,0.005 0.31,-0.017 0.355,-0.063C0.406,-0.113 0.442,-0.204 0.442,-0.349C0.442,-0.484 0.408,-0.572 0.353,-0.621C0.313,-0.658 0.257,-0.677 0.179,-0.677C0.133,-0.677 0.09,-0.672 0.059,-0.664L0.059,-0.002ZM0.165,-0.588C0.174,-0.59 0.185,-0.591 0.196,-0.591C0.289,-0.591 0.332,-0.503 0.332,-0.35C0.332,-0.145 0.265,-0.083 0.191,-0.083C0.184,-0.083 0.174,-0.083 0.165,-0.085L0.165,-0.588Z" style="fill:#ffffff;fill-rule:nonzero;"/>
        </g>
        <g transform="matrix(12,0,0,12,68.1767,15.9791)">
            <path d="M0.026,-0.022C0.047,-0.008 0.098,0.006 0.148,0.006C0.269,0.006 0.355,-0.071 0.355,-0.192C0.355,-0.264 0.321,-0.329 0.236,-0.385C0.167,-0.429 0.14,-0.453 0.14,-0.505C0.14,-0.546 0.169,-0.587 0.23,-0.587C0.266,-0.587 0.294,-0.576 0.313,-0.564L0.332,-0.656C0.314,-0.667 0.275,-0.68 0.232,-0.68C0.106,-0.68 0.035,-0.597 0.035,-0.492C0.035,-0.419 0.087,-0.352 0.162,-0.304C0.217,-0.266 0.25,-0.235 0.25,-0.181C0.25,-0.125 0.214,-0.087 0.148,-0.087C0.113,-0.087 0.069,-0.099 0.044,-0.114L0.026,-0.022Z" style="fill:#ffffff;fill-rule:nonzero;"/>
        </g>
        <g transform="matrix(12,0,0,12,72.7247,15.9791)">
            <path d="M0.056,-0.674L0.056,-0.243C0.056,-0.076 0.116,0.008 0.239,0.008C0.355,0.008 0.424,-0.074 0.424,-0.248L0.424,-0.674L0.317,-0.674L0.317,-0.23C0.317,-0.12 0.286,-0.086 0.239,-0.086C0.197,-0.086 0.163,-0.121 0.163,-0.23L0.163,-0.674L0.056,-0.674Z" style="fill:#ffffff;fill-rule:nonzero;"/>
        </g>
        <g transform="matrix(12,0,0,12,78.4967,15.9791)">
            <path d="M0.482,-0L0.579,-0L0.539,-0.674L0.424,-0.674L0.361,-0.401C0.341,-0.313 0.326,-0.243 0.314,-0.167L0.312,-0.167C0.299,-0.243 0.282,-0.314 0.261,-0.401L0.196,-0.674L0.083,-0.674L0.038,-0L0.131,-0L0.143,-0.257C0.147,-0.337 0.151,-0.426 0.152,-0.502L0.155,-0.502C0.167,-0.427 0.185,-0.343 0.203,-0.275L0.269,-0.008L0.342,-0.008L0.412,-0.282C0.428,-0.347 0.446,-0.428 0.459,-0.502L0.462,-0.502C0.461,-0.428 0.465,-0.336 0.469,-0.26L0.482,-0Z" style="fill:#ffffff;fill-rule:nonzero;"/>
        </g>
        <g transform="matrix(12,0,0,12,85.9367,15.9791)">
            <path d="M0.482,-0L0.579,-0L0.539,-0.674L0.424,-0.674L0.361,-0.401C0.341,-0.313 0.326,-0.243 0.314,-0.167L0.312,-0.167C0.299,-0.243 0.282,-0.314 0.261,-0.401L0.196,-0.674L0.083,-0.674L0.038,-0L0.131,-0L0.143,-0.257C0.147,-0.337 0.151,-0.426 0.152,-0.502L0.155,-0.502C0.167,-0.427 0.185,-0.343 0.203,-0.275L0.269,-0.008L0.342,-0.008L0.412,-0.282C0.428,-0.347 0.446,-0.428 0.459,-0.502L0.462,-0.502C0.461,-0.428 0.465,-0.336 0.469,-0.26L0.482,-0Z" style="fill:#ffffff;fill-rule:nonzero;"/>
        </g>
        <g transform="matrix(12,0,0,12,93.3767,15.9791)">
            <rect x="0.059" y="-0.674" width="0.107" height="0.674" style="fill:#ffffff;"/>
        </g>
        <g transform="matrix(12,0,0,12,96.0887,15.9791)">
            <path d="M0.134,-0L0.241,-0L0.241,-0.576L0.362,-0.576L0.362,-0.674L0.013,-0.674L0.013,-0.576L0.134,-0.576L0.134,-0Z" style="fill:#ffffff;fill-rule:nonzero;"/>
        </g>
        <g transform="matrix(0.997918,0,0,0.997918,-87.9974,4.71226)">
            <path d="M116.39,9.166L116.822,11.266L118.07,11.266L116.402,3.178L114.902,3.178L113.102,11.266L114.35,11.266L114.782,9.166L116.39,9.166ZM114.926,8.158L115.286,6.31C115.382,5.806 115.502,5.026 115.586,4.462L115.622,4.462C115.706,5.026 115.814,5.77 115.922,6.298L116.258,8.158L114.926,8.158Z" style="fill:#ffffff;fill-rule:nonzero;"/>
            <rect x="119.018" y="3.178" width="1.284" height="8.088" style="fill:#ffffff;fill-rule:nonzero;"/>
            <path d="M128.942,11.266C128.426,10.594 128.066,10.126 127.85,9.838C128.39,9.118 128.714,7.99 128.81,6.946L127.706,6.946C127.682,7.534 127.598,8.41 127.286,9.034C126.83,8.434 126.266,7.582 125.942,7.066L125.942,7.006C127.046,6.25 127.334,5.59 127.334,4.822C127.334,3.73 126.614,3.082 125.714,3.082C124.562,3.082 123.866,3.994 123.866,5.038C123.866,5.65 124.07,6.25 124.454,6.814L124.454,6.85C123.638,7.426 123.206,8.182 123.206,9.106C123.206,10.306 123.962,11.362 125.33,11.362C126.002,11.362 126.638,11.098 127.082,10.63C127.286,10.93 127.406,11.086 127.538,11.266L128.942,11.266ZM125.546,10.39C124.814,10.39 124.394,9.718 124.394,8.962C124.394,8.35 124.67,7.894 124.97,7.606C125.438,8.314 126.014,9.154 126.554,9.862C126.314,10.198 125.978,10.39 125.558,10.39L125.546,10.39ZM125.654,3.97C126.11,3.97 126.242,4.462 126.242,4.882C126.242,5.422 125.99,5.878 125.426,6.31C125.138,5.866 125.006,5.482 125.006,4.978C125.006,4.414 125.222,3.97 125.642,3.97L125.654,3.97Z" style="fill:#ffffff;fill-rule:nonzero;"/>
        </g>
    </g>
    <g transform="matrix(0.000769833,0,0,0.000769833,5.71792e-05,0.00140935)">
        <g transform="matrix(170.691,0,0,170.691,-0.0177511,-6242.45)">
            <path d="M41.339,80.492C49.502,55.016 73.374,36.572 101.559,36.572C130.258,36.572 154.484,55.691 162.211,81.885L163.209,81.885C187.732,81.885 208.405,99.213 213.59,122.23C196.629,98.988 175.818,94.555 157.54,94.555L156.54,94.555C148.815,68.361 124.588,49.242 95.889,49.242C72.636,49.242 52.321,61.794 41.339,80.492" style="fill:#cccccc;"/>
        </g>
        <g transform="matrix(170.691,0,0,170.691,-0.0177511,-6801.96)">
            <path d="M49.13,67.128L49.763,67.128C48.515,69.382 47.4,71.72 46.43,74.132C28.844,74.98 13.292,82.994 3.355,94.951C11.999,78.454 29.305,67.128 49.13,67.128" style="fill:#cccccc;"/>
        </g>
        <g transform="matrix(170.691,0,0,170.691,-0.0177511,5646.97)">
            <path d="M229.45,79.589C139.153,0.085 83.507,115.317 24.024,83.41C9.015,75.355 -2.315,60.486 0.405,42.728C5.25,11.105 34.925,13.447 53.723,14.759C36.602,19.214 10.121,20.508 14.265,47.854L14.315,48.183L14.4,48.505C15.687,53.415 18.126,57.802 21.881,61.252C65.197,101.053 152.477,-26.17 229.45,79.589" style="fill:#ffffff;"/>
        </g>
        <g transform="matrix(170.691,0,0,170.691,-0.0177511,13174.8)">
            <path d="M190.911,24.536C142.138,-1.795 125.875,35.308 93.841,36.323C123.874,46.841 143.493,5.897 190.911,24.536" style="fill:#cccccc;"/>
        </g>
        <g transform="matrix(170.691,0,0,170.691,-0.0177511,8036.39)">
            <path d="M87.13,35.238C21.68,63.642 12.208,21.364 36.135,12.32C30.679,11.507 18.065,17.332 20.423,32.925C26.02,54.255 55.723,52.614 87.13,35.238" style="fill:#cccccc;"/>
        </g>
    </g>
</svg>