<svg fill="none" viewBox="0 0 361 123" xmlns="http://www.w3.org/2000/svg">
<path d="M98.8109 71.6065H108.859V41.8089H98.8109V71.6065ZM88.1846 81.9588V31.4986H114.338V36.5068H119.514V76.8946H114.338V81.9448H88.1846V81.9588Z" fill="#ffffff"></path>
<path d="M43.3077 31.4986H32.0164V81.7489H43.3077V31.4986Z" fill="#ffffff"></path>
<path d="M137.556 31.4986H126.265V81.7489H137.556V31.4986Z" fill="#ffffff"></path>
<path d="M60.7148 81.9448H50.074V31.4986H81.3891V81.9448H70.7483V41.8089H60.7003V81.9448H60.7148Z" fill="#ffffff"></path>
<path clip-rule="evenodd" d="M144.323 81.9448H154.949V61.8838H164.997V81.9448H175.623V31.4986H144.308V81.9448H144.323ZM165.012 50.958V41.8089H154.964V50.958H165.012Z" fill="#ffffff" fill-rule="evenodd"></path>
<path d="M206.462 81.9448H195.806V31.4986H222.004V41.8089H206.462V51.5596H222.004V61.8698H206.462V81.9588V81.9448Z" fill="#ffffff"></path>
<path d="M227.584 31.4986V81.9448H258.957V31.4986H227.584ZM248.302 71.6065H238.225V41.8089H248.302V71.6065Z" fill="#ffffff"></path>
<path d="M297.096 41.8089V31.4986H270.913H265.723V36.5068V61.8558H286.455V71.6065H265.723V81.9448H291.92H297.096V76.8946V51.5456H276.378V41.8089H297.096Z" fill="#ffffff"></path>
<path d="M335.25 41.8089V31.4986H309.053H303.877V36.5068V61.8558H324.595V71.6065H303.877V81.9448H330.074H335.25V76.8946V51.5456H314.532V41.8089H335.25Z" fill="#ffffff"></path>
<path clip-rule="evenodd" d="M360.638 18.9285V94.3498V105.124L335.498 105.124V94.3498H349.863V18.9285L17.6505 18.9285V94.3498L234.936 94.3498V105.124L17.6505 105.124V105.124H6.87604V105.124H6.87598L6.87598 94.3498H6.87604V18.9285H6.87602L6.87602 8.15396L349.863 8.15398H360.638V18.9285Z" fill="#ffffff" fill-rule="evenodd"></path>
<rect fill="#ffffff" height="7.3459" width="18.1898" x="243.803" y="94.3018"></rect>
<rect fill="#ffffff" height="7.3459" width="17.84" x="287.179" y="94.3019"></rect>
<rect fill="#ffffff" height="7.3459" width="17.84" x="265.491" y="94.3019"></rect>
<rect fill="#ffffff" height="6.99609" width="18.1898" x="243.803" y="105.146"></rect>
<rect fill="#ffffff" height="6.99609" width="17.84" x="287.179" y="105.146"></rect>
<rect fill="#ffffff" height="6.99609" width="17.84" x="308.517" y="105.146"></rect>
<rect fill="#ffffff" height="6.99609" width="17.84" x="308.517" y="94.3019"></rect>
<rect fill="#ffffff" height="7.3459" width="17.84" x="308.517" y="115.64"></rect>
<rect fill="#ffffff" height="5.24707" width="7.3459" x="254.647" y="99.8987"></rect>
<rect fill="#ffffff" height="5.24707" width="7.3459" x="297.673" y="99.8987"></rect>
<rect fill="#ffffff" height="14.342" width="6.99609" x="276.335" y="101.648"></rect>
<rect fill="#ffffff" height="5.59688" width="7.3459" x="243.803" y="110.393"></rect>
<rect fill="#ffffff" height="5.59688" width="6.99609" x="287.179" y="110.393"></rect>
<rect fill="#ffffff" height="10.8439" width="7.3459" x="308.517" y="94.3019"></rect>
<rect fill="#ffffff" height="16.091" width="6.99609" x="265.491" y="99.8987"></rect>
<rect fill="#ffffff" height="6.99609" width="18.1898" x="243.803" y="115.99"></rect>
<rect fill="#ffffff" height="6.99609" width="17.84" x="287.179" y="115.99"></rect>
<rect fill="#ffffff" height="10.8439" width="6.99609" x="319.361" y="112.142"></rect>
<rect fill="#ffffff" height="6.99609" width="17.84" x="265.491" y="115.99"></rect>
<g clip-path="url(#clip0_143_606)">
<path d="M108.787 0H107.319H103.333H101.579H97.7109H96.1768H93.138H91.4865H35.8121H34.212H33.0816H0V22.4322L2.62774 27.1566H35.0781L35.8121 27.1493H111.363L111.422 4.72449L108.787 0Z" fill="#1A1A1A"></path>
<path d="M107.598 1.65321H34.3074V6.20871H107.598V1.65321Z" fill="white"></path>
<path d="M21.609 21.1978H23.8697V16.7819H26.013V21.1978H28.2738V10.1029H21.609V21.1978ZM23.8697 12.3733H26.013V14.5188H23.8697V12.3733ZM30.0501 10.1103H36.7148V21.2051H34.4541V12.3807H32.3108V21.2051H30.0501V10.1103ZM38.4911 10.1103H45.1559V21.2051H42.8952V12.3807H40.7519V21.2051H38.4911V10.1103ZM46.9322 10.1103H49.1929V21.2051H46.9322V10.1103ZM55.3733 10.1103H57.634V18.9861H56.533V20.0883H55.432V21.1978H50.9692V10.1029H53.23V18.92H54.2723V17.8179H55.3733V10.1029V10.1103ZM59.4103 10.1103H64.9741V12.3733H61.671V14.5188H64.9741V16.7819H61.671V18.9274H64.9741V21.2051H59.4103V10.1103ZM76.2924 10.1103H81.8562V12.3733H77.4521V14.5188H81.8562V21.1684H80.7552V21.2051H75.1914V18.9274H79.5955V16.7819H75.1914V11.2124H75.2501V10.147H76.2924V10.1103ZM83.6325 21.2051H85.8932V16.7892H88.0365V21.2051H90.2973V10.1103H83.6325V21.2051ZM85.8932 12.3807H88.0365V14.5262H85.8932V12.3807ZM92.0736 10.1176V21.2125H94.3343V16.7966H96.4776V21.2125H98.7383V16.7304H97.1382V15.0993H98.7383V10.1176H92.0736ZM96.4776 14.5262H94.3343V12.3807H96.4776V14.5262ZM66.7504 10.1176V21.2125H69.0111V16.7966H71.1544V21.2125H73.4151V16.7304H71.815V15.0993H73.4151V10.1176H66.7504ZM71.1544 14.5262H69.0111V12.3807H71.1544V14.5262ZM107.179 10.1176V16.7892H104.977V21.2051H102.717V16.7892H100.515V10.1176H102.775V14.5262H104.919V10.1176H107.179ZM1.65137 1.65321H19.084V4.93023H6.53251V8.83914H19.084V12.2925H19.0767V17.0023H19.084V21.1904H1.65137V17.0023V16.1132H6.51783V17.7371H14.1955V12.2925H1.65137V4.93023V1.65321ZM22.9008 3.3505H21.2053V1.65321H22.9008H24.5964H26.4314V3.3505H24.5964V8.30277H22.9008V3.3505ZM30.2482 5.61356H28.6921V8.30277H26.9966V1.65321H28.6921V3.91627H30.2482V1.65321H31.9438V8.30277H30.2482V5.61356Z" fill="white"></path>
<path d="M48.722 2.26311H34.8774V5.59113H48.722V2.26311Z" fill="#08B74F"></path>
<path d="M103.847 0H101.733V1.6532H103.847V0Z" fill="white"></path>
<path d="M96.8077 0H94.8552V1.6532H96.8077V0Z" fill="white"></path>
</g>
<defs>
<clipPath id="clip0_143_606">
<rect fill="white" height="27.1566" width="111.422"></rect>
</clipPath>
</defs>
</svg>