<svg width="672" height="66" viewBox="0 0 672 66" fill="none" xmlns="http://www.w3.org/2000/svg">
<path d="M17.7171 65.0194H0L24.7013 0.793823H40.693L17.7171 65.0194Z" fill="#fff"/>
<path d="M70.0649 0.793823H86.76V65.0194H70.0649V0.793823Z" fill="#fff"/>
<path d="M142.653 65.18H125.958L142.653 0.954468V65.18Z" fill="#fff"/>
<path d="M124.216 65.0194V0.793823H140.911L124.216 65.0194Z" fill="#fff"/>
<path d="M66.887 65.189L42.738 0.963501L34.7216 23.8061L37.2758 31.1215H32.1723L27.686 43.9273H41.7466L49.1699 65.189H66.887Z" fill="#fff"/>
<path d="M97.1707 0.802368H88.6948V14.2606H91.123C97.5963 14.2606 103.133 14.3459 103.133 22.438C103.133 30.2747 97.1704 30.2747 91.123 30.2747H88.6948V43.733H97.7668C112.332 43.733 120.509 37.0891 120.509 21.9272C120.509 7.19148 110.969 0.802368 97.1704 0.802368H97.1707Z" fill="#fff"/>
<g opacity="0.8">
<path d="M205.488 14.2695C201.208 10.4645 195.341 8.4034 189.713 8.4034C176.316 8.4034 166.09 19.5803 166.09 32.8193C166.09 45.8987 176.237 57.0766 189.555 57.0766C195.421 57.0766 201.049 54.8569 205.488 50.8932V59.6931C200.891 62.3871 195.024 63.894 189.793 63.894C172.749 63.894 158.639 50.338 158.639 33.0576C158.639 15.3794 172.828 1.58606 190.427 1.58606C195.659 1.58606 200.97 2.85427 205.489 5.62834V14.2695H205.488Z" fill="#fff"/>
<path d="M274.928 32.7407C274.928 50.4976 260.897 63.894 243.616 63.894C226.335 63.894 212.303 50.4976 212.303 32.7407C212.303 15.618 226.493 1.58606 243.616 1.58606C260.739 1.58606 274.928 15.6177 274.928 32.7407ZM267.477 32.7407C267.477 19.5803 257.647 8.56205 243.616 8.56205C229.585 8.56205 219.755 19.5803 219.755 32.7407C219.755 46.3753 230.694 56.918 243.616 56.918C256.537 56.918 267.477 46.3753 267.477 32.7407Z" fill="#fff"/>
<path d="M283.569 0L328.437 47.0091V2.85372H335.889V65.083L291.021 18.0739V62.6252H283.569V0Z" fill="#fff"/>
<path d="M356.022 9.67122V26.4769H376.792V33.2942H356.022V62.6251H348.571V2.85388H377.505V9.67122H356.022Z" fill="#fff"/>
<path d="M388.365 2.85388H420.47V9.67122H395.817V26.3982H419.757V33.2146H395.817V55.8077H420.47V62.6251H388.365V2.85388Z" fill="#fff"/>
<path d="M468.984 62.6254H459.947L442.349 37.3369H439.257V62.6254H431.806V2.85388H440.842C446.154 2.85388 451.861 2.93386 456.618 5.62795C461.613 8.56166 464.466 14.1894 464.466 19.8969C464.466 28.4584 458.759 35.594 450.118 36.6239L468.984 62.6251L468.984 62.6254ZM439.256 31.1548H441.636C449.246 31.1548 457.49 29.7266 457.49 20.2142C457.49 10.8611 448.612 9.5129 441.239 9.5129H439.256V31.1548Z" fill="#fff"/>
<path d="M476.989 2.85388H509.095V9.67122H484.441V26.3982H508.381V33.2146H484.441V55.8077H509.095V62.6251H476.989V2.85388Z" fill="#fff"/>
<path d="M519.717 0L564.584 47.0091V2.85372H572.036V65.083L527.167 18.0739V62.6252H519.717V0Z" fill="#fff"/>
<path d="M628.319 14.2695C624.037 10.4645 618.172 8.4034 612.543 8.4034C599.147 8.4034 588.92 19.5803 588.92 32.8193C588.92 45.8987 599.067 57.0766 612.385 57.0766C618.251 57.0766 623.88 54.8569 628.319 50.8932V59.6931C623.72 62.3871 617.855 63.894 612.622 63.894C595.579 63.894 581.469 50.338 581.469 33.0576C581.469 15.3794 595.659 1.58606 613.256 1.58606C618.489 1.58606 623.8 2.85427 628.319 5.62834V14.2695H628.319Z" fill="#fff"/>
<path d="M639.336 2.85388H671.44V9.67122H646.788V26.3982H670.728V33.2146H646.788V55.8077H671.44V62.6251H639.336V2.85388Z" fill="#fff"/>
</g>
</svg>
