<svg width="600" height="151" viewBox="0 0 600 151" fill="none" xmlns="http://www.w3.org/2000/svg">
<g clip-path="url(#clip0_3074_14626)">
<path d="M567.269 32.8116H557.741V82.1854H567.269V59.5115C567.269 50.542 567.269 39.7786 579.561 39.7786C589.298 39.7786 590.47 45.4732 590.47 53.9212V82.1854H599.998V52.7531C599.998 40.7173 596.397 31.3306 582.408 31.3306C576.378 31.3306 570.431 34.1883 567.478 39.4449H567.269V32.7908V32.8116ZM522.561 40.4044C531.984 40.4044 539.502 48.2057 539.502 57.5924C539.502 66.9791 531.984 74.7804 522.561 74.7804C513.138 74.7804 505.621 66.8748 505.621 57.5924C505.621 48.31 513.138 40.4044 522.561 40.4044ZM522.561 31.3306C507.736 31.3306 496.093 42.7198 496.093 57.5924C496.093 72.465 507.736 83.8542 522.561 83.8542C537.387 83.8542 549.03 72.465 549.03 57.5924C549.03 42.7198 537.387 31.3306 522.561 31.3306ZM489.727 6.3204C483.696 2.62832 476.598 0.938721 469.603 0.938721C446.088 0.938721 427.137 19.2948 427.137 42.8241C427.137 66.3533 445.983 83.8542 468.766 83.8542C475.76 83.8542 483.592 81.8517 489.727 78.2639V66.5619C483.801 71.8393 476.283 74.8013 468.431 74.8013C450.632 74.8013 437.083 59.9286 437.083 42.5112C437.083 25.0937 450.736 10.0125 468.64 10.0125C476.158 10.0125 483.989 12.745 489.727 17.8138V6.3204Z" fill="#00B5CC"/>
<path d="M418.344 29.7453C412.732 27.2213 406.575 26.2618 400.44 26.2618C388.567 26.2618 376.505 32.1649 376.505 45.4731C376.505 55.1727 382.536 58.1347 388.588 59.72C394.618 61.3053 400.67 61.5139 400.67 65.7275C400.67 68.6895 397.068 69.8367 394.639 69.8367C389.865 69.8367 383.311 67.1042 379.395 64.3507L372.401 77.7424C378.976 81.7473 386.598 83.9584 394.325 83.9584C406.931 83.9584 419.956 78.0553 419.956 63.8084C419.956 53.796 413.171 49.5615 404.167 47.7677C401.529 47.2462 395.477 46.7038 395.477 43.0117C395.477 40.2792 399.288 39.3197 401.508 39.3197C404.795 39.3197 408.921 40.3835 411.894 41.9479L418.365 29.7036L418.344 29.7453ZM334.143 42.9492C341.975 42.9492 346.54 48.5394 346.54 55.1935C346.54 61.8476 341.975 67.3336 334.143 67.3336C326.311 67.3336 321.746 62.0562 321.746 55.1935C321.746 48.3308 326.311 42.9492 334.143 42.9492ZM322.396 28.0557H303.131V109.198H322.396V77.0123C326.521 81.7682 332.991 83.9793 339.231 83.9793C355.335 83.9793 366.454 70.9005 366.454 55.277C366.454 39.6534 355.23 26.2618 339.022 26.2618C332.677 26.2618 326.102 28.7857 322.605 34.1674H322.396V28.0557ZM250.382 20.0457C262.779 20.0457 272.935 30.0582 272.935 41.051C272.935 54.7555 262.758 64.7888 250.382 64.7888C238.006 64.7888 227.83 54.7764 227.83 41.051C227.83 30.079 238.006 20.0457 250.382 20.0457ZM250.382 0C227.39 0 206.219 16.8751 206.219 40.9258C206.219 66.6661 224.751 84.8137 250.382 84.8137C276.013 84.8137 294.545 66.6661 294.545 40.9258C294.545 16.8751 273.354 0 250.382 0ZM157.491 28.0557H135.881L164.381 82.1854H176.673L205.047 28.0557H183.436L170.516 55.7985L157.491 28.0557ZM135.043 56.3408C135.043 37.8804 124.134 26.2618 105.287 26.2618C87.5929 26.2618 75.2173 37.1294 75.2173 55.1727C75.2173 73.2159 88.6609 83.9793 106.669 83.9793C112.91 83.9793 119.066 82.4983 124.05 79.432C129.034 76.3657 132.845 71.7349 134.331 65.3937H115.799C113.684 68.9815 110.711 70.3582 106.586 70.3582C98.6494 70.3582 94.5032 66.1446 94.5032 58.3224H135.064V56.3199L135.043 56.3408ZM94.7964 47.267C95.969 41.6768 100.618 38.7147 106.23 38.7147C111.423 38.7147 116.176 42.0939 117.14 47.267H94.7964ZM20.7518 20.15H25.6308C38.9697 20.15 48.3928 28.16 48.3928 42.4068C48.3928 57.9261 37.7971 64.6636 25.4005 64.6636H20.7308V20.15H20.7518ZM0 82.1854H29.4419C51.5758 82.1854 70.0031 64.7679 70.0031 42.4068C70.0031 20.0457 51.6805 2.62826 29.4419 2.62826H0V82.1854Z" fill="#ffffff"/>
<path d="M575.059 93.9499L357.574 119.732L358.244 82.9988L575.729 57.2168L575.059 93.9499Z" fill="#EE5F93"/>
<path d="M524.697 128.993L341.156 151L341.805 114.267L525.367 92.2603L524.697 128.993Z" fill="#EE5F93"/>
<path d="M397.696 85.314L404.564 84.5005L395.707 95.7436L404.502 106.027L397.319 106.882L390.534 98.351H390.472L390.095 107.738L384.566 108.384L385.383 86.7741L390.911 86.1275L390.576 95.0344H390.639L397.675 85.314H397.696Z" fill="white"/>
<path d="M425.273 82.0393L424.812 94.2002C424.707 96.9745 424.498 99.7488 422.278 102.085C420.415 104.067 417.609 105.026 415.138 105.318C412.646 105.61 409.861 105.318 408.165 103.754C406.134 101.918 406.134 99.1647 406.217 96.3905L406.678 84.2295L412.206 83.5829L411.787 94.9512C411.662 97.7672 411.746 100.813 415.305 100.375C418.865 99.9365 419.179 96.8702 419.305 94.0542L419.724 82.6859L425.252 82.0393H425.273Z" fill="white"/>
<path d="M427.934 103.232L428.75 81.6221L436.666 80.6834C440.456 80.2454 442.948 81.4344 442.78 85.5436C442.717 87.4835 442.047 89.1314 440.267 90.237V90.2995C443.283 90.3413 444.518 92.2812 444.393 95.2849C444.225 99.8113 440.351 101.751 436.456 102.21L427.934 103.211V103.232ZM433.65 98.2886L434.362 98.2052C435.996 98.0175 438.739 97.7671 438.843 95.3892C438.969 92.7818 436.205 93.3658 434.383 93.5744L433.818 93.637L433.65 98.2678V98.2886ZM433.985 89.4652L434.614 89.3817C436.079 89.2148 437.608 88.7768 437.671 86.9412C437.755 84.9596 436.037 85.043 434.551 85.2307L434.153 85.2725L433.985 89.4443V89.4652Z" fill="white"/>
<path d="M453.228 83.4576L453.082 87.0663L459.322 86.3153L459.154 91.0712L452.914 91.8222L452.767 95.556L459.343 94.7842L459.175 99.5401L447.051 100.979L447.867 79.3692L459.992 77.9299L459.824 82.6858L453.249 83.4576H453.228Z" fill="white"/>
<path d="M480.265 97.0371L473.375 97.8506L468.475 90.1536H468.413L468.099 98.4764L462.57 99.1231L463.387 77.5129L471.658 76.5325C475.867 76.0319 478.987 77.6798 478.82 82.3105C478.694 85.2934 476.956 88.0677 473.92 88.9646L480.265 97.0371ZM468.559 86.5449L469.104 86.4824C470.905 86.2738 472.957 85.6897 473.04 83.3326C473.124 80.9755 471.114 80.8712 469.313 81.1007L468.769 81.1633L468.559 86.5449Z" fill="white"/>
<path d="M482.589 75.2599L488.117 74.6133L497.749 86.6282H497.812L498.336 73.4035L503.864 72.7568L503.047 94.367L497.519 95.0136L487.887 82.9779H487.824L487.321 96.2235L481.793 96.8701L482.61 75.2599H482.589Z" fill="white"/>
<path d="M512.804 76.4073L512.657 80.016L518.897 79.2859L518.73 84.0418L512.49 84.7719L512.322 88.5057L518.897 87.7339L518.73 92.4898L506.605 93.9291L507.422 72.3189L519.547 70.8796L519.379 75.6355L512.804 76.4073Z" fill="white"/>
<path d="M530.625 91.0712L525.097 91.7178L525.746 74.8636L521.16 75.4059L521.328 70.65L536.007 68.9187L535.839 73.6746L531.274 74.2169L530.625 91.0712Z" fill="white"/>
<path d="M543.377 72.7777L543.23 76.3863L549.47 75.6563L549.303 80.4122L543.062 81.1422L542.916 84.876L549.491 84.1043L549.324 88.8602L537.199 90.2995L538.016 68.6893L550.14 67.25L549.973 72.0059L543.398 72.7777H543.377Z" fill="white"/>
<path d="M565.029 71.0047C564.023 70.2746 562.767 69.8574 561.406 70.0034C560.38 70.1286 558.998 70.8795 558.956 72.0894C558.914 73.3409 560.38 73.6538 561.322 73.8624L562.725 74.1127C565.657 74.655 567.897 75.8857 567.73 79.3901C567.646 81.5386 567.06 83.8123 565.301 85.4601C563.584 87.0872 561.343 87.9632 559.186 88.2136C556.506 88.5264 553.909 87.9215 551.773 86.6491L554.328 81.8306C555.689 82.8944 557.281 83.708 559.165 83.4785C560.464 83.3325 561.888 82.4981 561.929 80.9754C561.992 79.3901 559.835 79.1189 558.684 78.9103C555.229 78.3263 552.988 77.6796 553.176 73.4869C553.344 69.1065 556.527 65.8733 560.799 65.3727C562.956 65.1224 565.531 65.4978 567.395 66.3531L565.029 70.963V71.0047Z" fill="white"/>
<path d="M349.387 142.573L350.203 120.963L358.119 120.024C361.909 119.586 364.401 120.754 364.233 124.884C364.171 126.824 363.5 128.472 361.721 129.577V129.64C364.736 129.682 365.971 131.622 365.846 134.625C365.678 139.152 361.804 141.092 357.909 141.551L349.387 142.552V142.573ZM355.103 137.608L355.815 137.525C357.449 137.337 360.192 137.087 360.297 134.709C360.422 132.101 357.658 132.685 355.836 132.894L355.271 132.957L355.103 137.587V137.608ZM355.459 128.785L356.088 128.701C357.553 128.534 359.082 128.096 359.145 126.261C359.229 124.279 357.512 124.363 356.025 124.55L355.627 124.592L355.459 128.785Z" fill="white"/>
<path d="M391.413 126.428C391.141 133.415 386.01 138.943 379.184 139.736C372.357 140.549 367.583 136.211 367.876 129.202C368.127 122.673 373.949 117.416 380.063 116.686C386.178 115.956 391.664 119.878 391.413 126.407V126.428ZM373.635 128.576C373.467 132.31 376.085 134.709 379.393 134.312C382.702 133.916 385.508 130.871 385.675 127.158C385.78 124.175 383.162 121.776 379.875 122.172C376.566 122.569 373.76 125.614 373.656 128.597L373.635 128.576Z" fill="white"/>
<path d="M416.457 123.466C416.185 130.453 411.055 135.981 404.207 136.795C397.381 137.608 392.606 133.269 392.9 126.261C393.151 119.732 398.972 114.475 405.087 113.745C411.222 113.015 416.688 116.937 416.436 123.466H416.457ZM398.658 125.593C398.511 129.327 401.108 131.726 404.417 131.329C407.725 130.933 410.531 127.888 410.699 124.175C410.803 121.192 408.186 118.793 404.898 119.189C401.59 119.586 398.784 122.631 398.679 125.614L398.658 125.593Z" fill="white"/>
<path d="M427.034 133.353L421.506 134.02L422.155 117.166L417.59 117.708L417.757 112.953L432.436 111.221L432.269 115.977L427.683 116.519L427.034 133.374V133.353Z" fill="white"/>
<path d="M449.376 116.415C448.329 114.997 446.507 114.392 444.602 114.621C441.209 115.018 438.843 117.938 438.696 121.275C438.592 124.675 440.79 126.866 444.246 126.469C446.046 126.261 447.889 125.155 449.125 123.612L448.832 130.349C446.989 131.142 445.649 131.726 443.932 131.934C440.958 132.289 438.173 131.476 436.058 129.702C433.796 127.825 432.854 125.155 432.98 121.943C433.084 119.002 434.299 116.019 436.393 113.662C438.571 111.242 441.649 109.552 444.643 109.198C446.423 108.989 448.015 109.198 449.648 109.678L449.376 116.415Z" fill="white"/>
<path d="M457.817 125.969L456.205 129.89L450.32 130.579L459.346 108.009L465.397 107.3L472.601 127.95L466.696 128.66L465.46 125.072L457.838 125.969H457.817ZM462.131 114.329H462.068L459.513 121.484L464.12 120.942L462.131 114.329Z" fill="white"/>
<path d="M477.459 105.881L482.903 105.235L486.798 116.269L491.803 104.192L497.31 103.545L499.697 124.78L494.169 125.427L493.101 113.182H493.038L487.447 126.24L485.249 126.49L480.851 114.642H480.788L478.527 127.304L473.02 127.95L477.459 105.923V105.881Z" fill="white"/>
<path d="M502.856 102.857L511.337 101.856C515.901 101.313 519.022 103.086 518.812 108.051C518.624 113.161 515.839 115.706 511.001 116.269L507.86 116.645L507.567 123.82L502.039 124.467L502.856 102.857ZM508.028 112.118L508.949 112.014C510.96 111.785 512.928 111.534 513.012 108.906C513.116 106.194 511.274 106.382 509.138 106.632L508.195 106.737L508.007 112.118H508.028Z" fill="white"/>
<path d="M368.734 92.3855L373.173 91.864L372.985 97.3083L378.345 96.6825L378.157 101.188L372.796 101.814L372.587 107.279L368.147 107.8L368.357 102.335L362.996 102.961L363.185 98.4555L368.545 97.8298L368.734 92.3855Z" fill="white"/>
</g>
<defs>
<clipPath id="clip0_3074_14626">
<rect width="600" height="151" fill="white"/>
</clipPath>
</defs>
</svg>
