<svg width="1151" height="136" viewBox="0 0 1151 136" fill="none" xmlns="http://www.w3.org/2000/svg">
<path fill-rule="evenodd" clip-rule="evenodd" d="M766.877 84.7643H775.247V123.894H768.227L750.147 99.3343V123.894H742.057V84.7643H749.607L766.877 108.514V84.7643Z" fill="black"/>
<path fill-rule="evenodd" clip-rule="evenodd" d="M796.827 99.8743C794.937 99.8743 793.587 100.414 792.237 101.494C790.887 102.574 790.077 103.924 789.537 105.814H804.107C803.567 103.924 802.487 102.574 801.407 101.494C800.327 100.144 798.707 99.8743 796.817 99.8743M812.477 108.784C812.477 109.594 812.477 110.404 812.207 111.214H789.277C789.547 113.374 790.357 114.994 791.707 116.074C793.057 117.154 794.677 117.694 796.567 117.694C797.917 117.694 799.267 117.424 800.347 116.884C801.427 116.344 802.237 115.534 803.047 114.184H811.677C810.597 117.424 808.707 120.124 806.007 122.004C803.307 123.894 800.067 124.974 796.567 124.974C793.597 124.974 790.897 124.164 788.477 122.814C786.047 121.464 784.157 119.574 782.807 117.144C781.457 114.714 780.647 112.014 780.647 109.054C780.647 106.094 781.457 103.384 782.807 100.964C784.157 98.5343 786.047 96.6443 788.477 95.2943C790.907 93.9443 793.607 93.1343 796.567 93.1343C799.527 93.1343 802.237 93.9443 804.657 95.2943C807.087 96.6443 808.977 98.5343 810.327 100.964C811.947 103.124 812.487 105.824 812.487 108.784M833.527 116.604H837.307V123.894H831.367C828.127 123.894 825.427 122.814 823.547 120.924C821.657 119.034 820.577 116.334 820.577 113.104V100.154H815.177V98.5343L827.047 85.8543H828.667V93.6743H837.027V100.154H828.937V112.024C828.937 113.374 829.207 114.724 830.017 115.534C831.097 116.344 832.177 116.614 833.527 116.614M857.537 115.794C859.697 115.794 861.587 114.984 863.207 113.634C864.557 112.014 865.367 110.394 865.367 107.964C865.367 105.804 864.557 103.914 863.207 102.294C861.857 100.944 859.967 100.134 857.537 100.134C855.377 100.134 853.487 100.944 851.867 102.294C850.517 103.644 849.707 105.534 849.707 107.964C849.707 110.124 850.517 112.014 851.867 113.634C853.487 115.254 855.107 115.794 857.537 115.794ZM867.787 93.6743H873.187V120.384C873.187 125.244 871.837 128.744 869.137 131.714C866.437 134.414 862.657 135.764 857.807 135.764C853.757 135.764 850.257 134.684 847.557 132.794C844.857 130.904 842.967 128.204 842.427 124.704H850.517C851.057 126.054 851.867 127.134 853.217 127.674C854.567 128.484 856.187 128.754 857.807 128.754C859.967 128.754 861.857 128.214 863.207 126.864C864.557 125.514 865.367 123.894 865.367 121.734V120.654C862.667 122.544 859.967 123.354 856.737 123.354C854.037 123.354 851.337 122.814 849.187 121.464C846.757 120.114 845.137 118.224 843.787 116.064C842.437 113.634 841.897 111.204 841.897 108.244C841.897 105.544 842.437 102.844 843.787 100.694C845.137 98.2643 847.027 96.6443 849.187 95.2943C851.617 93.9443 854.047 93.1343 856.737 93.1343C860.787 93.1343 864.027 94.4843 866.717 96.9143L867.797 93.6743H867.787ZM894.777 99.8743C892.887 99.8743 891.537 100.414 890.187 101.494C888.837 102.574 888.027 103.924 887.487 105.814H902.057C901.517 103.924 900.437 102.574 899.357 101.494C898.277 100.144 896.657 99.8743 894.767 99.8743M910.427 108.784C910.427 109.594 910.427 110.404 910.157 111.214H887.227C887.497 113.374 888.307 114.994 889.657 116.074C891.007 117.154 892.627 117.694 894.517 117.694C895.867 117.694 897.217 117.424 898.297 116.884C899.377 116.344 900.187 115.534 900.997 114.184H909.627C908.547 117.424 906.657 120.124 903.957 122.004C901.257 123.894 898.017 124.974 894.517 124.974C891.547 124.974 888.847 124.164 886.427 122.814C883.997 121.464 882.107 119.574 880.757 117.144C879.407 114.714 878.597 112.014 878.597 109.054C878.597 106.094 879.407 103.384 880.757 100.964C882.107 98.5343 883.997 96.6443 886.427 95.2943C888.857 93.9443 891.557 93.1343 894.517 93.1343C897.477 93.1343 900.187 93.9443 902.607 95.2943C905.037 96.6443 906.927 98.5343 908.277 100.964C909.897 103.124 910.437 105.824 910.437 108.784M933.627 92.8643C937.137 92.8643 939.837 93.9443 941.717 96.3743C943.877 98.8043 944.687 101.774 944.687 105.544V123.894H936.597V106.894C936.597 102.304 934.707 100.144 931.197 100.144C929.037 100.144 927.417 100.954 926.337 102.304C924.987 103.654 924.447 105.544 924.447 107.974V123.894H916.357V93.6743H922.027L923.647 97.4543C924.727 96.1043 926.347 95.0243 927.967 94.2143C929.587 93.4043 931.477 92.8643 933.637 92.8643M958.447 110.934C962.227 110.934 965.197 113.904 965.197 117.684C965.197 121.464 962.227 124.434 958.447 124.434C954.667 124.434 951.697 121.464 951.697 117.684C951.697 114.174 954.667 110.934 958.447 110.934Z" fill="black"/>
<path d="M698.958 107.123L685.227 84.8239H691.708L701.814 102.18L711.92 84.8239H718.071L704.341 107.123V123.764H698.958V107.123Z" fill="black"/>
<path d="M655.751 84.8239H668.438C675.853 84.8239 680.192 89.2177 680.192 95.3691C680.192 99.5432 677.775 102.509 674.37 103.772C678.819 104.871 681.4 108.825 681.4 113.164C681.4 119.316 676.512 123.764 669.372 123.764H655.751V84.8239ZM661.134 101.85H667.834C672.173 101.85 674.755 99.2686 674.755 95.6437C674.755 91.9639 672.063 89.5472 667.615 89.5472H661.134V101.85ZM661.134 119.041H668.603C672.942 119.041 675.908 116.624 675.908 112.835C675.908 109.1 673.546 106.464 668.823 106.464H661.134V119.041Z" fill="black"/>
<path d="M605.676 118.986H613.64C620.835 118.986 626.877 114.153 626.877 104.376C626.877 94.5452 620.945 89.6022 613.75 89.6022H605.676V118.986ZM613.805 123.764H600.294V84.8239H613.915C623.801 84.8239 632.424 91.5794 632.424 104.376C632.424 117.119 623.691 123.764 613.805 123.764Z" fill="black"/>
<path d="M590.954 123.764H567.282V84.8239H590.954V89.8219H572.664V101.795H589.251V106.848H572.664V118.766H590.954V123.764Z" fill="black"/>
<path d="M552.335 123.764L543.438 107.837H537.616V123.764H532.178V84.8239H546.843C554.203 84.8239 558.761 89.9866 558.761 96.4126C558.761 102.015 555.191 106.354 549.314 107.452L558.596 123.764H552.335ZM537.616 103.003H545.854C550.248 103.003 553.214 100.422 553.214 96.4126C553.214 92.2934 550.248 89.6571 545.854 89.6571H537.616V103.003Z" fill="black"/>
<path d="M522.839 123.764H499.167V84.8239H522.839V89.8219H504.549V101.795H521.136V106.848H504.549V118.766H522.839V123.764Z" fill="black"/>
<path d="M478.356 115.636L486.759 84.8239H492.307L481.212 123.764H475.665L465.504 92.1835L455.453 123.764H450.071L438.812 84.8239H444.359L452.927 115.306L462.703 84.8239H468.36L478.356 115.636Z" fill="black"/>
<path d="M401.891 104.267C401.891 114.427 408.701 119.645 415.951 119.645C423.201 119.645 430.011 114.427 430.011 104.267C430.011 94.1058 423.201 88.9431 415.951 88.9431C408.701 88.9431 401.891 94.1058 401.891 104.267ZM396.398 104.267C396.398 91.2498 406.175 84 415.951 84C425.727 84 435.504 91.2498 435.504 104.267C435.504 117.283 425.727 124.588 415.951 124.588C406.175 124.588 396.398 117.283 396.398 104.267Z" fill="black"/>
<path d="M370.382 103.003H378.182C382.85 103.003 385.706 100.422 385.706 96.4126C385.706 92.2934 382.85 89.6571 378.182 89.6571H370.382V103.003ZM379.17 107.837H370.382V123.764H365V84.8239H379.17C386.365 84.8239 391.198 89.8219 391.198 96.3577C391.198 102.948 386.365 107.837 379.17 107.837Z" fill="black"/>
<path d="M183.97 50.84C183.41 49.36 182.86 44.53 182.86 40.82C182.86 19.29 199 0 227.95 0C256.9 0 272.67 18 272.67 39.53C272.67 55.12 264.32 67.92 248.92 77.01L226.1 90.56C222.57 92.79 219.6 95.2 217.93 98.72H273.6V123.21H182.12C182.12 101.13 188.43 82.94 210.51 70.14L230.18 58.63C239.64 53.06 243.35 48.05 243.35 40.07C243.35 32.09 237.97 25.78 227.21 25.78C215.89 25.78 210.32 33.57 210.32 43.59C210.32 46 210.69 48.6 211.43 51.01L183.97 50.82V50.84Z" fill="#22B28C"/>
<path d="M270.1 83.32C270.66 92.6 277.71 101.32 289.58 101.32C299.42 101.32 307.58 94.82 307.58 83.88C307.58 71.82 298.49 66.07 288.84 66.07C280.68 66.07 274.92 70.15 271.96 73.86C271.4 73.68 246.35 65.7 245.79 65.32L259.34 2.78H329.3V27.27H279.57L274.75 49.91C279.39 45.83 288.29 43.41 295.16 43.41C319.84 43.41 336.73 57.7 336.73 83.68C336.73 106.13 319.66 126.18 289.59 126.18C262.87 126.18 244.5 107.81 243.01 88.88L270.1 83.31V83.32Z" fill="#A16BF4"/>
<path d="M591.93 20.12C591.27 15.9 587.71 10.12 579.53 10.12C572.92 10.12 568.2 14.42 568.2 19.88C568.2 24.1 570.76 27.32 575.72 28.39L584.48 30.29C594.23 32.44 599.69 38.56 599.69 46.74C599.69 55.83 591.92 64.1 579.44 64.1C565.3 64.1 558.61 55.01 557.53 46.66L565.3 44.18C565.88 50.71 570.51 56.74 579.35 56.74C587.45 56.74 591.42 52.52 591.42 47.4C591.42 43.18 588.53 39.55 582.66 38.31L574.31 36.49C565.96 34.67 560.01 29.21 560.01 20.45C560.01 11.69 568.52 3.01001 579.35 3.01001C592.58 3.01001 597.87 11.2 599.19 17.56L591.91 20.12H591.93Z" fill="black"/>
<path d="M607.73 42.85V4.23999H615.75V42.6C615.75 51.53 620.63 56.57 628.81 56.57C636.99 56.57 641.79 51.53 641.79 42.6V4.23999H649.89V42.85C649.89 56.66 640.71 64.1 628.81 64.1C616.91 64.1 607.73 56.66 607.73 42.85Z" fill="black"/>
<path d="M715.82 62.86V17.23L695.81 62.86H688.37L668.53 17.23V62.86H660.51V4.25H671.51L692.18 51.95L713.01 4.25H723.84V62.86H715.82Z" fill="black"/>
<path d="M789.75 62.86V17.23L769.74 62.86H762.3L742.46 17.23V62.86H734.44V4.25H745.44L766.11 51.95L786.94 4.25H797.77V62.86H789.75Z" fill="black"/>
<path d="M808.32 62.86V4.25H843.95V11.77H816.42V29.79H841.39V37.39H816.42V55.33H843.95V62.85H808.32V62.86Z" fill="black"/>
<path d="M870.5 38.88H861.74V62.85H853.56V4.23999H875.63C886.71 4.23999 893.57 12.01 893.57 21.68C893.57 30.11 888.2 36.64 879.35 38.3L893.32 62.85H883.9L870.51 38.88H870.5ZM874.14 31.61C880.75 31.61 885.22 27.72 885.22 21.69C885.22 15.66 880.76 11.52 874.14 11.52H861.74V31.61H874.14Z" fill="black"/>
<path d="M918.01 33.51C918.01 13.92 932.56 3 947.11 3C960.5 3 969.93 10.28 972.9 21.6L965.38 24.25C963.15 15.4 956.7 10.44 947.11 10.44C936.45 10.44 926.28 18.21 926.28 33.51C926.28 48.81 936.45 56.66 947.11 56.66C957.11 56.66 963.4 50.62 965.79 42.6L972.98 45.25C969.84 56.25 960.58 64.1 947.1 64.1C931.97 64.1 918 53.11 918 33.51H918.01Z" fill="black"/>
<path d="M1015.36 46.49H989.4L983.2 62.86H974.52L997.83 4.25H1007.17L1030.48 62.86H1021.72L1015.35 46.49H1015.36ZM992.29 38.97H1012.46L1002.29 12.68L992.29 38.97Z" fill="black"/>
<path d="M1092.71 62.86V17.23L1072.7 62.86H1065.26L1045.42 17.23V62.86H1037.4V4.25H1048.4L1069.07 51.95L1089.9 4.25H1100.73V62.86H1092.71Z" fill="black"/>
<path d="M1119.43 38.88V62.85H1111.33V4.23999H1132.66C1143.49 4.23999 1150.76 11.76 1150.76 21.6C1150.76 31.44 1143.49 38.88 1132.66 38.88H1119.43ZM1131.17 31.61C1138.2 31.61 1142.5 27.72 1142.5 21.69C1142.5 15.66 1138.2 11.52 1131.17 11.52H1119.43V31.61H1131.17Z" fill="black"/>
<path d="M433.19 4.23999H441.54L424.84 62.87H416.49L401.19 15.32L386.06 62.87H377.96L361 4.23999H369.35L382.25 50.13L396.97 4.23999H405.49L420.54 50.63L433.19 4.23999Z" fill="black"/>
<path d="M448.75 62.86V4.22998H484.39V11.75H456.85V29.78H481.82V37.39H456.85V55.33H484.39V62.85H448.75V62.86Z" fill="black"/>
<path d="M514.09 4.23999C525.25 4.23999 531.79 10.86 531.79 20.12C531.79 26.4 528.15 30.87 523.03 32.77C529.73 34.42 533.61 40.38 533.61 46.91C533.61 56.17 526.25 62.87 515.5 62.87H494.99V4.23999H514.09ZM513.18 29.87C519.71 29.87 523.6 25.98 523.6 20.53C523.6 15.08 519.55 11.35 512.85 11.35H503.09V29.87H513.18ZM514.34 55.75C520.87 55.75 525.34 52.11 525.34 46.41C525.34 40.71 521.78 36.82 514.67 36.82H503.09V55.76H514.34V55.75Z" fill="black"/>
<path d="M1.85 50.89C1.29 49.41 0.74 44.58 0.74 40.87C0.74 19.35 16.88 0.0599976 45.83 0.0599976C74.78 0.0599976 90.55 18.06 90.55 39.58C90.55 55.17 82.2 67.97 66.8 77.06L43.98 90.61C40.45 92.84 37.49 95.25 35.82 98.77H91.48V123.26H0C0 101.18 6.31 83 28.39 70.19L48.06 58.69C57.52 53.12 61.23 48.11 61.23 40.14C61.23 32.17 55.85 25.85 45.09 25.85C33.77 25.85 28.2 33.64 28.2 43.66C28.2 46.07 28.57 48.67 29.31 51.08L1.85 50.89Z" fill="#4479E9"/>
<path d="M190.64 63.25C190.64 29.18 162.96 1.48999 128.88 1.48999C94.8001 1.48999 67.1201 29.17 67.1201 63.25C67.1201 67.66 67.5801 72.07 68.4901 76.18H189.26C190.17 72.07 190.63 67.66 190.63 63.25H190.64Z" fill="#F37A62"/>
<path d="M128.88 125C144.4 125 158.54 119.22 169.34 109.79H88.4202C99.2202 119.22 113.37 125 128.88 125Z" fill="#F37A62"/>
<path d="M71.2301 85.3C72.4501 88.49 73.9701 91.69 75.6401 94.58H181.96C183.63 91.69 185.15 88.5 186.37 85.3H71.2201H71.2301Z" fill="#F37A62"/>
<path d="M189.27 76.18H68.5001C69.1101 79.37 70.0201 82.42 71.2401 85.31H186.54C187.76 82.42 188.67 79.38 189.28 76.18H189.27Z" fill="white"/>
<path d="M88.4202 109.79H169.34C174.36 105.38 178.62 100.36 182.12 94.58H75.8002C79.1502 100.36 83.4102 105.53 88.4302 109.79H88.4202Z" fill="white"/>
<path d="M164.93 45.76V41.65H178.32V51.39C178.32 55.19 176.95 58.39 174.37 61.13C171.78 63.87 168.44 65.08 164.63 65.08H141.21C139.69 65.08 138.32 65.69 137.26 66.75C136.2 67.81 135.59 69.18 135.59 70.86V76.18H123.12V70.86C123.12 69.34 122.51 67.97 121.45 66.75C120.39 65.69 119.02 65.08 117.34 65.08H93.0001C89.2001 65.08 86.0001 63.71 83.4201 61.13C80.8301 58.39 79.4701 55.2 79.4701 51.55V41.97H93.0101V45.92C93.0101 47.14 93.4701 48.2 94.2301 48.96C94.9901 49.72 96.0601 50.18 97.2701 50.18H116.74C119.63 50.18 122.22 50.94 124.65 52.46C126.93 53.98 128.6 55.96 129.67 58.39C130.58 55.96 132.26 53.98 134.54 52.46C136.82 50.94 139.56 50.18 142.45 50.18H161.16C162.38 50.18 163.44 49.72 164.2 48.96C164.5 47.9 164.96 46.83 164.96 45.77L164.93 45.76Z" fill="black"/>
</svg>
