<svg fill="none" fill-rule="evenodd" stroke-linejoin="bevel" stroke-miterlimit="10" xmlns="http://www.w3.org/2000/svg" version="1.1" overflow="visible" viewBox="397.272 -642.5 92.473 21.5">
 <g transform="scale(1 -1)">
  <g fill="#000000" stroke="none">
   <g fill-rule="nonzero">
    <path d="M 400.161,621.861 C 399.287,622.398 398.588,623.117 398.061,624.021 C 397.535,624.924 397.272,625.932 397.272,627.044 L 397.272,636.486 C 397.272,637.071 397.35,637.631 397.507,638.166 L 401.557,638.166 C 401.554,638.162 401.55,638.158 401.546,638.154 C 401.1,637.677 400.876,637.121 400.876,636.486 L 400.876,627.044 C 400.876,626.389 401.094,625.828 401.531,625.361 C 401.968,624.895 402.484,624.661 403.08,624.661 C 403.715,624.661 404.247,624.889 404.673,625.346 C 405.1,625.803 405.314,626.369 405.314,627.044 L 405.314,628.503 L 403.229,628.503 C 403.13,628.503 403.08,628.553 403.08,628.652 L 403.08,631.988 C 403.08,632.087 403.13,632.137 403.229,632.137 L 408.799,632.137 C 408.822,632.137 408.842,632.133 408.858,632.124 L 407.169,622.768 L 407.168,622.762 C 406.829,622.419 406.449,622.119 406.029,621.861 C 405.155,621.325 404.172,621.057 403.08,621.057 C 402.008,621.057 401.035,621.325 400.161,621.861 Z M 405.314,635.116 L 405.314,636.248 C 405.314,637.002 405.1,637.627 404.673,638.124 C 404.661,638.138 404.649,638.152 404.637,638.166 L 408.699,638.166 C 408.845,637.636 408.918,637.076 408.918,636.486 L 408.918,635.116 C 408.918,635.036 408.868,634.996 408.769,634.996 L 405.433,634.996 C 405.354,634.996 405.314,635.036 405.314,635.116 Z M 397.785,638.907 C 397.775,638.886 397.766,638.866 397.756,638.845 L 397.756,638.845 C 397.765,638.867 397.775,638.887 397.785,638.907 Z M 402.811,638.848 C 402.801,638.848 402.791,638.847 402.782,638.845 L 402.781,638.845 C 402.795,638.848 402.806,638.849 402.811,638.848 Z M 403.369,638.848 C 403.375,638.849 403.386,638.847 403.4,638.845 L 403.4,638.845 C 403.389,638.847 403.379,638.848 403.369,638.848 Z M 408.475,638.817 C 408.458,638.859 408.439,638.9 408.42,638.941 C 408.439,638.901 408.457,638.86 408.475,638.817 C 408.471,638.827 408.467,638.836 408.464,638.845 C 408.467,638.836 408.471,638.827 408.475,638.817 Z M 397.873,639.096 C 397.914,639.183 397.959,639.268 398.006,639.353 C 398.024,639.385 398.043,639.417 398.061,639.449 C 398.043,639.417 398.024,639.385 398.006,639.353 C 397.962,639.273 397.919,639.19 397.873,639.096 C 397.862,639.075 397.852,639.054 397.842,639.033 C 397.853,639.054 397.863,639.076 397.873,639.096 Z M 408.335,639.128 C 408.28,639.244 408.229,639.342 408.185,639.421 C 408.165,639.456 408.154,639.475 408.144,639.494 C 408.154,639.475 408.165,639.456 408.185,639.421 C 408.233,639.335 408.287,639.233 408.335,639.128 C 408.346,639.107 408.356,639.084 408.366,639.061 C 408.356,639.084 408.346,639.106 408.335,639.128 Z M 403.08,642.413 C 403.014,642.413 402.949,642.412 402.884,642.41 C 402.949,642.412 403.014,642.413 403.08,642.413 Z M 403.08,642.413 C 403.148,642.413 403.216,642.412 403.284,642.41 C 403.216,642.412 403.148,642.413 403.08,642.413 Z"/>
    <path d="M 421.471,621.504 L 421.471,638.166 L 425.045,638.166 L 425.074,621.504 C 425.074,621.405 425.034,621.355 424.955,621.355 L 421.59,621.355 C 421.51,621.355 421.471,621.405 421.471,621.504 Z M 428.917,642.085 C 429.016,642.085 429.066,642.045 429.066,641.966 C 429.066,642.045 429.016,642.085 428.917,642.085 Z"/>
    <path d="M 430.192,621.504 L 430.217,638.166 L 433.796,638.166 L 433.796,633.835 L 439.326,633.835 L 439.945,630.235 L 439.945,630.231 C 439.941,630.231 439.937,630.231 439.932,630.231 L 433.796,630.231 L 433.796,625.019 L 439.932,625.019 C 440.012,625.019 440.051,624.969 440.051,624.87 L 440.051,621.474 C 440.051,621.395 440.012,621.355 439.932,621.355 L 430.312,621.355 C 430.232,621.355 430.192,621.405 430.192,621.504 Z M 438.466,638.845 L 437.93,641.966 L 438.466,638.845 Z M 430.342,642.085 C 430.262,642.085 430.222,642.045 430.222,641.966 C 430.222,642.045 430.262,642.085 430.342,642.085 Z"/>
    <path d="M 442.653,621.504 L 439.791,638.166 L 443.251,638.166 L 444.619,628.503 L 446.03,638.166 L 450.14,638.166 L 451.529,628.503 L 452.918,638.166 L 456.381,638.166 L 453.495,621.504 C 453.475,621.464 453.445,621.43 453.405,621.4 C 453.366,621.37 453.346,621.355 453.346,621.355 L 449.742,621.355 C 449.683,621.355 449.633,621.405 449.593,621.504 L 448.074,632.197 L 446.555,621.504 C 446.535,621.405 446.485,621.355 446.406,621.355 L 442.802,621.355 C 442.723,621.355 442.673,621.405 442.653,621.504 Z M 443.154,638.845 L 442.713,641.966 L 443.154,638.845 Z M 456.498,638.845 L 457.039,641.966 L 456.498,638.845 Z M 439.228,642.085 C 439.149,642.085 439.119,642.045 439.139,641.966 C 439.119,642.045 439.149,642.085 439.228,642.085 Z M 446.763,642.085 C 446.664,642.085 446.604,642.045 446.585,641.966 C 446.604,642.045 446.664,642.085 446.763,642.085 Z M 449.444,642.085 C 449.524,642.085 449.573,642.045 449.593,641.966 C 449.573,642.045 449.524,642.085 449.444,642.085 Z M 453.614,642.085 C 453.534,642.085 453.485,642.045 453.465,641.966 C 453.485,642.045 453.534,642.085 453.614,642.085 Z M 442.564,642.085 C 442.574,642.085 442.583,642.084 442.592,642.083 C 442.583,642.084 442.574,642.085 442.564,642.085 Z M 456.92,642.085 C 456.932,642.085 456.944,642.084 456.955,642.083 C 456.944,642.084 456.932,642.085 456.92,642.085 Z"/>
    <path d="M 468.026,621.355 L 467.371,624.908 L 474.312,638.166 L 478.317,638.166 L 471.339,624.84 L 478.518,624.84 C 478.597,624.84 478.637,624.79 478.637,624.691 L 478.666,621.504 C 478.666,621.405 478.617,621.355 478.518,621.355 L 468.026,621.355 Z M 467.676,642.085 C 467.596,642.085 467.557,642.036 467.557,641.937 C 467.557,642.036 467.596,642.085 467.676,642.085 Z M 478.458,642.085 C 478.557,642.085 478.607,642.036 478.607,641.937 C 478.607,642.036 478.557,642.085 478.458,642.085 Z"/>
    <path d="M 454.772,621.504 L 457.779,638.166 L 463.74,638.166 L 466.626,621.504 C 466.646,621.405 466.606,621.355 466.507,621.355 L 463.201,621.355 C 463.121,621.355 463.072,621.405 463.052,621.504 L 462.724,623.678 L 458.674,623.678 L 458.346,621.504 C 458.326,621.405 458.276,621.355 458.197,621.355 L 454.891,621.355 C 454.812,621.355 454.772,621.405 454.772,621.504 Z M 462.128,626.865 L 460.907,635.235 L 460.729,636.337 L 460.609,635.235 L 459.269,626.865 L 462.128,626.865 Z M 463.622,638.845 L 463.082,641.966 L 463.622,638.845 Z M 458.614,642.085 C 458.534,642.085 458.485,642.045 458.465,641.966 C 458.485,642.045 458.534,642.085 458.614,642.085 Z M 462.933,642.085 C 462.943,642.085 462.952,642.084 462.961,642.083 C 462.952,642.084 462.943,642.085 462.933,642.085 Z"/>
    <path d="M 479.886,621.504 L 479.91,638.166 L 483.49,638.166 L 483.49,633.835 L 489.595,633.835 C 489.675,633.835 489.715,633.795 489.715,633.716 L 489.745,630.35 C 489.745,630.271 489.705,630.231 489.625,630.231 L 483.49,630.231 L 483.49,625.019 L 489.625,625.019 C 489.705,625.019 489.745,624.969 489.745,624.87 L 489.745,621.474 C 489.745,621.395 489.705,621.355 489.625,621.355 L 480.005,621.355 C 479.925,621.355 479.886,621.405 479.886,621.504 Z M 489.595,642.085 C 489.675,642.085 489.715,642.036 489.715,641.937 C 489.715,642.036 489.675,642.085 489.595,642.085 Z M 480.035,642.085 C 479.955,642.085 479.916,642.045 479.916,641.966 C 479.916,642.045 479.955,642.085 480.035,642.085 Z"/>
    <path d="M 408.171,621.504 L 411.178,638.166 L 417.139,638.166 L 420.025,621.504 C 420.045,621.405 420.005,621.355 419.906,621.355 L 416.6,621.355 C 416.521,621.355 416.471,621.405 416.451,621.504 L 416.124,623.678 L 412.073,623.678 L 411.745,621.504 C 411.725,621.405 411.676,621.355 411.596,621.355 L 408.29,621.355 C 408.211,621.355 408.171,621.405 408.171,621.504 Z M 415.528,626.865 L 414.307,635.235 L 414.128,636.337 L 414.009,635.235 L 412.668,626.865 L 415.528,626.865 Z M 417.021,638.845 L 416.481,641.966 L 417.021,638.845 Z M 412.013,642.085 C 411.934,642.085 411.884,642.045 411.864,641.966 C 411.884,642.045 411.934,642.085 412.013,642.085 Z M 416.332,642.085 C 416.342,642.085 416.351,642.084 416.36,642.083 C 416.351,642.084 416.342,642.085 416.332,642.085 Z"/>
   </g>
   <path d="M 398.061,639.449 C 398.588,640.353 399.292,641.073 400.176,641.609 C 401.06,642.145 402.028,642.413 403.08,642.413 C 404.172,642.413 405.16,642.15 406.044,641.624 C 406.927,641.097 407.627,640.388 408.144,639.494 C 408.265,639.284 408.372,639.068 408.465,638.845 L 403.405,638.845 C 403.3,638.861 403.191,638.869 403.08,638.869 C 402.977,638.869 402.876,638.861 402.777,638.845 L 397.754,638.845 C 397.844,639.051 397.947,639.252 398.061,639.449 Z M 411.301,638.845 L 411.864,641.966 C 411.884,642.045 411.934,642.085 412.013,642.085 L 416.332,642.085 C 416.411,642.085 416.461,642.045 416.481,641.966 L 417.021,638.845 L 411.301,638.845 Z M 418.3,638.845 L 417.76,641.957 C 417.741,642.036 417.691,642.076 417.612,642.076 L 417.542,642.076 C 417.557,642.082 417.576,642.085 417.598,642.085 L 428.917,642.085 C 429.016,642.085 429.066,642.045 429.066,641.966 L 429.066,638.845 L 418.3,638.845 Z M 430.218,638.845 L 430.222,641.966 C 430.222,642.045 430.262,642.085 430.342,642.085 L 438.019,642.085 C 437.94,642.085 437.91,642.045 437.93,641.966 L 438.466,638.845 L 430.218,638.845 Z M 439.675,638.845 L 439.139,641.966 C 439.119,642.045 439.149,642.085 439.228,642.085 L 442.564,642.085 C 442.643,642.085 442.693,642.045 442.713,641.966 L 443.154,638.845 L 439.675,638.845 Z M 446.129,638.845 L 446.585,641.966 C 446.604,642.045 446.664,642.085 446.763,642.085 L 449.444,642.085 C 449.524,642.085 449.573,642.045 449.593,641.966 L 450.042,638.845 L 446.129,638.845 Z M 453.016,638.845 L 453.465,641.966 C 453.485,642.045 453.534,642.085 453.614,642.085 L 456.92,642.085 C 457.02,642.085 457.059,642.045 457.039,641.966 L 456.498,638.845 L 453.016,638.845 Z M 457.902,638.845 L 458.465,641.966 C 458.485,642.045 458.534,642.085 458.614,642.085 L 462.933,642.085 C 463.012,642.085 463.062,642.045 463.082,641.966 L 463.622,638.845 L 457.902,638.845 Z M 467.557,638.845 L 467.557,641.937 C 467.557,642.036 467.596,642.085 467.676,642.085 L 478.458,642.085 C 478.557,642.085 478.607,642.036 478.607,641.937 L 478.607,638.845 L 467.557,638.845 Z M 479.911,638.845 L 479.916,641.966 C 479.916,642.045 479.955,642.085 480.035,642.085 L 489.595,642.085 C 489.675,642.085 489.715,642.036 489.715,641.937 L 489.715,638.845 L 479.911,638.845 Z"/>
  </g>
 </g>
</svg>
